<?xml version="1.0" encoding="UTF-8"?>
<svg id="Capa_2" xmlns="http://www.w3.org/2000/svg" version="1.1" viewBox="0 0 227 227.8">
  <!-- Generator: Adobe Illustrator 30.2.1, SVG Export Plug-In . SVG Version: 2.1.1 Build 1)  -->
  <defs>
    <style>
      .st0 {
        fill: #999;
      }

      .st1 {
        fill: none;
        stroke: #999;
        stroke-linecap: round;
        stroke-linejoin: round;
        stroke-width: 2px;
      }
    </style>
  </defs>
  <g id="Diseño">
    <path class="st0" d="M207.9,15.8c-5.6,0-3.7,0-9.2,0v1.7h0c1.1,0,1.1-1.7,0-1.7-3.5,0-7.8,0-10.1-3.2-.9-1.2-1.7-2.6-2.5-3.9-.7-1.1-1.4-2.8-2.6-3.3-1.7-.7-2.8,1.1-3.4,2.4-.8,1.8-1.2,3.7-2,5.4-.3.6-.6,1.4-1.4,1.2-.9-.2-1.3-1.3-1.7-2-.7-1.4-2.4-3.2-3.8-1.6-.6.6-.8,1.5-1.2,2.2-.4,1-.6,1.4-1.5.7-1.5-1.1-2.6-2.8-3.8-4.3-2.1-2.8-4-5.8-5.6-9-.3-.6-1.2-.5-1.5,0-2.5,4.2-4.6,8.9-8.3,12.3-1.2,1.1-3.4,2.9-5.2,2.3-.9-.3-1.7-1.4-2.2-2.1-.8-1-1.4-2.1-1.8-3.3-.3-.9-1.6-.8-1.7.2,0,.8-.6,1.6-.9,2.3-.3.7-.7,1.5-1.3,2.1-.8.7-1.5.5-2.4.3-1.2-.3-2.4-.7-3.6-1s-2.5-.6-3.6-1.2-2.2-1.4-3.1-2.2c-2.1-1.9-4-4.1-5.9-6.2-.3-.4-1.1-.3-1.3.2-1.5,3.4-2.7,6.9-3.3,10.6l.8-.6c-7.5,0-14.1-3.6-20.2-7.6-.4-.3-1.2,0-1.3.5-.2,1.4-.3,2.9-.4,4.3,0,1,.2,2.8-1,3.2s-2.6-.2-3.6-.5c-1.4-.4-2.8-.9-4.2-1.6-3.2-1.5-6.4-3.7-9.9-4.5-2.9-.6-4.6.9-6.2,3.1-1,1.4-2,2.3-3.6,3-.8.4-1.7.7-2.6.9-.4,0-.8.2-1.3.2-.1,0-.7.1-.5,0-1,.1-1.1,1.7,0,1.7h0c1.1,0,1.1-1.7,0-1.7-5,0-10,.1-15.1.1-8.3,0-16.6.2-24.9.2-2.4,0,2.3,0,0,0-1.1,0-1.1,1.7,0,1.7,5.8,0,4.5,0,10.2-.1,8.1,0,16.2-.1,24.3-.2,1.8,0,3.7,0,5.5,0v-1.7h0v1.7c2.6-.4,5.5-1,7.6-2.8,1.1-.9,1.8-2.2,2.7-3.3,1.1-1.4,2.6-1.6,4.2-1.1,3.9,1.1,7.2,3.6,11,5.1,2.1.8,5.1,2,7.3,1.1,1.3-.5,1.6-1.7,1.7-3,.2-1.9.1-3.7.4-5.6l-1.3.5c6.4,4.1,13.3,7.8,21.1,7.8.3,0,.8-.3.8-.6.6-3.5,1.7-6.9,3.1-10.2l-1.3.2c2.3,2.5,4.5,5.2,7.1,7.2,2.4,1.9,5.3,2.6,8.2,3.4,2,.6,4,1.2,5.7-.4.8-.8,1.3-1.7,1.7-2.7.4-.9.9-1.8.9-2.8l-1.7.2c.8,2.2,2.4,5,4.5,6.2,1.7,1,4,0,5.5-.9,5.1-3.2,7.7-9.2,10.6-14.2h-1.5c1.5,3,3.3,5.9,5.4,8.6,1,1.3,2.1,2.8,3.3,4,.9,1,2.6,2.5,4,1.6.7-.5,1.1-1.4,1.4-2.2.1-.3.3-.9.6-1.2.3-.3,0-.5.6,0,.2.2.3.5.4.7.8,1.5,1.6,3.3,3.6,3.3,1.8,0,2.5-1.7,3.1-3.2.7-1.7,1-3.8,2-5.4.3-.4.4-.8,1-.3.5.3.9,1.5,1.3,2,1,1.5,1.9,3.1,3,4.6,2.6,3.5,7.4,3.7,11.3,3.7v-1.7h0c-1.1,0-1.1,1.7,0,1.7,5.6.1,3.7,0,9.2,0s1.1-1.7,0-1.7h0Z"/>
    <path class="st1" d="M17.8,210c2.4,0,10.5,0,11.9,0h0s6.4-.5,9.8,2.4c.5.4.8.8,1.3,1.5l3.8,5.9c.2.4.6.8,1.2.7.2,0,.4-.1.5-.2,1.8-1,2.7-8.4,4.6-8.9,2.5-.7,3.1,2.4,3.9,3.4.3.4.8.8,1.3.7,1.1-.1,1.5-3.4,2.7-3.9,1.7-.8,5.2,4.4,5.8,5.2,2.2,2.8,4,5.8,5.5,8.8,2.4-4.1,3.6-6.9,6.8-10.8,3.1-3.7,6.9-5.2,8.4-3.8,1.8,1.6,3,3.3,3.8,5.5,0-.6,1-2.8,1.3-3.4.4-.8.6-.8,1.1-1.5,0,0,.4-.4,1.1-.7,1-.5,4.3.8,8,1.8,3.6,1,7.3,5.5,10.7,9.2,1.5-3.4,2.6-6.9,3.2-10.4,8,0,14.8,3.9,20.7,7.7.3-1.6.3-5.1.6-6.8.5-2.6,5.1-.9,7-.3,3.8,1.2,7.9,4.2,11.7,5.3.6.2,1.3.4,1.9.3.7,0,1.3-.3,1.5-.4,2.4-1,2.6-4.1,5.9-5.6.4-.2,1.2-.6,2.3-.9,1.2-.4,3-.6,3-.6,0,0,37-.4,39.6-.4"/>
    <path class="st1" d="M18.3,16.6c0,2.4,0,12.5,0,13.9h0s.5,6.4-2.4,9.8c-.4.5-.8.8-1.5,1.3-2,1.3-3.9,2.5-5.9,3.8-.3.2-.8.6-.7,1.2,0,.2.1.4.2.5,1,1.8,8.4,2.7,8.9,4.6.7,2.5-2.4,3.1-3.4,3.9-.4.3-.8.8-.7,1.3.1,1.1,3.4,1.5,3.9,2.7.8,1.7-4.4,5.2-5.2,5.8-2.8,2.2-5.8,4-8.8,5.5,4.1,2.4,6.9,3.6,10.8,6.8,3.7,3.1,5.2,6.9,3.8,8.4-1.6,1.8-3.3,3-5.5,3.8.6,0,2.8,1,3.4,1.3.8.4.8.6,1.5,1.1,0,0,.4.4.7,1.1.5,1-.8,4.3-1.8,8s-5.5,7.3-9.2,10.7c3.4,1.5,6.9,2.6,10.4,3.2,0,8-3.9,14.8-7.7,20.7,1.7.3,5.1.3,6.8.6,2.6.5.9,5.1.3,7-1.2,3.8-4.2,7.9-5.3,11.7-.2.6-.4,1.3-.3,1.9,0,.7.3,1.3.4,1.5,1,2.4,4.1,2.6,5.6,5.9.2.4.6,1.2.9,2.3.4,1.2.6,3,.6,3,0,0,.4,36.9.4,39.4"/>
    <path class="st1" d="M208.7,210.3c0-2.4,0-10.7,0-12.1h0s-.5-6.4,2.4-9.8c.4-.4.8-.8,1.5-1.3,2-1.3,3.9-2.5,5.9-3.8.4-.2.8-.6.7-1.1,0-.2-.1-.4-.2-.5-1-1.8-8.4-2.7-8.9-4.6-.7-2.5,2.4-3.1,3.4-3.9.4-.3.8-.8.7-1.4-.1-1.1-3.4-1.5-3.9-2.7-.8-1.6,4.4-5.2,5.2-5.8,2.8-2.2,5.8-4,8.8-5.5-4.1-2.4-6.9-3.6-10.8-6.8-3.7-3.1-5.2-6.9-3.8-8.4,1.6-1.8,3.3-3,5.5-3.8-.6,0-2.8-1-3.4-1.3-.8-.4-.8-.6-1.5-1.1,0,0-.4-.4-.7-1.1-.5-1,.8-4.3,1.8-8,1-3.6,5.5-7.3,9.2-10.7-3.4-1.5-6.9-2.6-10.4-3.2,0-8,3.9-14.8,7.7-20.7-1.6-.3-5.1-.3-6.8-.6-2.6-.5-.9-5.1-.3-7,1.2-3.8,4.2-7.9,5.3-11.7.2-.6.4-1.3.3-1.9,0-.7-.3-1.3-.4-1.5-1-2.4-4.1-2.6-5.6-5.9-.2-.4-.6-1.2-.9-2.3-.4-1.2-.6-3-.6-3,0,0-.4-39.5-.4-42"/>
  </g>
</svg>