<?xml version="1.0" encoding="UTF-8"?>
<svg xmlns="http://www.w3.org/2000/svg" version="1.1" viewBox="0 0 176.4 442.2">
  <!-- Generator: Adobe Illustrator 30.2.1, SVG Export Plug-In . SVG Version: 2.1.1 Build 1)  -->
  <defs>
    <style>
      .st0, .st1, .st2 {
        fill: #fff;
      }

      .st3 {
        fill: #9b9b9b;
      }

      .st4 {
        fill: #606060;
      }

      .st5 {
        fill: #f2f2f2;
      }

      .st6, .st1, .st7, .st8, .st2 {
        stroke-linejoin: round;
      }

      .st6, .st1, .st7, .st2 {
        stroke-linecap: square;
      }

      .st6, .st7 {
        stroke: #5c5c5c;
      }

      .st6, .st7, .st8 {
        fill: none;
      }

      .st6, .st2 {
        stroke-width: 1.3px;
      }

      .st9 {
        fill: #333;
      }

      .st1, .st7 {
        stroke-width: 1.4px;
      }

      .st1, .st8, .st2 {
        stroke: #333;
      }

      .st10 {
        display: none;
      }

      .st11 {
        fill: #b0aaa9;
      }

      .st8 {
        stroke-linecap: round;
        stroke-width: 3px;
      }
    </style>
  </defs>
  <g id="Zapato_der">
    <path class="st9" d="M106.8,430c-.2,0-.4-.2-.5-.4-.1-.2-.4-.2-.6-.4-.2-.2-.4-.4-.6-.3-.3.2-.9.7-1.1,1.1,0,.2.3.3.5.3.2,0,.1.2.3.3.5.2.5.5.9.7.2.2.2.4.5.3.2.1.3.4.5.4.1,0,.2,0,.3.2.2.4.9.7,1.3,1,.1.1.3.1.5.2.4.2.6.4,1.1.4.5,0,.9,0,1.2.4,0,0,.1,0,.3-.2.2,0,.4,0,.5,0,.2,0,.3.1.6.1.2,0,.5.2.7.2.7.2,1.4,0,2.1-.3.1,0,.2-.1.3-.2,0,0,.2,0,.3,0,.3-.2.7-.1,1,0,.2-.1.4,0,.6-.2.3,0,.5,0,.8-.1.3,0,1.2,0,1.4,0,.4.2.3-.4.6-.5.7-.4,1,0,1.7-.4.3-.1.3-.3.5-.4.4-.2.7-.5,1-.8.6-.1,1.1-.7,1.5-1,.2,0,.5,0,.7-.2.6-.6.6-1.4,1.5-1.3.3-.2-.3-1-.5-1.2-.3-.3-.5-.2-.9-.2-.2,0-.4.6-.5.7,0,.1-.1.4-.2.5-.2.2-.9.2-1.1.4-.2.2-.4.5-.6.6-.1.1-.4,0-.5.2-.3.2-.6.8-1,.8-.2,0-.4.4-.5.3-.1,0-.2.1-.3.2-.2,0-.5,0-.6.1-.1,0-.3,0-.4,0-.5.4-1,.3-1.6.5-.2,0-.3,0-.5,0-.1,0-.3.1-.4.1-.3.2-.5,0-.8.2-.3-.1-.7,0-1.1,0-.6.1-.9.5-1.3.4-.2,0-.4.2-.8.1-.6-.1-.9-.3-1.5-.4-.6,0-1.4,0-1.9-.3-.2-.2-.2-.2-.4-.2-.1,0-.2-.2-.4-.4-.2-.1-.7-.1-.9-.3-.2-.1-.4-.3-.5-.5,0,0-.3-.1-.4-.2-.2-.3-.6,0-.7-.4h0Z"/>
    <path class="st9" d="M133.5,429.6c-.2-1.8,0-4-.4-5.8,0-1.8-.9-3.4-1.1-5.2-.5-4-1.1-8-2.2-11.8-.4-1.2,0-2.6-.1-3.8-.4-1.3-.6-2.8-1-4-.5-1-1.4-1.2-1.2-2,.1-.5.6-1.1.4-1.8,0-.2,0-.4,0-.5.3-.7.8-1.4.5-2.2-.3-.6-2-.8-2.4-.7-.4.1-.2.7-.3,1.1-.3.7-.8,1.3-.5,2.1.1.4.1.9,0,1.3-.1.8-.3,1.5-.9,2.2-1.5,1.6-4.1,1.6-6.1,1.9-4.2.3-8.3,0-12.4-1.1-.5-.1-.5-.4-.5-.8-.1-.4-.2-.8-.1-1.2,0-.2,0-.4,0-.7,0-.4-.3-.6-.4-1,0-.7.4-1.9-.5-2.4-.4-.2-2.5-.1-2.5.6,0,.3.3.7.2,1.1,0,.3-.1.5-.1.8,0,.7.7,1.4.7,2.1,0,.1,0,.3,0,.4.2.7-.1,1-.4,1.8-.2.5-.2,1.1-.3,1.7-.1,2-.8,4.1-1,6.2-.2,1.8,0,3.7-.4,5.5-.7,2.8-.8,5.5-1.8,8.3-.7,1.8,1.7,3.1,3.1,2.6,1.5-1.1,2.9-2.5,4.5-3.6,2.2-1.2,4.7-2.2,7.1-2.7,3.5,0,7-.2,10.3,1,2.3.9,5.5,1.5,6.6,3.9.5,2.1.8,4.1.7,6.2,0,1.7-1.1,3.1-1.7,4.6-.8,1.4-2.7,1.5-3.9,2.3-1.7.7-4.2,1.5-6.2,2-1.4.2-2.8,0-4.2.4-2.6.7-5.7.3-7.8-1.4-1.4-.9-3-1.3-4-2.7-1.3-2.6-2-5.7-2.1-8.7,0-.8-1.4-1.3-2.2-.9-.9.3-.7,1.7-.6,2.7.1,2.4.9,4.7,1.7,7,.9,2.1,2.9,3.8,5,4.8.9.3,1.4,1.2,2.2,1.5,2.1.3,4.1.9,6.2.8,1.8-.4,2.9-.4,4.7-.3,4.3-1.2,9.1-2.5,12.7-5.2,1.2-1.9,2.4-4.1,2.7-6.2v-.2ZM108.7,407c1.2-.9,2.7-.7,4.1-1.2.6-.2,1.3,0,1.8-.2.4-.1.8-.4,1.2-.4,1.2,0,2.4.2,3.6.3.9,0,1.7-.3,2.6,0,.4.1.8-.1,1.2,0,.5.2.2,1.8-.3,1.8-.7,0-1.4,0-2.1-.2-.5,0-1.1.2-1.6.2-.7-.1-.9,0-1.4,0-.6-.2-1.3-.4-1.9-.4-.5,0-1,.6-1.6.5-.8-.1-1.6.4-2.4.5-.5.1-1.2,0-1.6.2-.5.1-.9.7-1.4.5-.3-.2-.7-1.3-.3-1.6h0ZM123.5,412.4c-.1.3-.3.3-.5.3-.4-.1-1.1,0-1.6-.2-.6-.2-1.3,0-1.9.2-.3,0-.6-.1-.9,0-.2,0-.4.1-.6,0-.3,0-.7-.3-1.1-.3-.4,0-.9-.2-1.3,0-.3.1-.6.4-1,.4-.9,0-1.3.1-2.2.4-1,.2-2,.1-2.9.8-.3.1-.5.2-.7-.2,0-.3-.2-.6-.2-.9,0-.7.9-.9,1.4-1.2.5-.2,1.1-.2,1.6-.3.5,0,1.1-.2,1.7-.4.5-.1,1,0,1.5-.1.4-.1.9-.4,1.3-.4,1.2,0,2.3.2,3.5.3.9,0,1.8-.3,2.7,0,.3,0,.5,0,.8,0,.6,0,.6.9.4,1.4h0ZM127,398.4s0,0,0,0c0,0,0,0,0,0,0,0,0,0,0,0,0,0,0,0,0,0ZM127.2,398.4s0,0,0,0,0,0,0,0c0,0,0,0,0,0Z"/>
  </g>
  <g id="Zapato_iz">
    <path class="st9" d="M50.7,428.7c0,.1.3.2.4.4.2.1.2.4.3.5.1.1.3.3.4.4.1.2.3.2.5.3.1.1.4.4.6.5.2.4.5.7.9.9.3.2.5,0,.6.3,0,0,.2.2.2.2.1.2.3,0,.5.3.2.2.8.2,1.1.3.1,0,.6.1.9.1.5.2.9.3,1.4.5.5.2,1,0,1.5,0,.6-.2,1.6-.5,2.3-.2.2,0,.2-.1.6,0,.5,0,.8-.3,1.3-.1.6-.2,1.2,0,1.8-.5.1,0,.4,0,.5,0,.1,0,.4,0,.6-.1.2-.1.2-.2.5-.2.1,0,.3-.3.4-.3.1,0,.2,0,.3,0,.2-.2.5-.5.8-.8.6-.2.7-.2,1.1-.8.3-.3,1-.4,1.3-.6.1-.1.1-.4.2-.5.1-.2.3-.7.5-.8.3-.1.6-.1.7-.1.1,0,1.2.9.9,1.3,0,.1-.3,0-.4.1-.5.3-.7,1-1.2,1.5-.4.3-.7.2-1,.5-.3.2-.5.5-.9.8-.5.1-.5.1-.7.5-.1,0-.5.4-.8.5-.2.1-.2.2-.4.4-.4.2-.8.4-1.2.3-.4,0-1,.1-1,.6-.2.3-.4,0-.6,0-.1,0-.3,0-.5,0-.6,0-.9,0-1.4.2-.4,0-.7,0-1,0-.2,0-.4-.2-.6-.2-.2,0-.4.1-.6.1-.2-.1-.4,0-1,.2-.8.2-1.8.2-2.5-.2-.4,0-.5-.1-1-.3-.2,0-.4,0-.6.1-.4-.7-1.1-.3-1.8-.7-.2,0-.4-.3-.5-.3-.5-.2-.4-.2-.9-.6-.3-.2-.8-.6-1-.9,0-.2-.3-.2-.4-.3-.1-.1-.2-.3-.3-.4,0-.1-.2,0-.3-.1,0,0-.2-.2-.3-.4-.4-.3-.6-.7-1-1,0-.3-.6-.4-.7-.7,0-.3.5-.5.6-.6.4-.3.8-.4,1.1,0h0Z"/>
    <path class="st9" d="M78.3,428.8c-.8-5.2-.9-10.1-1.5-15.1-.3-1.6-.6-2.9-.8-4.5-.1-1.1.3-2.2.2-3.2-.7-3.4-1.2-7-.8-10.5.1-.5.6-1,.6-1.5,0-.3,0-.7,0-1.1.1-.7.5-1.6,0-2.2-.5-.5-1.6-.7-2.2-.5-.4.2-.3.8-.3,1.2,0,.8-.2,1.8-.5,2.4-.3.5-.4,1-.4,1.6-.2.9,0,1.7,0,2.7-.2.8-.3,1.8-1,2.3-1.3.6-2.7.8-4.1,1.1-4.5.4-9.3.3-13.6-1.5-.4-.5-.6-1.1-.5-1.7.3-1-.5-2.3-.7-3.4,0-.6.3-1.1.1-1.7-.2-.6-.2-1.3-.4-1.9-.4-.8-2.3-.6-2.8,0-.2.5.3,1.1.3,1.8.1,1-.2,1.7.1,2.6,0,.8.5,1.4.7,2.2.1,1.2,0,1.8-.5,3.2-.4,2.1-1,4.4-1.7,6.4-.5,1.6-.4,3.6-.8,5.2-.3,1.3-.9,2.5-1.2,3.8-.2,1.9-1.1,3.6-1.8,5.3-.2.6-.2,1.3.3,1.8.7.6,1.8,1.1,2.6.8,1.6-1,3.1-2.5,4.7-3.5,2-.9,4.4-1.7,6.5-2,3.1,0,6.4.5,9.3,1.4,2,1,3.6,1.8,5.5,3.2.6.4,1.1.9,1.2,1.6.1,2.2.5,4.5.2,6.7-.2,1.6-1.4,2.8-2.1,4.1-.5.9-1.6.9-2.5,1.2-2.1.7-4.3,1.3-6.7,1.8-1.2.3-2.5,0-3.7,0-1.5,0-3,.5-4.4.2-1.6-.3-3.3-1.1-4.5-2.3-1.4-.8-3.1-1.8-3.4-3.7-.5-2.3-1-4.6-.8-7,0-1-1.5-1.7-2.3-1.2-.8.7-.5,2-.5,2.9,0,2.2.6,4.2,1.1,6.4.8,2.3,2.7,4,4.7,5.2.8.6,1.2,1.4,2.2,1.5,1.8.4,3.5,1,5.3,1,1.7-.3,2.7,0,4.3.2,2.2-.1,4.4-.9,6.5-1.5,2.1-.6,4.4-1.2,6.2-2.4,1.4-1.9,3.2-3.8,3.2-6.2,0-.5,0-1.2,0-1.7.1-.7.6-1,.7-1.4h0ZM69.6,414c-.1.3-.3.3-.6.2-.4,0-1,0-1.5-.2-.6-.2-1.2,0-1.8,0-.4,0-.7-.1-1,0-.5.2-.9,0-1.4-.2-.6,0-1.1-.3-1.6,0-.3.1-.6.3-1,.3-.9-.1-1.3,0-2.2.3-1.1.2-2,0-2.9.7-.3.1-.5.2-.7-.2,0-.3-.2-.6-.2-.9,0-.7,1-.8,1.4-1.1.5-.2,1.1-.1,1.6-.2.5,0,1.1-.2,1.7-.3.5,0,1,0,1.5,0,.4-.1.9-.4,1.3-.3,1.2,0,2.3.3,3.4.5.9,0,1.7-.2,2.6.1.3,0,.6,0,.9,0,.7,0,.5.9.3,1.4h0ZM69.6,408.7c-.1.3-.3.3-.6.2-.4,0-1,0-1.5-.2-.6-.2-1.2,0-1.8,0-.4,0-.7-.1-1,0-.5.2-.9,0-1.4-.2-.6,0-1.1-.3-1.6,0-.3.1-.6.3-1,.3-.9-.1-1.3,0-2.2.3-1.1.2-2,0-2.9.7-.3.1-.5.2-.7-.2,0-.3-.2-.6-.2-.9,0-.7,1-.8,1.4-1.1.5-.2,1.1-.1,1.6-.2.5,0,1.1-.2,1.7-.3.5,0,1,0,1.5,0,.4-.1.9-.4,1.3-.3,1.2,0,2.3.3,3.4.5.9,0,1.7-.2,2.6.1.3,0,.6,0,.9,0,.7,0,.5.9.3,1.4h0ZM74.1,400s0,0-.1,0c0,0,0,0,0,0,0,0,0,0,0,0,.3,0,.1,0,.2,0,0,0,0,0,.1,0-.1,0-.2,0-.4.2Z"/>
  </g>
  <g id="Pantalon">
    <g>
      <path class="st9" d="M135.8,310.5c-1.1-11.1-1-22.5-2.6-33.6-.1-1.3-1.5-3.3-2.9-3.1-1.9.9-1.3,4.1-.9,5.6.2,4.2,1,8.4,1,12.7.6,4.9.5,10.3,1.6,15.1-.4,2.3-.3,4.9-.2,7.1.2,1.9-.2,3.9.4,5.8.2,1-.5,2-.3,3.1,0,.8.2,1.6.4,2.5-.8,4.3-.5,9.1-.4,13.6-.7,4.1.2,8.4-.7,12.5-.3,4.7-1.4,9.2-1.2,13.9-.3,1.2-.7,2.2-.3,3.4-.1,1.4-.2,3.1-.7,4.4,0,1.4,0,2.9-.2,4.3-.7,3.8-.7,7.5-.9,11.4.1,1.2-1.2.9-2.1,1.2-1.2.2-2.1.6-3.3.3-6.5.4-13.1.7-19.6-.2-.4-.1-.5-.5-.8-.7-1.9-5.5-1.3-11.7-3.2-17.3-.2-.8,0-1.6,0-2.4-.3-1-.9-2-.8-3,.4-4.3-1.2-8.8-1.7-13.2-.4-2.7-.9-6.1-1.3-8.8-.6-4.2-1.5-9.2-2.6-13.4,0-6.8-1.9-13.7-1.3-20.5,0-.8-.2-1.7,0-2.5,0-.4,0-.5-.2-.8-.4-.2-1.4,0-2.1-.1-1,0-2,0-2.3,0-1,.9-.7,3.1-.5,4.4-.2,3.3-.9,6.7-.7,10-.2,1.6-.8,2.9-.5,4.5-.2,1.2-.4,2.4-.2,3.6.1,2.4-.8,4.6-1.3,6.9,0,2.3-.2,4.6-.7,6.8-.3,1.2-.2,2.4-.3,3.6-.5,1.5-.8,3.1-1.3,4.6-.2,3.5-.6,7.2-1.5,10.6.2,1.1.2,2.3-.2,3.4-1.7,6.8-1.5,14.1-3.4,20.9-.2.9-.3,1-1.2.8-1.6.4-3.3.6-5,.6-2.9.4-18.5,1.8-19.1-1-1.2-3.6-2.6-7.2-3.2-11.1-1.4-3.3-2.1-7-2.4-10.7-.7-2.1-1-4-1.1-6.2-.2-1.3-.9-2.4-.7-3.8-.2-1.7-.7-3.4-.5-5.2-1-7.5-1.7-15.1-2.9-22.6-.6-6.8.1-13.5.3-20.3-.7-8.6,1.5-17.3,3.7-25.5.6-2,.4-3.9,0-6-2.1-2.1-3.9,1.6-4.1,3.6-.1.7-.6,1.1-.8,1.8-.3.9,0,1.9-.3,2.8-.9,3.4-1.2,6.9-1.8,10.4-.2.5-.1,1-.2,1.5-.1.4-.3.8-.4,1.3,0,1.9.1,3.9-.7,5.7.1.8.3,1.6.2,2.4,0,2.6.3,5.2-.5,7.8-.1.8.2,1.7.3,2.5-.7,2.5-.2,5.4-.2,8,.6,8.8,2.2,17.6,3,26.4.3,3.8,1,8.9,1.6,12.7.4,1.1.8,2.2.8,3.4-.3,1.4.8,2.4.9,3.8.4,3.1,1.2,6,2.3,9,.8,4.4,1.8,8.8,3.8,12.9,2.6.9,5.4,1.3,8.2,1.6,2-.2,3.9,0,5.8.4,4.3,0,8.7-1.2,13.1-1.6,1.6,0,3.5.1,4.9-.6.6-1.1,1-2.4,1-3.6,0-2.6.3-5.2,1.1-7.7-.1-1.3-.1-2.7.2-4,.7-8,2.6-15.8,2.9-23.8.2-1.5,1.1-2.8,1.2-4.3,0-1.3.5-2.4.7-3.7.6-1,1.4-15.6,1.8-11.7.4,2.4,1.1,4.8,1,7.2.2,1.1,1,2.2.8,3.4.6,2,.6,4.2,1.2,6.1-.1,1.4.4,2.6.8,3.9.1,4.4,1.4,8.7,2,13,.2,4.9,1,9.7,1.8,14.6.7,3.4,1.3,6.9,2,10.3.1.4.3,1.2.4,1.5.2.6.1,1.2.9,1.2,1.7.2,3.4.5,5.2.6,2.2.3,4.5,1,6.7.2,2.4.6,5-.1,7.5-.3,4.1-.1,7.9-.4,11.9-1.6.8-1.3.8-3.4.8-5,.4-2.2.4-4.4.6-6.6.4-4.7,1.5-9.4,1.1-14.1.8-1.9.7-4.1.6-6.1.7-2.5.4-5.1,1.2-7.6,0-.9-.3-1.7-.3-2.6,0-1.1.5-2.1.6-3.2.3-12.4,0-24.7.4-37.1v-.2Z"/>
      <path class="st9" d="M45.1,302.2c1.3-.3,2.2-1.2,3.2-1.9.2-.2.2-.7.3-.8.3-.2,1,0,1.3-.3.8-.4,1.2-1.5,1.3-2.3.2-.3.8-.4.9-.8.1-.4-.2-1.2,0-1.5.3-.5.6-.9,1.2-1.2.2-.1.5-.2.5-.5,0-.3-.2-.8-.2-1.2-.1-.5,0-.9.2-1.3.1-1,0-2.1-.4-2.8,0,0-.2,0-.3,0-.7.6-1.2,1.6-2,2.3-.4.5-.6,1-.9,1.5-.2.3-.8,0-1,.2-.1,0,0,.5-.3.7-.3.4-.6.6-.6,1.1,0,.1,0,.3,0,.5-.1.2-.7,0-.7.3,0,.5.2,1.8,0,2.2-.3.8-.9,1.1-1.5,1.5-.1.2,0,.6,0,.9,0,.3-.3.5-.4.8-.1.4-.1.9-.3,1.3-.1.4-.6,1.1-.3,1.4h0Z"/>
      <path class="st9" d="M117,293.6c.6.6.2,1.6.9,2.1.1.1,0,.2.2.2,0,0,.2.1.3.2.1.2-.2.6-.2.8,0,.2.1.3.4.4.5.4.9.7,1.6.9.7.5,1,1.5,1.2,2.3.2.5.8.4,1.2.7.5.6,1.2.8,1.9,1.2.4.2,1.3,1.1,1.6.6,0-1.1-.9-2.4-1.2-3.4-.1-.4-.6-.4-.8-.7-.1-.2.1-.7.2-1,0-.6-.2-1-.5-1.5-.2-.3-.6-.6-.9-.9-.2-.2-.1-.6-.1-.8,0-.6-.7-.6-1.1-.9-.4-.3-.3-.6-.4-1,0-.3,0-.6.1-1,0-.2,0-.4,0-.5-.4-.5-1.3-.8-1.4-1.6,0-.2-.2-.5-.3-.7-2.5-3.6-1.9-1.3-2.4,1.3-.1.6.2,1.7.4,2.3.1.3-.8.7-.6.9h0Z"/>
    </g>
  </g>
  <g id="Hoodie">
    <path class="st9" d="M57,258.9c.7,0,1.4-.2,1.8-.7,1.2-1.3,2.4-2.7,3.4-4.2.9-1.2,2.3-2.1,2.9-3.5.2-.2.6-.3.8-.6.2-.3.3-.8.7-1.2.5-.4.4-1.1.7-1.5,1.2-.9,2-1.9,3-3.1.4-.6,1-.9,1.6-1.1.4-.4.4-.7,1-.8,1-.5,2.1-.6,3.2-.6,1.1-.2,1.9-.4,3,0,1.2-.6,2.7-.1,4,0,2.7-.2,5.6.8,8.2,0,.5-.2,1,0,1.5.2.3,0,.5-.2.8-.2.3,0,.6,0,.9,0,.9-.2,1.7-.4,2.6-.2,1.3.4,2.8.2,4.2.1,1.1.3,2,0,3.1.5,2.7,1,4,2.9,5.3,5.3.2.3.3.8.3,1.1,2.1,2.4,3.7,5.7,5.5,8.5.4.8,1.2,1.1,1.8,1.6-.4.2-1.4.3-1.9.3-1,0-2,.3-3,0-.4,0-.8,0-1.1,0-.6,0-1.3-.2-1.8-.1-.8.1-1.5.6-2.4.6-.7,0-1.4,0-2,.3-.9-.3-1.8,0-2.7.3-1.4.2-2.9,0-4.4.2-.8-.2-1.1-.4-2-.3-.6-.2-1.1,0-1.8,0,0,0-.2,0-.2,0,0,0,0-.3,0-.4,0,0,.2,0,.2-.1,0-.2,0-.5.2-.8.2-.4.4-.8.6-1.2,1.1-.7.4-2.4,1.1-3.4,0-.2-.6-.6-.7-.9,0-.2-.2-.3-.3-.4-.1-.1,0-.2,0-.4,0-.1-.4-.2-.6-.3-.6-.3-1.9.6-2.3.9-.3.2-.1.4-.1.7,0,.2,0,.3,0,.3,0,0,0,.1,0,.2.1,0,.3.1.4.2,0,0-.1.2-.2.2,0,.2-.2.3-.2.4,0,0,.1.2,0,.3,0,.4,0,.5.1.6-.3.3-1.1.3-.7.9-.3.1,0,.3,0,.4,0,.1-.3.1-.4.3-.3.3-.4.6-.6,1,0,.2-.3,0-.4,0,0,0,0,.2-.2.3-.2.1-.5.2-.6.4-.1.1,0,.6-.2.6-.5,0-1.1-.4-1.5-.4-.4,0-.7.4-1.2.3-.4,0-.8.3-1.2.3-.4,0-.7-.1-1.1-.1-.3,0-.7.2-.9.2-.3,0-.4-.2-.6-.3-.7-.2-1.5.4-2.2.5-.8.4-.8,1.1-.6,1.9.5,1.5,2.4,1,3.7,1.1.6.1,1.3.4,1.9.2.2,0,.4.2.6.2.1,0,.3,0,.5-.1.5,0,.6-.3,1.1-.4.8.4,1.6.4,2.6.4.3,0,.6.3.8.3.8-.4,1.8-.2,2.6-.2.3,0,.6-.2.9-.2.2,0,.5,0,.7.1.2,0,.3-.2.5-.2.5,0,1,0,1.5.3.6,0,1.3,0,1.9.2.6.1,1.3,0,1.8,0,.2,0,.4-.3.7-.3.2,0,.4.2.5.2.1,0,.3-.2.5-.2.4,0,.7-.3,1.1-.3.7,0,1.4.5,2.2.2.4-.1.8,0,1.2,0,.3,0,.6-.2.9-.2,1.4,0,2.7-.6,4.2-.7.3-.1.7,0,1,0,.2,0,.3-.2.5-.3,1.3-.2,3-.4,4.4-.6.2,0,.4-.2.6-.3.5-.6.8-1.1.5-1.9-.1-.3-.2-.6-.4-.7-.1-.1-.4,0-.4-.2,0-.2.7-.9.6-1.3-1.3-4-4.5-7.1-6-11.1-.2-.5-.5-.9-.8-1.3-.8-1.1-1.1-2.3-1.8-3.3-1.6-2.3-4.4-3-7-3.5-1.4-.2-2.8-.3-4.2,0-1.6-.5-3.4,0-5,0-2.6.2-5.2,0-7.7,0-1.8.2-3.5-.5-5.3-.3-.5,0-1,0-1.5-.1-.4,0-.7.1-1,.1-2.6,0-5.3,0-7.7,1.2-2.4,1-3.6,3.4-5.6,5.1-.7.5-1.1,1.1-1.3,1.9-.3.5-.7.9-1,1.5-.8,1.9-2.7,3-3.4,4.9-.1.2-.3.2-.5.3-1.3,1.1-1.8,2.7-2.7,4.2-.4.7-.5,1.7.4,1.9h.2Z"/>
    <path class="st9" d="M139.3,240.7c-1.3-6.9-4.1-7.5-3.1.2.5,5.4.3,11.1-2.3,15.9-.3.4-1.3-.2-1.7,0-.3,0-.5.4-.9.5-.4.2-.6.1-.9.2-.6.5-1.7.6-2.4.3-.6,0-1.6.2-2.2.2-.2,0-.4-.2-.5-.2-.2,0-.4.4-.7.5-.3,0-.7.4-.9.3,0,0-.2,0-.3,0-.6.6-.6,1.3-.5,2.2.1.6.1.6.2.8,0,.2.2.4.4.4.4,0,1,0,1.3,0,.1,0,.2,0,.3,0,.1,0,.2-.4.4-.4.1,0,.3.1.4.2.1,0,.3,0,.4,0,.3.2.4,0,.7-.1.6,0,.9-.2,1.2-.4.4.1.9.4,1.4.4.3-.2.5-.3.6-.3.2,0,.2-.3.4-.3.2,0,.4,0,.7,0,.8,0,1.4-.6,2.1-.7.2,0,.3,0,.4,0,0,0,.1-.1.2,0,.1.2.4.8.5,1.1.3.8,0,1.8.2,2.6.5,1.3,0,2.7.3,3.8.1.5.2,1.1,0,1.6-4.2.5-8.4,2.3-12.6,2.4-4,1.2-8.2,1.9-12.3,2.3-2.3.4-4.5,1.2-6.8.9-.6.1-1.1.5-1.8.5-6.4.4-12.8.3-19.2.3-2.6,0-4.9,0-7.4.3-.8,0-1.6-.3-2.3-.4-1.8.5-3.8-.1-5.7.2-4.2-.2-8.2-1.3-12.4-1.4-4.2-.8-8.4-1-12.6-2-3.1-.5-6.2-.9-9.3-1.7-.3,0-.4-.2-.5-.3-.3-1.3-.3-3,.3-4.3.7-.9.5-1.4.9-2.3.2-.2.7.4,1,.3.3,0,.9-.4,1.2-.3.4,0,.8-.4,1.2-.3.3,0,.6.3.8.3.2,0,.5,0,.9-.1.3,0,.7,0,.9.1.2,0,.2,0,.3-.2.1-.2.3-.4.5-.5,0,0,.3-.2.3-.1.3.1.4-.3.5-.6.1-.8-.1-2-.5-2.7-.2-.2-.8,0-1-.2-.3,0-.3.3-.5.4,0,0-.2-.1-.4-.2-.1,0-.1,0-.3-.2,0,0-.2.2-.5.3-.1,0-.3,0-.3.1,0,0-.2.1-.2.1-.2,0-.8-.7-1.1-.4-.1.1-.2,0-.3,0-.1,0-.1.2-.2.2-.2,0-.5-.2-.8-.1-.3,0-.6.2-.9.3-.2,0-.3-.1-.4,0,0,0-.2.1-.4-.1-.3-.6-.6-1.5-.8-2.2-1.6-4.9-2.3-10.1-2.1-15.3,0-1.9-.3-3.8-.4-5.7,0-.3-.2-.5-.5-.5-.4,0-1.1.6-1.4,1.2-.2.5-.2.9-.3,1.4-.3,1.7-.7,3.3-.6,5.1.1,5.5.8,11.1,2.8,16.2,0,.6.7,1.3.4,1.8-1.2,1.8-2,3.9-2,6,0,1.8.2,3.6.8,5.2,3.6,1.4,7.7,2.4,11.7,2.9,5.8.4,11.7,2.2,17.4,2.1.8.1,1.6.6,2.5.5,8.8.5,17.6.7,26.5.5,3.9-.3,7.7.2,11.6-.3,6-.4,11.8-1.3,17.7-2.2,4.9-.7,9.8-1.9,14.7-3,1.8-.4,3.5-.7,5.4-1.1.5-.2,1.3-.1,1.6-.6,1.2-3,.9-6.6.4-9.8-.3-1.5-1-2.9-1.3-4.3,0-.2,0-.3.1-.4,1-2.2,1.8-4.7,1.8-7.4,1.2-3.1.8-6.5,0-9.7v-.2Z"/>
    <path class="st9" d="M45.5,263.1c1.2.5,2.9.3,4.2.3,1.5.3,3,.2,4.5,0,.8,0,1.7.4,2.7.4.9,0,1.7-.3,2.6-.3,1,0,2.2,0,3.3-.2,1.9-.4,3.5,0,5.3-.7,1.1-.5,1-2.6-.2-3-.9-.3-2-.1-2.9-.3-2.6-.6-5.2.5-7.8.5-1.9-.2-4-.4-6.1-.5-1.8-.3-3.4.1-5.2.4-1.4.4-1.6,2.7-.6,3.3h.1Z"/>
    <path class="st9" d="M72.2,261.3c1,0,2.8-.7,2.5-2-.3-.7-.6-1.2-.6-2,0-.4-.3-.7-.3-1.1,0-.3.2-.8.2-1.1,0-.4-.2-.6-.1-.9.1-.6.2-1.5.3-2.2,0-.4.3-.9.3-1.3,0-.8-1.1-1.3-1.8-1.5-.8-.1-1.1.6-1.5,1.2-1.2,1.3-.8,2.9-.7,4.5-.3,1.5-.2,2.9.1,4.4.2.5.8.9,1,1.3.2.3.4.5.6.6h.1Z"/>
    <path class="st9" d="M79.4,259.9c1,.3,1.6-.2,1.8-1.2.4-1.1-.3-2.3-1.3-2.6-.5-.3,0-1-.2-1.4-.2-.5-.3-.8-.6-1.2-.5-.5-1.4-1.2-2.1-1.2-.6,0-1,.9-.9,1.4,0,.4-.3.9-.3,1.3.1.8.5,1.1.4,1.9,0,.2,0,.5.2.7.3.4.7.5,1,.9.4.7,1.3.9,2,1.2h.1Z"/>
    <path class="st9" d="M67.9,142c-.4,0-.7,0-1.1,0-.6,0-1.2.3-1.8.1-.3,0-.5.1-.6.2-.1,0-.2,0-.4.2-.6.1-1.1-.4-1.6,0-.3,0-.6.2-.7.3-.2.1-.6,0-.9,0-.1,0-.2.2-.2.3-.2.2-.6.2-.9.3-.6.2-.6,0-1.1-.6-.2-.4-.4-.9-.3-1.3,0-.3.2-.5.4-.5.3,0,.7-.4.9-.7.3-.4.7-.2,1.3-.4.3,0,.7-.2,1-.3.6-.2,1,0,1.7,0,.4,0,.8-.2,1.1-.3.6,0,1.4-.3,2-.3.6.1,1.2.6,1.8.6.2,0,.4.1.5.2.4.5,0,2.5-1,2.2h-.1Z"/>
    <path class="st9" d="M108.6,141.3c-.1,0-.3,0-.4,0,0,0-.2-.1-.4-.1-.3,0-.5.2-.8.1-.2,0-.4-.2-.6-.2,0,0-.2.1-.2.2-.1,0-.2,0-.3,0-.3.2-.7-.3-.9-.3-.1,0-.2.1-.5.2-.3,0-.4.2-.5.2,0,0-.2,0-.3,0,0,0-.2-.2-.3-.1-.1,0-.1.5-.3.4-.4,0-1,.3-1.1-.4-.3-.8-.6-1.7,0-2.3.3.1.5-.2.7-.3.2-.1.2-.4.4-.4.5.3,1.3,0,1.9,0,.4.2,1.2.4,1.7.1.2,0,.2,0,.3,0,.2,0,.4,0,.6,0,.2,0,.3-.1.4-.1.2,0,.5.3.8.5.3.3.8.2,1,.5.2.3-.1,1.2-.2,1.6-.2.4-.3.8-.8.6h-.1Z"/>
    <g id="Collar_hoodie">
      <path class="st9" d="M97.8,134.6c-.6,0-1.3.4-1.9.7-.6.2-1.3-.2-1.9.1-.7.4-1.5,0-2.1.3-.6.2-1.1.4-1.8.3-.6,0-1.1.3-1.6.1-1.3-.4-2.9-.4-4.3-.4-.8.2-1.4,0-2.2-.2-1.5-.2-2.3-.5-3.5-.6-1.3,0-2.2-.1-3.5-.2-.2,0-.5,0-.7,0-.7-.3-.8.3-.9.9-.3,1.1-.3,2.5,0,3.7,0,1.1.2,2.7.8,3.7.3.3,1,.5,1.3.7,1.3.2,2.9.5,4.3.4.4,0,.7.4,1.2.4.8,0,1.7.2,2.5.3.9,0,1.6,0,2.5-.1.8,0,1.5.2,2.3.2,1.2.2,2.4,0,3.6-.2,1.3,0,2.5-.5,3.7-1,.6-.3,1.4.1,1.7-.3.2-.2,0-.6.1-1,.1-.5.3-1.1.3-1.6.2-1.4-.5-2.5-.8-3.8-.3-1.1,0-2.2.6-3.1.3-.5,1.3-.5,1.9-.5.7,0,1.3.6,1.1,1.3-.1.4-.4.8-.3,1.2,0,1.6.7,3.1.9,4.7,0,.9-.4,1.7-.3,2.7,0,.5,0,.9,0,1.4,0,.4.2,1-.1,1.3-1.1.5-2.5,1-3.8.8-.8,0-1.2.7-2.1.7-.7.1-1.4.4-2.1.4-.6.1-1,.5-1.8.4-.6,0-1.1.1-1.7.1-.8-.1-1.6-.4-2.3-.4-.7,0-1.6-.1-2.1.5-.2.2-.4.3-.7.3-1-.2-2-1-3.1-1-.5,0-1-.4-1.6-.3-1.6.2-2.8-.5-4.4-.6-.5,0-.8-.4-1.2-.6-.8-.4-1.8-.4-2.6-.6-.4-.4,0-1.4,0-2,0-.3-.3-.7-.3-1,0-.3,0-.6,0-.9-.7-2.3-.9-4.9-.5-7.4,0-.8,0-1.6.2-2.3.1-1.2-.8-2,1-1.3,1.2.4,3,.9,4.2.4.3,0,.6.3.9.4.4.1.7.3,1,.4,1.2,0,2.5-.2,3.8,0,.8.2,1.6.3,2.4.3,1.1.3,2.4.3,3.6.3.4,0,.7.2,1,.4.6.2,1.2-.3,1.8-.2.7.1,1.1.1,1.7-.3.3-.1.7,0,1.1,0,.8-.2,1.3-.3,2.2-.3.6,0,1.2-.4,1.8-.5.6,0,1.3-.9,2-.6.4.2.5.9.7,1.4.1.5.2,1.2,0,1.5-.2.5-1,.6-1.4.7h-.1Z"/>
    </g>
  </g>
  <g id="Cabeza">
    <path class="st9" d="M37.5,95.3c.5,1.2.8,3.1,1.8,3.9.1.2,0,.6.1.8.2.5.5,1,.8,1.5.7,1.5,2,2.5,3,4,.4.8,1.2,1.2,1.7,1.8.7,1.2,2.1,1.8,2.8,3.1.2.3.4.5.6.7.5.4,1.3.5,1.7,1,.3.1.6,0,.7.3.1.2.2.4.4.6,2.3.5,3.6,2.1,5.5,3,.7.2,1.1.8,1.8,1.1.7.3,1,.7,1.8.5.2,0,.4.4.7.5.6.3,1.4.1,2,.5,1,.5,2.3,1,3.4,1,.7-.3,1,.5,1.6.6,1.3.3,2.8.6,3.9,1.3.5.1,1.1-.4,1.6-.1.8,0,1.8-.2,2.6.3,1.1.4,1.8-.6,1.6,1.4,0,1.2-.2,2.4-.3,3.6.1,1.6.2,3.5-.1,5.1-.3,1-2,1.9-2.5.6-.3-.7-.3-1.5-.6-2.3-.3-.9-.3-1.9,0-2.8-.3-.7-.4-1.2-.3-1.8,0-.2,0-.3,0-.4-.1,0-.4.1-.6.2-.2,0-.5,0-.8,0-.4,0-.8.2-1.1.1-1.1-.4-2.3-1-3.5-1.2-4.1-.9-8-2.6-11.8-4.2-1.2-1-2.7-1.7-4.1-2.4-1.8-1.1-3.5-2.3-5.5-3.4-.9-.5-1.9-1.2-2.4-2.2-1.7-.8-2.7-2.7-4.1-4.1-1.9-1.4-2.5-3.6-3.6-5.6-.6-.9-.6-2-1-3-.9-2-1.4-4.2-2-6.3-.2-.7,0-1.4,0-2.1,0-.6.7-.9,1.2-1.1.5-.1.6.1,1,.5,1.4,1.2,1.1,3.2,1.8,4.9h0Z"/>
    <path class="st9" d="M94,124.5c0,0,0-.8,0-1.4,0-.5,0-.7.2-.7l2.1-.4c1-.3,2.6-.4,3.4-1.2.4-.3.8,0,1.3-.2,3.8-1.3,7.4-3.6,10.3-6.2,2-1.2,3.3-2.9,5.4-4.5.6-.7.8-1.6,1.5-2.3.2-.2.1-.6.3-.8.3-.2.7-.4.9-.7.9-2.9,3-5,4-7.4.3-.9,1-1.6,1.4-2.5.2-.6.5-1.1.6-1.7,0-.3-.1-.5,0-.8,1-1.2.5-2.9,1.1-4.3.2-.9.3-1.7.5-2.6.2-.6.8-.5,1.3-.8.5-.2,1-.3,1.4-.6.2-.2.3-.4.5-.5,1.9-.3,2.9-2.1,4.1-3.4.2-.2.4-.4.5-.7.2-.4,0-.9,0-1.2,0-.3.2-.6.1-.9,0-.2-.1-.4-.1-.7,0-.3.2-.6.2-.8,0-.3-.3-.7-.3-1-.2-.8-.3-1.6-.7-2.3-1-1.3-2.5-2.4-4-3.2-.6-.3-1.1-.7-1.4-1.4-.9-2.7,3.4-1.1,4.6-.7,1,.3,1.8,1,2.4,1.8.2.2.2.6.4.8,1.5,1,2.2,2.8,2.5,4.5.3,1.4.8,3,.4,4.5-.1.6,0,1.2-.1,1.8-.8,1.9-2.4,3.4-3.8,4.8-1.2,1.1-2.6,2.1-4.1,2.6-.2,0-.3.1-.4.3-.4,1.9-1.1,3.9-1.4,5.8,0,.3-.3.5-.4.8-.5,1.6-1.1,3-2.1,4.4-2.3,4.7-5.3,9.5-8.7,13.3-.3.3-.8.3-1,.6-1.3,2.1-3.7,3.3-5.7,4.8-.8.6-1.5,1.4-2.5,1.8-2,1.1-4.3,1.6-6.5,2.6-1.5.3-3.3.5-4.8,1.1-.4,1.8.2,3.9-.2,5.8-.2.5,0,1.2-.3,1.6-.4.4-1.3,1-1.7.4-.5-1-1.1-2.1-1-3.3,0-1.2,0-4,0-5h0Z"/>
    <path class="st8" d="M34.2,89.3c-13.5-1.9-13.1-19.6,0-20.9"/>
    <path class="st8" d="M35.1,68.4c-.3-33.3,44.2-45.9,70.1-32,11.6,5.7,20.6,20,22,32"/>
  </g>
  <g id="Ojo_der_1">
    <path class="st9" d="M51.7,90.5c.3.3,0,1.1-.6,1-.8-.3-1.9-.5-2.6-1-.3-.2-.5-.1-.8-.4-.3-.2-.5-.6-.9-.8-.5-.3-.8-.6-1-1-.3-.3-.6-.6-.8-1.1-.2-.9.9-1.1,1.4-.3.8.6,1.3,1.4,2.1,2,.6.4,1.2.5,1.8.8.4.2.8.5,1.2.7h.1ZM55.7,91.2c0,0-.2-.2-.3-.3,0-.1-.3,0-.3,0h-.2c-.2,0-.3-.2-.4-.2-.2,0-.4-.2-.4-.2-.2.2-.2.2-.4.3-.1.2-.5,1.2,0,1.4,0,0,0,0,.2,0,0,0,.2.2.3,0,.1,0,.2,0,.3.1h.2c0,0,.1,0,.2,0,0,0,.1.1.2.1.3,0,.3,0,.6,0,.2-.1.3-1,.2-1.1h0Z"/>
    <path class="st9" d="M44,73.7c-1.3.4-2.4.2-3.5.8-1.4.9-1.2,2.7-.5,3.9.5.9.6,1.7,1.4,2.5.5.5.9,1.3,1.7,1.2.8,0,1.2-1.2.7-1.8-.4-.6-1.2-1.3-.7-1.6.4-.3,1.1-.2,1.6-.3,1.1-.4,2.4-.5,3.6-.1,1,0,2,0,1.9,1.4-.4,10.7,16.3,14.7,17.9,2.7,0-1.8,1-1.6,2.7-1.4,1.2.2,2.6.6,3.3-.3.5-.7.9-1.7.4-2.5h0c-1-1.2-3.6-.9-4.8-2-1.3-1.5-4.3-1.1-6.2-1.6"/>
    <path id="_x31_" class="st0" d="M54.4,80.1c-.2-.8-1.6-1-2.2-.7-.8.4-.7,2.1,0,2.6,1.2.8,2.7-.5,2.3-1.8h0Z"/>
    <path class="st9" d="M41.1,73.1c9.4-1.2,18.7.6,27.9,2.1.9,0,1.1-.6.3-.9-5.4-1.6-11.1-2.2-16.6-2.8-3.3-.6-10-.1-12.3.8-.6.3-.4.7.5.8h.2Z"/>
  </g>
  <g id="Ojo_der_2" class="st10">
    <path class="st9" d="M51.7,90.5c.3.3,0,1.1-.6,1-.8-.3-1.9-.5-2.6-1-.3-.2-.5-.1-.8-.4-.3-.2-.5-.6-.9-.8-.5-.3-.8-.6-1-1-.3-.3-.6-.6-.8-1.1-.2-.9.9-1.1,1.4-.3.8.6,1.3,1.4,2.1,2,.6.4,1.2.5,1.8.8.4.2.8.5,1.2.7h.1ZM55.7,91.2c0,0-.2-.2-.3-.3,0-.1-.3,0-.3,0h-.2c-.2,0-.3-.2-.4-.2-.2,0-.4-.2-.4-.2-.2.2-.2.2-.4.3-.1.2-.5,1.2,0,1.4,0,0,0,0,.2,0,0,0,.2.2.3,0,.1,0,.2,0,.3.1h.2c0,0,.1,0,.2,0,0,0,.1.1.2.1.3,0,.3,0,.6,0,.2-.1.3-1,.2-1.1h0Z"/>
    <path class="st9" d="M74.9,80c-1.4-1.2-3.6-.9-5.3-1.8-1.8-1-3.9-.9-5.8-1-1.9-.4-3.8-.1-5.8-.4-2.3-.6-4-1.4-6.5-1.4-1.6,0-3.2-.3-4.8-.5-1.1.1-2.3.8-3.4.9-.8.1-1.8.1-2.8.4-2.6.9.4,4.5,1.6,5.5.5.5,1.4.6,1.8-.1.2-.3.4-.7.6-.9,1.1-.4,2.3-.8,3.6-.5,1,.2,1.9,0,2.1,1.4.4,3.7,3.4,6.5,6.8,7.7,3.4,1.4,7.8.4,9.9-2.7.9-1,.7-2.8,1.4-3.7.4-.3,1.3,0,2.2,0,1.4,0,3.2,1,4.1-.2.5-.7.9-1.8.4-2.6h0Z"/>
    <path class="st9" d="M40.5,74.2c9.4-.9,18.6,1.3,27.8,3,.9,0,1.2-.5.3-.9-5.3-1.8-11-2.5-16.5-3.3-3.3-.7-10-.5-12.3.4-.6.2-.4.7.4.8h.2Z"/>
    <path id="_x32_" class="st0" d="M54.5,81.7c-.5-.9-1.7-1-2.6-.7-.2.1-.2.3-.3.5-.1.4-.1.9.3,1.2.4.4,1.3.4,1.8.2.6,0,1-.5.9-1h0Z"/>
  </g>
  <g id="Ojo_der_3" class="st10">
    <path class="st9" d="M51.7,90.5c.2.2,0,.8-.3,1-.6.1-1.1-.3-1.7-.5-.4-.1-.9-.3-1.1-.5-.6-.2-1-.3-1.4-.8-.5-.2-1.1-.6-1.6-.9-.8-.3-1.6-1.2-.4-1.7,1.1.1,2.1,1,3.1,1.7.7.5,1.4.6,2.1.9.4.2.8.6,1.2.7h.1ZM55.4,92.5c0,0-.1,0-.2,0,0,0-.2,0-.3,0,0,0-.2-.1-.2-.1,0,0,0,.1-.1,0-.1,0-.3-.3-.4-.2,0,0-.2.1-.2,0v-.2c-.3,0-.3.1-.4,0-.3-.3,0-1,.1-1.3,0-.1.2,0,.3-.1,0,0,.2-.3.2-.1,0,.1.3.2.4.2,0,0,.2.2.3.2.2,0,.5-.1.6,0,0,.2.3.2.3.4,0,.3,0,.9-.3,1.1h0Z"/>
    <path class="st9" d="M75.6,81.9c-1.4-1.2-3.6-.9-5.3-1.8-1.8-1-3.9-.9-5.8-1-1.9-.3-3.7-.1-5.6-.4-1.1-.1-2.2-.6-3.2-1-2.1-.6-4.9-.3-7.2-.8-.7-.2-1.5-.2-2.2.2-1.5.8-3.1.5-4.7,1.1-1.7.9-1.2,3.8.6,4.2.9.2,1.9-.1,2.9,0,.5,0,1,0,1.5-.2.8-.3,2.2-.3,3.1.3,1.1.9,1.5,2.4,2.4,3.5,1.6,2.2,4.6,3.4,7.3,3.8,3.1.3,6.5-1.1,7.8-4,.3-.6.5-1.7,1-1.7s2.3.7,3.6.8c1.2.2,2.4.7,3.2-.2.6-.7,1-1.9.6-2.7h0Z"/>
    <path id="_x33_" class="st0" d="M54.5,83.7c-.4-.8-3.7-1.4-2.6.3.3.3.9.5,1.4.4.5,0,1.2,0,1.2-.6h0Z"/>
    <path class="st9" d="M42.2,75.4c8.5-.8,16.9,1.2,25.4,3,2.9.3,1.8-.9-.6-1.5-5.3-1.4-12.1-2.6-17.2-3.1-3.1-.2-6.1-.3-9.1.4-1.9.7-.5,1.4,1.3,1.1h.2Z"/>
  </g>
  <g id="Ojo_der_4" class="st10">
    <path class="st9" d="M51.7,90.5c.2.2,0,.8-.3,1-.6.1-1.1-.3-1.7-.5-.4-.1-.9-.3-1.1-.5-.6-.2-1-.3-1.4-.8-.5-.2-1.1-.6-1.6-.9-.8-.3-1.6-1.2-.4-1.7,1.1.1,2.1,1,3.1,1.7.7.5,1.4.6,2.1.9.4.2.8.6,1.2.7h.1ZM55.7,91.2c0,0-.2-.2-.3-.3,0-.1-.3,0-.3,0h-.2c-.2,0-.3-.2-.4-.2-.2,0-.4-.2-.4-.2-.2.2-.2.2-.4.3-.1.2-.5,1.2,0,1.4,0,0,0,0,.2,0,0,0,.2.2.3,0,.1,0,.2,0,.3.1h.2c0,0,.1,0,.2,0,0,0,.1.1.2.1.3,0,.3,0,.6,0,.2-.1.3-1,.2-1.1h0Z"/>
    <path class="st9" d="M75.2,82.1c-.9-.5-2.1-.2-3.1-.2-1.6.1-3.1-.4-4.7-.5-2.3.3-4.4.3-6.7.4-1.4.2-2.9,0-4.3-.3-2.8-.6-6.1-1-8.7-2.3-.5-.1-.9,0-1.4-.1-1.3,0-2.5-1-3.8-1.1-2.6.3-2.6,2.9-.7,4.2.6.5,1.5.9,2.2,1.3.7.4,1.5.3,2.3.5.6.2,1.2.6,1.8.9,1.1.6,2.6.4,3.6,1.4,1.6,1.7,3.9,2.6,6.1,3.3,2.4.4,5,.5,7.2-.8,1.3-.7,2-2.5,3.6-2.5,1.2,0,2.1,0,3.3-.2.8,0,1.6,0,2.4-.3,1.4-.4,1.6-2.8.7-3.5h-.1Z"/>
    <path class="st9" d="M42.1,77.2c8.7,1.4,17.5,3.7,26.4,2.6,3.1-1.2-2.2-1.1-3-1.1-2.3-.1-4.7-.3-7-.4-5.2-.2-10.3-1.9-15.3-2.4-1,0-2.7-.6-3.4,0-.5.6,1.4,1.1,2.1,1.2h.2Z"/>
  </g>
  <g id="Ojo_der_5" class="st10">
    <path class="st9" d="M76.9,85.3c-.9-2.5-3.2-.9-4.8-.3-1.4.6-3,.5-4.4.8-1.3.4-2.7,1-4.1,1.1-1.5,0-3.6.6-5.3.4-1.5-.2-2.9-1-4.3-1.3-1.7-.5-4-1.1-5.4-2.4-1.1-.9-2.6-.8-3.8-1.6-.7-.5-1.4-1.1-2.3-1.4-1.5-.6-3.5,1.2-2.8,2.7,1,1.5,2.9,2.7,4.1,3.8,1.7,2,3.6,3,6.2,4,.9.4,1.7-.3,2.6-.4,1.7,0,.6.8,1.2,1.5.6.2,1,.4,1.7,0,.2,0,.5-.2.7-.2.6,0,1.2.2,1.7.2,1.7,0,2.5-.2,4.1-.4,1.3,0,2.7.2,4-.2,2.8-.9,5.7-1.8,8.4-3.1,1.3-.5,3-1.3,2.6-3v-.2Z"/>
    <path class="st9" d="M41.1,77.8c8.2,4.7,18.3,7.4,27.6,4.7,1-.5.7-1.1-.4-1-7.2,1.2-14.7.6-21.4-2.6-.7-.1-7.8-3.7-5.9-1.3h.1Z"/>
  </g>
  <g id="Ojo_iz_1">
    <path class="st9" d="M120.5,86.8c0,.3-.4,1.3-.6,1.6-.6.6-1.3,1.3-2.2,1.7-.9.8-2.1,1.4-3.4,1.4-.6-.2-.5-1,0-1.2,1-.4,2-1,2.9-1.6.8-.2.9-.8,1.5-1.2.2-.3.3-.8.7-1,.3-.2.7,0,.9.2h0ZM112.1,91c0-.3-.3-.5-.5-.3,0,0-.2,0-.3,0,0,0-.2.2-.3.2-.2,0-.3-.1-.5,0,0,0-.2,0-.3,0-.7.1-.5.9-.3,1.3.4.4.7,0,1.1,0,.2,0,.4,0,.6,0,.2,0,.2,0,.3-.2.2-.1.2-.6.1-.9v-.2Z"/>
    <path class="st9" d="M98.1,76.1c-2,.4-4.3.6-6.2,1.3-1,.6-1.2,2.1-.5,3,1,1.5,3.8-.2,5.4.7.5.4.6,1.2.7,1.9.9,8.3,13.6,8.5,16.8,1.3.6-1.3.9-2.9.9-4.3,0-.6,0-1.2.3-1.5.6-.6,2.2-.4,3.2-.2,1.3.3,3-.7,4.3-.4.2,0,.3.2.2.3-.5.8-.9,1.4-1.3,2.3-.2.6.2,1.5.9,1.5,1.5,0,1.8-1.7,2.5-2.7.5-.7.7-1.3,1-2.1h0c1.1-2.8-.4-3.7-3-3.9-1.1,0-2-.3-1.5-.4"/>
    <path id="_x31_1" data-name="_x31_" class="st0" d="M101.9,81.1c0-.2,0-.6-.1-.9,0-.4,0-.2,0-.5,0-.2-.3-.3-.6-.3-1.5-.6-2.7.8-1.8,2.2.7,1,2.4,1,2.5-.4h0Z"/>
    <path class="st9" d="M122.6,72.6c-9.4-.7-18.6,1.7-27.8,3.6-.9,0-1.2-.5-.4-.9,5.3-1.9,11-2.8,16.4-3.7,3.3-.7,10-.7,12.3.1.6.2.4.7-.4.9h-.2Z"/>
  </g>
  <g id="Ojo_iz_2" class="st10">
    <path class="st9" d="M120.5,86.8c0,.3-.4,1.3-.6,1.6-.6.6-1.3,1.3-2.2,1.7-.9.8-2.1,1.4-3.4,1.4-.6-.2-.5-1,0-1.2,1-.4,2-1,2.9-1.6.8-.2.9-.8,1.5-1.2.2-.3.3-.8.7-1,.3-.2.7,0,.9.2h0ZM112.1,91c0-.3-.3-.5-.5-.3,0,0-.2,0-.3,0,0,0-.2.2-.3.2-.2,0-.3-.1-.5,0,0,0-.2,0-.3,0-.7.1-.5.9-.3,1.3.4.4.7,0,1.1,0,.2,0,.4,0,.6,0,.2,0,.2,0,.3-.2.2-.1.2-.6.1-.9v-.2Z"/>
    <path class="st9" d="M125.5,76c-1.3-.7-3.1-.6-4.3-.9-.9-.1-1.5.3-2.3.3-2.3-.4-4.3-.3-6.5.3-1.3.6-3.4,0-4.9.3-.9.2-1.5.4-2.2.6-1.5.6-3.1.2-4.6.7-3,.9-6.2,1.2-9.2,2.1-1,.5-1.1,2.3-.5,3.2,1.3,1.6,5.9-1.1,6.2.5s.7,1.1.9,1.8c2,8.2,16.3,5.1,17.2-2.7,0-.7.1-1.5.8-1.8,1.1-.5,2.8.4,3.9-.2.4-.1,1-.3,1.4-.1.5.1,0,1.1.5,1.6,1.3,1.5,2.4-.8,3-1.8.9-.8,1.9-2.8.8-3.8h-.1Z"/>
    <path id="_x32_1" data-name="_x32_" class="st0" d="M102.6,81.6c-.2-1.2-2.4-.9-3-.2,0,.3,0,.7.1,1,.3.6.9.7,1.4.5.5-.2,1.5-.6,1.4-1.2h0Z"/>
    <path class="st9" d="M96.8,77.3c4.1-.3,8.3-1.8,12.4-2.4,5.3-1.1,10.8-.7,16.1-1,.5,0,.8-.3.8-.5-1.2-1.8-13.7-.6-16.5,0-3.1.8-15.2,2.6-12.8,3.9h.1Z"/>
  </g>
  <g id="Ojo_iz_3" class="st10">
    <path class="st9" d="M120.8,87.1c.4.5,0,1-.4,1.3-.6.8-1.7,1.1-2.6,1.6-1,.7-2,1.4-3.3,1.5-.7,0-.8-.9-.2-1.2.7-.3,1.5-.8,2.2-1.1.3-.2.5-.4.8-.5.7-.1,1.1-.8,1.8-1,.4-.3,1-1,1.5-.6h.1ZM112.1,91c0-.3-.3-.5-.5-.3,0,0-.2,0-.3,0,0,0-.2.2-.3.2-.2,0-.3-.1-.5,0,0,0-.2,0-.3,0-.7.1-.5.9-.3,1.3.4.4.7,0,1.1,0,.2,0,.4,0,.6,0,.2,0,.2,0,.3-.2.2-.1.2-.6.1-.9v-.2Z"/>
    <path class="st9" d="M124.8,77.9c-1.3-.7-3.1-.6-4.3-.9-.9-.1-1.5.3-2.3.3-2.3-.4-4.3-.3-6.5.3-1.3.6-3.4,0-4.9.3-.9.2-1.5.4-2.2.6-.7.3-1.4.4-2.2.4-1.8,0-3.6.7-5.5,1.1-2,.3-4,.7-6,1.2-1.1.5-1.4,2.1-.8,3.1.8,1.4,3,.5,4.6.4,1,0,2.3-.5,2.8-.6s.8,1.7,1.1,2.3c3.3,6,14.5,3.2,16.4-3.2.5-1.7,2.4-.8,3.5-.9.9-.2,1.9-.7,2.9-.3.6.2,1.3.6,1.9.2,1.3-.6,2.9-2.9,1.6-4.2h-.1Z"/>
    <path id="_x33_1" data-name="_x33_" class="st0" d="M102.9,83.7c-.6-.7-3.9-.6-2.5.9.4.2,1,.3,1.4,0,.4-.1,1.2-.3,1.1-.9h0Z"/>
    <path class="st9" d="M126.1,74.6c-.9-1.1-3.2-.8-4.6-.9-8.2-.2-16.6,1.4-24.4,3.8-.8.4-1,1,0,1,5.5-.7,10.7-2.6,16.2-3,3.8-.4,7.6-.4,11.4-.3.5,0,1.4,0,1.4-.5h0Z"/>
  </g>
  <g id="Ojo_iz_4" class="st10">
    <path class="st9" d="M120.8,87.1c.4.5,0,1-.4,1.3-.6.8-1.7,1.1-2.6,1.6-1,.7-2,1.4-3.3,1.5-.7,0-.8-.9-.2-1.2.7-.3,1.5-.8,2.2-1.1.3-.2.5-.4.8-.5.7-.1,1.1-.8,1.8-1,.4-.3,1-1,1.5-.6h.1ZM112.1,91c0-.3-.3-.5-.5-.3,0,0-.2,0-.3,0,0,0-.2.2-.3.2-.2,0-.3-.1-.5,0,0,0-.2,0-.3,0-.7.1-.5.9-.3,1.3.4.4.7,0,1.1,0,.2,0,.4,0,.6,0,.2,0,.2,0,.3-.2.2-.1.2-.6.1-.9v-.2Z"/>
    <path class="st9" d="M124.6,77.5c-1.3-.6-3,.2-4.3.7-1.1.3-1.6.8-2.4,1.3-1.2.5-2.7.4-3.8.9-1,.4-1.7.5-2.7.8-1.3.2-2.7-.5-4.1-.3-1.9.3-3.2.9-5.3.6-1.5,0-3.1.3-4.7.4-1.3,0-2.3-.1-3.6,0-.8,0-1.7-.3-2.5,0-.9.3-1.5,1.7-1.2,2.7.3,1.5,2.6,1.3,4,1.5,1.9.4,4.1.5,5.6,2,3.3,3.3,11.1,1.4,14.4-1.8,1.5-1.4,3.7-1.4,5.6-1.9.9-.4,1.4-1.1,2.3-1.6.8-.5,1.5-.7,2.3-1.3,1.2-.7,2.1-3,.6-3.7h-.1Z"/>
    <path class="st9" d="M125.6,75.6c-2.7-.5-5.6,1-8.5,1.1-6,1.1-12,2.1-18.2,1.9-.8,0-2.6,0-2.8.6.6,2.3,30.6-1.4,29.5-3.7h0Z"/>
  </g>
  <g id="Ojo_iz_5" class="st10">
    <path class="st9" d="M125.3,81.3c-1.7-2.8-3.7-.4-5.5.7-.8.4-1.3,1.2-2,1.7-.7.5-1.6.5-2.3.9-1.1.5-2.3,1.1-3.5,1.6-1,.7-2.6.4-3.9.3-1.5,0-2.7.5-4.1.6-1.2,0-2.4-.5-3.6-.5-1.4-.2-3.1-.2-4.5-.8-1.1-.4-2.3-.7-3.5-1.4-1.3-.9-3.2-.5-3.7,1.1-.4,1.9,2,2.6,3.3,3.3,1.5.7,2.8,1.7,4.3,2.3,2,.6,4.5.5,6.4.7,2,0,4.1-.5,6.1-.5.3,0,.7,0,.9.2.4.4.7,1.1,1.3.9.6,0,.9-.2,1.2-.7.2-.3.5-.7.9-.8.7-.2,1.4.4,2.1.3.7,0,1.4-.5,2.1-.9,1.4-.8,3.2-1.4,4-3,1.1-2.2,4.8-3.1,4.1-6v-.2ZM110.2,91.2s0,0,0,0c0,0,0,0,0,0Z"/>
    <path class="st9" d="M97.1,82.6c8.9,2.3,19.7,0,27.3-5,.9-.8.3-1.2-.7-.9-6.4,3.1-13.2,5.6-20.5,5.4-1.9,0-3.7-.3-5.6-.6-.9-.2-2.1.4-.7,1h.2Z"/>
  </g>
  <g id="Nariz_y_sonrisa">
    <path id="Nariz" class="st9" d="M84.9,87.6c.6,1.2,1.8,2.7,1.7,4.2,0,1.3-1.8,5.7-3.5,4.4-.5-.4-.5-1.1-.1-1.5.7-.8,1.4-2,1.5-2.9,0-.9-1-2.2-1.4-3.2-.5-1.2,1.2-2,1.8-.9h0Z"/>
    <path id="Sonrisa" class="st9" d="M79.5,107.4c3,1.3,6.4,1,9.5.6.6.1.9,1,.7,1.5-1.2,1.8-11.2,2.1-12.2-.2-.4-1.2.8-2.4,1.9-1.9h.1Z"/>
  </g>
  <g id="Ceja_der">
    <g id="Ceja_der1" data-name="Ceja_der">
      <path class="st9" d="M92.5,63.5c.5-.2,1.3-.3,1.9-.5.1,0,.3-.2.4-.3.2,0,.4.1.6,0,1-.1,1.9-.5,2.8-.8.6,0,1.3-.2,1.8-.4.6,0,1,0,1.6-.1.4,0,.9.2,1.3.2.3,0,.5-.3.7-.3.2,0,.3,0,.6-.3.1,0,.3.3.5.2.8-.6,2-.4,2.8,0,.3,0,.6,0,.8,0,.6.2,1.2.7,1.8.3.2,0,.4.1.6.1.3,0,.6-.2.8-.2.7.1,1.6.4,2.3,0,.2,0,.5.4.8.4.9.1,1.4.2,2,.7.2,0,.4-.2.6-.2.2,0,.4,0,.6,0,.2,0,.3.2.6.3.5,0,1.1.2,1.5.5.8.2,1.8.3,2.5.8.7.7.4,2.6-.7,2.7-.5,0-1.2.3-1.8,0-.2-.1-.3-.3-.5-.3-.2,0-.5,0-.7,0-.5-.1-.9-.4-1.5-.3-.3,0-.6,0-.9,0-.2,0-.4.2-.6.1-1-.8-2.4-.7-3.6-1-1.9-.3-3.1,0-4.7-.7-1.7,0-3.4-.2-5,.4-.3.1-.6-.1-.9,0-.2,0-.5.3-.8.3-.7,0-1.6,0-2.1.5-.2.1-.5.3-.8.3-.7,0-1.5-.2-2.1.1-.4,0-.8-.1-1.1,0-1.3.1-2.8,1-4,.8-.2,0-.3,0-.4-.2-.3-.3-.7-1.2-.7-1.5,0-.3.3-.9.5-1.2.5-.4,1.5-.5,2-.7h.1Z"/>
    </g>
  </g>
  <g id="Ceja_iz">
    <g id="Ceja_iz1" data-name="Ceja_iz">
      <path class="st9" d="M73.3,65.8c-.5-.1-1.2-.4-1.8-.4-.2,0-.3,0-.4,0-.2,0-.3-.3-.5-.3-1.2-.4-2.4,0-3.6-.4-.8,0-.9,0-1.6-.1-.8.1-1.2-.3-1.9-.4-.2,0-.4.1-.6.2-.5,0-.5.2-.8.2-.1,0-.3-.3-.5-.2-.7.5-1.7.3-2.5,0-.2,0-.5,0-.7,0-.4,0-.9-.3-1.2-.3-.2,0-.3.1-.5.2-.2,0-.4,0-.6,0-.8.5-1.4.2-2.3.5-.2,0-.3.3-.5.3-.2,0-.5-.2-.8-.1-.8.2-1.3.2-2,0-.2,0-.3.3-.5.4-.2.1-.4.2-.5.3-.1.1-.3,0-.5,0-.1,0-.3,0-.4.2-.4.2-.9,0-1.3.2-.4.1-.8.4-1.2.4-.7.1-1,.4-1.5,0-.3-.2-.9-1.1-.8-1.6,0-.8.8-1.3,1.4-1.8.3-.3.7,0,1.1-.1.2,0,.4-.3.6-.4.6-.2,1.2-.1,1.7-.6.2-.2.5-.2.8-.4.2-.1.3-.4.6-.4,1.3.4,2.8-.2,4.2-.3.9-.1,1.9-.2,2.7-.4.4,0,.8,0,1.1,0,.5,0,1.1.4,1.6.3,1.3-.2,2.6.2,3.9,0,.3,0,.6-.1.9-.1.5,0,.6.2.9.2.5-.2,1.1,0,1.7,0,.8.2,1.7-.1,2.5,0,.7.1,1.3.7,1.9.7.5,0,.8.5,1.3.6,1,.3,2.1.6,3.1.9.3,0,.6.3.9.5.2.1.3.2.3.4,0,.4-.1,1.3-.3,1.6-.2.2-.7.6-1.1.7-.5,0-1.4-.4-2-.5h-.1Z"/>
    </g>
  </g>
  <g id="Cabello">
    <g>
      <path class="st9" d="M14.3,126.4c.3-.3.7-.8.9-1.1-.1,0-.4.4-.8.8,0,.1-.2.2-.2.3,0,.1,0,0,0,0Z"/>
      <path class="st9" d="M107.3,117.5c.1-.1.3-.3.4-.4-.1.1-.3.2-.4.4Z"/>
      <path class="st9" d="M107.7,117.1c0,0,.2-.1.2-.2,0,0-.2.1-.2.2Z"/>
      <path class="st9" d="M105.9,119.4c-.2.7-.4,1.7-.3,2,.3-1.6.8-3,1.7-3.9-.6.5-1.2,1.2-1.4,1.9Z"/>
      <path class="st9" d="M160.3,103.1v-.2c-.2-5.5-1.7-11.5-1.5-16.6.2-3.5-.5-7.4-1.1-10.8-.2-1.4-.2-2.3-.7-3.5-.5-1.3-1.3-3.4-1.6-4.2.4.6.3.1,0-.6-2.5-7.8-2.3-15.9-5.3-22.6-2.8-6.3-8.4-10.4-13.1-15.2-6.7-9-13.1-16.4-22.3-21.3-1.9-1-2.7-1.5-4.7-2.2h-.2c-8-3.1-18.2-4.6-25.2-4-.9,0-1.9.2-2.5,0C56.6-3.5,29.3,12.2,19.4,38c-.9,2.8-1.6,3.4-2.5,6.2-1.8,6.8-4.9,12.7-7.6,19.1-4.6,10.1-1.1,20.9,1.3,31.2,1,5.9,2,11.9,2.1,17.9-.3,5.1-1.6,10.9-3,15.7-2,5.5,3,0,5-2.2,1-1.5,4.9-6.4,4.3-2.5-1.4,8.4-7.1,17.9-8.8,26.4-1.5,10.3,2.3,21,8.1,30.2,1.4,1.9,2.7,5.3,5.1,5.4.9-.2,0-2.7-.8-4-1.1-2.2-3.6-7.9,0-3.3,3.4,4.1,8.1,7.9,13.1,7.2,3.4-.5,7.3-1.7,4.5-5.6-2-3.5-3.7-8.3-3.7-12.6.2-7.3,2.5,6,3.1,7.7.5,1.7,1.1,3.6,2.2,4.9,3.3,2.3,2.8-7.2,3-9,0-2.7.1-4.4.9-6.6.8-1.9,1.8-4,2.6-6,2.5-6.4,3.7-14.8,3.2-20.5,0-.5-.1-1.8-.1-1.9,1.8,6-.3,13.5,1.2,20,1,3.9,2.9,9.1,5.9,12,.4,0,0-2.2-.2-2.9-1.5-8.5-.3-19.9,2.3-25.7.6,0,1,0,1,0l3.9-.7c.9-.2,1.7-.8,2-1.7.7-2.1.8-6.7,1.2-7.5.7-1.2,1.3.8,2.4,0,1.2-.9.5-2.4-.7-2.4l-6.4-3c-.4-.7-.8-1.4-1.4-2.1-2.7-3-6.6-4.9-9.8-7.3-8.4-6-16.4-16.6-12.6-27.3,1.5-4.1,5.3-7.6,7.3-11.7,7.7-15.9,8.1-23.5,23.7-28.7,4.6-2,8.2-5.1,11.5-8.8,1.5-1.8,3.1-2.2,4.7,0,3.4,4.4,6.3,8.1,9.8,12,4.8,4.8,9.3,8.6,14.2,12.5,5.8,5,20,7.3,21.8,14.3,1,4-1.3,8.4-5,10.2-1.5.8-3.4,1.2-4.1,2.9-.8,2.2-.5,5.4-1.2,7.9-2.7,12.3-13.4,16.3-16.2,22.7-.5,1.2,1.2,2,1.1,1.8-.1.8-2.1,1-2.1,1.8-1.6.5-1.1,1.4-2.8,1.7-.9.3-3.5.9-4.1,1.6h-.3c-.3.7-.5.5-.2,1.4.3,1,1.3,1.5,2.1,2.1,1.3,1.1,2,2.7,2.5,4.2.5,1.4,1,2.9,2.1,2.7.4,0,.8-.2,1.2-.3h0c.9,7.8,4.8,15.1,6.3,22.7.5,1.9.9,1.2,1.4-1.3.6-3,1.5-5.5,2.2-8.1.5-2.3.7-5.8,1.1-5.3,1.1,3.9.8,8.3.4,12.3-.3,3.5-1.3,6-.4,9.7.9,3.1,2.5,7.8,5.8,8.5.3.2,0,.7,0,1,1.2-2.6,4-10.3,5.8-13.9,2-4,5.2-10.6,7.1-3.6,1.7,5.3,4.2,13.9,4.3,21.2,0,1-.3-1.2-.3-.4,0,.7,0,2.9.8,2.9.2,0,.5-.5.9-1.1,1.1-2.4,2.5-5.3,3.6-7.8,5.5-11.7,6.3-13.4,7.1-23.4.4-5.1.7-11.5,1.2-16.7.5-7.1,3.8-12.3,5.8-19.2.9-3.7,1.4-7.9,1.3-11.6ZM12.8,92.4v-.2c-2.3-9.2-5.3-20.2-1.5-29.4.6-1.7.1,1,0,1.5-1.2,8.2-.2,17.3,1.8,25.3.2.9.5,2,.5,2.8,0,.6-.4-.5-.3.1.2,2.2.9,5.6.9,8-.3-1.1-.8-6.2-1.5-8.1ZM147,50.9h0c0-.2.5.4.2-.5,0-.1,0-.3-.1-.4-1.4-3.8-4.1-8.9-5.7-11.9-.4-.8-.4-.6-.8-1-1.5-2.4.2-.9,1,.1,4.4,5.1,8,11.1,8.7,17.8.2,2.2-.2,2.6-1.4-.2-.7-1.5-1.5-2.9-1.9-3.8ZM157.2,109.5v.2c-1.1,5.4-3.5,10.9-5,16.3-.8,2.5-1.4,5.1-1.8,7.7,0,.3-.1.9-.3.9-.5-2.8.2-6.3.9-9.1.7-2.3,2.3-4.5,3.2-7,2-5.3,2.8-11.9,3.4-16.1.9-5.8.1,6.1-.3,7.2Z"/>
    </g>
    <path class="st0" d="M113.9,51.1c-.5-.5-1.2-.8-1.7-1.3-1-.9-2.1-1.6-3-2.6-.4-.3-.6-.7-.9-1.1-.4-.3-.8-.5-1-.9-1-.6-1.5-1.9-2-2.8-.6-.6-1.1-1.4-1.6-2.1-.4-.3-.4-.5-.5-.9-.3-.4-.5-.9-.6-1.3-.1-.2-.4-.4-.6-.6-.2-.5-.6-1-.7-1.6-.3-.5-.6-1.1-.7-1.6,0-.3.3-.8.6-.9.6-.2.9.5,1.3.8.2.3.1.6.4.8.6,1,.8,1.3,1.5,2.1.5,1.6,1.8,3.1,2.8,4.5.6,1.2,1.5,2.4,2.6,3.2.3.2.5.5.6.7.7.6,1.4,1.3,2.2,1.8,1,1.2,2.2,2.5,3.6,3.4.5.4.5,1,0,1.3-.7.3-1.4-.5-1.9-.8h-.1Z"/>
    <path class="st0" d="M57.1,40.7c-.1.3-.4.7-.5,1-.1.2-.4.4-.6.7-.2.5-.5,1-.9,1.5,0,.2-.3.3-.4.5-.1.3-.5.5-.7.6-.2.2-.2.4-.3.6,0,.2-.2.1-.3.2-.1.8-1.4,1.2-2,1.5-.1.1-.1.3-.2.3-.2,0-.3.2-.4.4-.2.2-.6.3-.8.5-.1,0-.1.2-.3.3-.5,0-.9.5-1.4.5-.2.1-.2.3-.4.5-.1.2-.3,0-.5.2-.3.2-.7.1-1,.4-.3.2-.7.3-.9.3-.2,0-.6-.4-.7-.7-.2-.4.2-.7.5-1,.2-.2.4-.2.5-.1.1,0,.2-.3.5-.3.4,0,.8-.6,1.1-.9,1.1-.2,2-1.1,3-1.7.2-.2.4-.3.7-.4.5-.5,1.2-1,1.5-1.7.2-.4.6-.4.6-.6,0-.2.2-.3.4-.5.4-.3.3-.8.6-1,.4-.3.8-.9,1.2-1.3.4-.5.6-1.5,1.2-1.7.4,0,.9.2,1,.7.2.4-.3.9-.4,1.2h0Z"/>
  </g>
  <g id="Lentes">
    <g>
      <path class="st3" d="M58.1,100.1c-.2,0-.3,0-.5-.1-.1,0-.3-.1-.4-.1,0,0-.1,0-.1,0-.6,0-1.2,0-1.8-.1-.6,0-1.2-.1-1.7-.1s-.4,0-.6,0c-.5,0-.7-.2-.9-.3,0,0,0,0-.1,0-.1,0-.2,0-.3,0-.1,0-.2,0-.3,0-.6-.3-1.2-.5-1.8-.7-.6-.2-1.2-.3-1.7-.6-.2-.1-.4-.3-.6-.5-.1-.1-.2-.2-.3-.3,0,0-.1,0-.3,0-.1,0-.3,0-.4,0,0,0,0,0-.1-.1-.3-.4-.7-.7-1.1-1-.3-.2-.6-.5-.9-.7-.1-.1-.2-.3-.3-.3,0,0,0-.1,0-.1,0,0-.2-.1-.3-.3-.3-.5-.7-1-1.2-1.5-.5-.6-1-1.1-1.4-1.8-.5-.4-1.2-1.1-1.2-2,0,0-.1-.2-.2-.3-.2-.2-.3-.4-.4-.7-.3-.3-.4-.7-.5-1.1-.8-1.3-1.3-3-1.3-4.8,0-.2,0-.4,0-.6,0-1.1-.1-2.3.5-3.2h0c0-.1-.3-.5,0-.8,0,0,0-.1,0-.2h0c0-.2,0-.2,0-.3.3-.6.4-1,.4-1.3,0-.3.1-.6.2-.9,0-.1.1-.3.2-.4,0-.1,0-.2,0-.3,0-.2,0-.4,0-.6,0,0,0,0,0,0,.3-.2.4-.5.4-.8,0-.2,0-.4.2-.6.1-.3.4-.6.9-.9.9-1.3,2-2.8,3.5-3.3,0,0,0,0,0-.1,0-.1.2-.3.4-.4.1,0,.2-.1.3-.2,0,0,.2-.2.4-.3.2,0,.3,0,.5-.1,0,0,0,0,.1,0,0,0,0,0,.2-.2.3-.2.6-.5,1.1-.5.2,0,.4-.1.6-.3.2,0,.3-.2.5-.2,0,0,0,0,.1,0s.1,0,.2,0c.3,0,.6,0,.9-.1,0,0,0,0,0,0s.2,0,.2,0c0,0,.2,0,.2,0s.1,0,.2,0c0,0,.1,0,.2,0s0,0,0,0c.2,0,.5,0,.7-.1h.2c0,0,0,0,0,0,.2,0,.4,0,.5,0,0,0,.1,0,.2,0,.1,0,.3,0,.4,0,.4,0,.8,0,1.1-.1,0,0,.2,0,.2,0,.2,0,.3,0,.4.1,0,0,.2,0,.2,0,.2,0,.4,0,.6,0,.1,0,.2,0,.4,0,0,0,.2,0,.3,0,.1,0,.3,0,.5-.1.6,0,1.2.1,1.7.3.1,0,.2,0,.3,0,.2,0,.4,0,.6,0,.2,0,.4,0,.5,0s.2,0,.3,0c.1,0,.2,0,.4,0,.3,0,.5,0,.7.1.2,0,.4,0,.6,0,.2,0,.5,0,.8,0,.2,0,.4,0,.6,0,0,0,.1,0,.1,0,.2,0,.4.1.5.2,0,0,0,0,.1,0,0,0,.2,0,.3,0,.4,0,.7.2,1.1.5,0,0,0,0,0,0,.1,0,.3,0,.4,0s.3,0,.4.1c.1,0,.3,0,.5,0h.3c.7.2,1.3.4,2,.5.2,0,.4,0,.6,0,.2,0,.4,0,.6.1.2,0,.3.2.4.3.2.1.4.3.6.3.7.2,1.2.7,1.6,1.2.2.2.4.5.7.6.7.6,1.4,1.2,1.7,2,0,0,.2.2.4.2.1,0,.3.2.4.3.2.2.4.4.5.6,0,0,.1.2.2.3.3.3.5.7.7,1,.6.7,1,1.5,1.1,2.3.3.5.3.8.3,1.3v.2c.2.8,0,1.7-.3,2.6h0c0,.3,0,.7-.6.9-.2.1-.5.2-.8.2.4.6.2,1.5.1,2.2v.3s0,.1,0,.1c0,.4-.1.8-.2,1.2,0,.3-.1.5-.2.8,0,.4,0,.9-.2,1.6-.1.4-.4.7-.6.9-.2.3-.5.6-.5.9-.2.9-.5,1.8-1.3,2.3,0,0,0,.1,0,.2,0,.1-.1.3-.3.4,0,0,0,.1,0,.2,0,.2-.1.3-.2.5h-.1c-.3.4-.5.7-.5,1,0,0,0,0,0,.1-.1.2-.3.2-.4.2,0,0,0,0-.1,0,0,0-.2.2-.3.3-.2.2-.4.4-.6.5,0,0-.1.2-.2.3-.1.2-.2.4-.5.6-.2.1-.4.2-.6.3-.1,0-.2,0-.3.1-.5.2-.6.3-.9.5-.2.2-.4.2-.6.2,0,0-.2,0-.2,0-.7.5-1.7.9-2.6,1.2-.8.3-1.6.6-2.3,1.1-.2,0-.3,0-.4,0s-.3,0-.4,0c0,0-.1,0-.2,0-.4,0-.8.2-1,.2,0,0-.2,0-.2,0s0,0,0,0h-.1c-.1,0-.2,0-.3,0s-.1,0-.2,0c0,0-.1,0-.2,0,0,0-.1,0-.2,0,0,0,0,0-.1,0-.1,0-.1,0-.2,0-.1,0-.3.2-.5.2,0,0,0,0,0,0,0,0,0,0,0,0ZM53.9,96.4c.1,0,.2,0,.3,0h.1c.2,0,.5,0,.7,0s.2,0,.3,0c.4,0,.9-.1,1.3-.1h1.1c.3,0,.8,0,1.2,0h0c.2,0,.3,0,.4.1.1,0,.2-.1.4-.1,0,0,.1,0,.2,0s.1,0,.2,0c0,0,0,0,.1,0,0,0,.1,0,.2,0,.1,0,.3-.2.5-.2h.1c0,0,.1,0,.2,0,.1,0,.3-.1.6-.1s0,0,.1,0c1.2,0,2.4-.8,3.5-1.5.3-.2.5-.3.8-.5.2-.1.5-.1.7-.1.2,0,.3,0,.4,0,.1,0,.3-.3.4-.5h0c.5-.8,1.3-1.5,2-1.9,0,0,0-.2.1-.5,0-.2,0-.5.2-.7.1-.2.3-.2.4-.3,0,0,.1,0,.2-.1v-.2c.4-.4.7-.8.7-1.2,0,0,0,0,0-.1,0-.2.2-.3.3-.4,0,0,.1,0,.1,0,0-.4.3-.8.5-1.1.2-.3.2-.7.2-1.2,0-.1,0-.2,0-.4,0-.3.1-.6.2-.7h0c0,0,0-.2,0-.3,0-.2,0-.4,0-.6,0-.1,0-.3,0-.5,0-.3,0-.6,0-1.1,0-.3,0-.5.2-.6.2-.3.6-.4,1.3-.4s.2,0,.2,0c-.1-.2-.2-.5-.3-.8h0c0-.2,0-.2,0-.2,0-.3,0-.6.2-.9.1-.5.2-.9,0-1.2l-.2-.4c-.1-1.1-.8-1.9-1.4-2.7-.2-.3-.4-.5-.6-.8-.3-.3-.6-.5-.9-.8-.2-.2-.4-.4-.6-.5-.1-.2-.2-.3-.3-.4-.1-.2-.2-.3-.4-.4-.3-.2-.5-.3-.6-.5,0,0-.1-.1-.2-.2,0,0,0,0,0,0,0,0,0,0,0,0-.2,0-.5-.1-.7-.3,0,0-.1,0-.2-.2,0,0-.2-.2-.2-.2,0,0,0,0,0,0-.4,0-.7,0-1.1-.2-.4,0-.6-.1-.8-.2-.1,0-.2,0-.2-.1h-.1c-.2,0-.3,0-.5,0s-.2,0-.3,0c-.3,0-.6-.1-.9-.2-.2,0-.4-.1-.6-.2-.2,0-.5-.2-.7-.3-.3-.1-.5-.2-.7-.2s-.1,0-.2,0c0,0-.2,0-.2,0-.1,0-.2,0-.3,0,0,0,0,0,0,0,0,0-.1,0-.2,0-.1,0-.3.1-.5.1-.2,0-.4,0-.5-.1,0,0-.1,0-.2,0h0c-.3,0-.6,0-.9,0-.2,0-.4,0-.7,0s-.3,0-.5,0c-.1,0-.2,0-.2,0-.3,0-.6-.1-.8-.2-.2,0-.3-.1-.5-.1,0,0,0,0,0,0-.1,0-.2.2-.4.2h0c-.2,0-.3,0-.4-.1-.2,0-.5.1-.8.1s-.3,0-.5,0c0,0,0,0,0,0-.1,0-.3,0-.5-.1-.1,0-.3,0-.4,0,0,0-.2,0-.3,0-.2,0-.5.2-.8.2s-.1,0-.1,0h-.4c-.4-.1-.7-.2-1-.2s-.2,0-.3,0h0c-.2,0-.4,0-.5,0,0,0,0,0,0,0,0,0,0,0,0,0-.1,0-.3.2-.5.2,0,0-.1,0-.2,0s-.2,0-.2,0c0,0-.1,0-.2,0-.1,0-.2.1-.3.2-.1.1-.3.2-.4.3-.2.1-.4.1-.5.1,0,0,0,0,0,0,0,.2,0,.3-.1.5,0,0,0,.1-.1.2,0,.1-.2.3-.4.4-.3.2-.6.3-.9.4h-.2c0,0-.2.2-.2.2-.4.2-.9.5-1.3.7-.2.2-.3.4-.5.7-.3.4-.6.8-1.1,1.2,0,.1,0,.3-.1.5,0,.3,0,.6-.3.9-.1.2-.2.5-.3.7,0,.3-.2.6-.4.9,0,.2,0,.3,0,.5,0,0,0,.1-.1.2,0,.1,0,.2,0,.4,0,0,0,0,0,.1-.2.6-.3,1.1-.2,1.7,0,.3-.2.6-.3.8,0,0-.1.2-.2.2,0,.4,0,1.1,0,1.6.3.5.4,1.3.3,2.3.2.3.3.5.5.7.3.2.2.6.2.8,0,0,0,.1,0,.2,0,0,.1,0,.2.1,0,0,.2.1.3.2.2.2.2.4.2.5,0,0,0,0,0,0,.3.3.5.7.7,1.1.2.3.3.7.6.9,0,0,.1,0,.2.1.2.2.5.3.5.8,0,0,.1.1.2.2.2.2.5.5.6.7,0,0,0,.2.1.3.1.2.1.3.3.4,0,0,0,0,0,0,.2.2.3.3.3.5,0,0,0,.1.1.2,0,0,.2.2.3.3.1,0,.2.2.3.2.2.2.3.3.4.5.1.2.3.4.5.5,0,0,.1,0,.2,0,.1,0,.3,0,.5.2.2.1.3.3.3.4,0,0,0,.1.1.2.1,0,.3,0,.4.2.2.3.6.4,1,.6.1,0,.2.1.4.2.1,0,.4,0,.7,0s.4,0,.5-.1c0,0,.1,0,.2,0s.1,0,.2,0c.1,0,.2.2.3.3,0,0,0,.1,0,.2.1,0,.3.1.4.2,0,0,.2,0,.2,0,.2,0,.4.2.5.3,0,0,0,0,.1.1,0,0,0,0,.2,0,.1,0,.2,0,.4,0Z"/>
      <path class="st5" d="M53.3,65.4c.1,0,.2.1.3.1.1,0,.2,0,.3,0,.4,0,.5.1,1,.2,0,0,0,0,0,0,.2,0,.5-.1.8-.2.6,0,1.1.1,1.6.3.1,0,.3,0,.4,0,.4,0,.8.1,1.2.1s.2,0,.4,0c.1,0,.2,0,.3,0,.4,0,.8.2,1.3.2s0,0,0,0c.5-.1,1,0,1.5-.1,0,0,0,0,0,0,.2,0,.3.1.5.2.5.2,1,.2,1.4.6,0,0,0,0,.1,0,.2,0,.4-.1.6-.1s.1,0,.2,0c.2.1.4.1.7.1.7.2,1.5.4,2.3.5.4.1.8,0,1.1.2.3.2.6.5,1,.6.9.3,1.5,1.2,2.2,1.8.6.5,1.3,1.1,1.6,1.9.2.2.6.4.8.6.3.2.4.6.6.8.3.3.5.6.7,1,.5.6,1,1.4,1.1,2.2.4.6.3.8.3,1.4.2.9,0,1.7-.3,2.5,0,.3,0,.5-.3.7-.3.2-.9.2-1.3.2-.8,0-.9-.7-1.1-1.4,0-.7.6-1.6.2-2.3,0,0,0-.3-.1-.3-.2-1.5-1.3-2.5-2.1-3.7-.6-.4-1.1-1-1.6-1.4-.3-.3-.3-.7-.7-.9-.5-.3-.5-.4-.8-.7-.2,0-.6,0-.8-.3-.2-.1-.3-.4-.5-.4,0,0-.1,0-.2,0-.3,0-.7,0-1-.2,0,0,0,0,0,0-.5,0-.6-.3-1-.3-.2,0-.4,0-.7,0s-.2,0-.3,0c-.5,0-1-.3-1.5-.3-.5-.1-1-.5-1.4-.5-.1,0-.2,0-.4,0,0,0,0,0,0,0-.1,0-.2,0-.4,0h0c-.2,0-.4.2-.6.2s0,0,0,0c-.2,0-.4-.1-.6-.1s0,0,0,0c0,0,0,0,0,0-.5,0-1-.2-1.5-.2-.2,0-.4,0-.6,0,0,0,0,0-.1,0-.4,0-.8-.3-1.2-.3,0,0,0,0,0,0-.2,0-.4.2-.5.3,0,0,0,0,0,0-.1,0-.3-.1-.4-.1s0,0,0,0c-.2,0-.4.1-.7.1s-.3,0-.4,0h0c-.3,0-.7-.2-1-.2s0,0,0,0c-.3,0-.7.2-1,.2s0,0,0,0c-.5,0-1-.2-1.5-.2s-.3,0-.4,0c-.2,0-.3-.1-.5-.1,0,0,0,0,0,0-.1,0-.3.2-.6.3,0,0,0,0-.1,0-.1,0-.3,0-.4,0s0,0-.1,0c-.3,0-.4.4-.7.5-.2.1-.5,0-.6.1-.2,0,0,.5-.2.6-.1.1-.2.4-.4.5-.3.2-.7.3-1,.4-.5.2-1.1.5-1.6.9-.6.6-.9,1.3-1.7,1.9-.2.4-.2,1-.4,1.4-.3.6-.3,1.1-.7,1.6,0,.1,0,.3,0,.4,0,.1-.2.2-.2.4,0,.1,0,.2,0,.4-.2.6-.3,1.1-.2,1.8,0,.3-.4.7-.5.9,0,.5,0,1.2,0,1.7.4.6.4,1.6.3,2.3.2.3.4.6.6.9.3.2,0,.5,0,.8,0,.2.4.3.5.4.2.1,0,.4.2.6.6.6.8,1.5,1.3,2.1.4.3.6.3.6.8.2.3.6.6.8.9.2.3.2.6.6.7.2.2.3.4.4.7.2.2.5.4.7.6.3.3.5.8.9,1,.2,0,.4,0,.6.2.2.1.3.4.4.5.1.1.3,0,.4.2.4.4.9.6,1.5.9.3,0,.5.1.8.1s.5,0,.7-.2c.1,0,.2.4.3.5.2.2.5.2.7.3.2,0,.4.3.6.4,0,0,0,0,.1,0,.2,0,.4,0,.6,0s.1,0,.2,0c.3,0,.6,0,.9,0s.2,0,.3,0c.4,0,.8-.1,1.3-.1s.7,0,1.1,0,.8,0,1.2,0c0,0,0,0,0,0,.2,0,.3.1.4.1s0,0,0,0c.1,0,.2-.2.4-.2,0,0,0,0,.1,0,0,0,.2,0,.3,0s.1,0,.2,0c.1,0,.3-.2.4-.2s0,0,0,0c0,0,0,0,0,0,.3,0,.4-.2.8-.2s0,0,0,0c1.6,0,3.1-1.2,4.5-2,.3-.2.8,0,1.1-.2.2-.1.4-.5.5-.7.5-.6,1.2-1.2,1.9-1.7.4-.3.2-.9.5-1.3.1-.2.4-.2.5-.4.3-.5.8-1,.7-1.7,0-.2.3-.2.4-.5,0-.4.2-.7.5-1,.3-.5.3-1.1.3-1.7,0-.3.2-.5.3-.7,0-.2,0-.5,0-.8,0-.6-.2-1,0-1.7,0-.6.5-.7,1.1-.7s.7,0,.9,0,0,0,0,0c1.3.1.9,1.8.8,2.8h0c0,.7-.3,1.5-.4,2.1,0,.5,0,1-.2,1.5-.3.7-1,1.2-1.2,1.9-.2.8-.5,1.7-1.2,2-.2.2-.2.5-.3.6-.1.1-.2.5-.3.7-.3.4-.7.7-.7,1.1,0,.1-.3,0-.4.2-.2.2-.5.5-.8.8-.3.3-.3.7-.6.9-.3.2-.6.2-.9.4-.5.1-.7.3-1,.6-.2.1-.5.1-.7.2-1.5,1-3.5,1.4-4.9,2.3,0,0-.1,0-.2,0-.2,0-.4-.1-.6-.1s-.1,0-.2,0c-.3,0-.8.1-1.1.2-.2,0-.4,0-.5,0-.1,0-.2,0-.3,0,0,0,0,0,0,0-.1,0-.2,0-.3,0s-.2,0-.2,0c-.1,0-.3.2-.4.2-.3,0-.6-.3-.9-.3,0,0,0,0-.1,0,0,0,0,0,0,0-1.2,0-2.4-.2-3.5-.2-.2,0-.4,0-.6,0-.5,0-.6-.2-.9-.3,0,0,0,0,0,0,0,0-.2,0-.3,0s-.1,0-.2,0c-1.1-.6-2.4-.7-3.5-1.2-.4-.2-.5-.6-.9-.8-.2-.2-.5,0-.7-.2-.5-.7-1.4-1.2-2-1.8-.1-.1-.2-.3-.3-.4,0-.2-.2-.1-.3-.3-.7-1.2-1.9-2.1-2.6-3.4-.6-.5-1.2-1.1-1.1-1.9-.2-.4-.6-.6-.7-1.1-.3-.3-.4-.7-.5-1.1-.9-1.4-1.2-3-1.3-4.7,0-1.2-.3-2.7.5-3.7.1-.2-.4-.5-.2-.7.2-.2,0-.4,0-.6.2-.4.4-1,.5-1.5,0-.5.3-.8.4-1.2,0-.3,0-.7,0-.8.6-.5.5-1,.7-1.6.1-.3.5-.6.8-.7.8-1.3,1.9-2.8,3.4-3.3.2-.2.2-.4.5-.5.2,0,.4-.4.6-.5.2-.1.4,0,.6,0,.3-.2.7-.6,1.2-.7.5,0,.8-.4,1.2-.5,0,0,.1,0,.2,0,.3,0,.7,0,1-.1.2,0,.3,0,.4,0s.2,0,.4,0c0,0,0,0,0,0,.3,0,.6-.1,1-.2,0,0,0,0,0,0,.2,0,.4.1.5.1.2,0,.3,0,.5,0,.4,0,.9,0,1.2-.2,0,0,0,0,0,0M53.3,64.7c-.1,0-.2,0-.3,0-.2,0-.6.1-1,.1s-.3,0-.4,0c0,0,0,0,0,0-.1,0-.3-.1-.6-.1s-.1,0-.2,0c0,0-.2,0-.3,0-.2,0-.4,0-.6,0,0,0,0,0,0,0-.1,0-.3,0-.3,0,0,0,0,0,0,0,0,0-.1,0-.2,0,0,0-.1,0-.2,0,0,0,0,0,0,0,0,0-.1,0-.2,0-.3,0-.6.1-.8.1s0,0-.1,0c0,0,0,0,0,0,0,0-.2,0-.2,0-.2,0-.4.2-.5.3-.2.1-.3.2-.5.2-.5,0-.9.4-1.2.6,0,0,0,0-.1,0-.2,0-.4,0-.6.2-.2,0-.3.2-.4.3,0,0-.1.1-.1.1,0,0,0,0,0,0-.3.1-.4.4-.5.5,0,0,0,0,0,0-1.5.6-2.6,2-3.5,3.3-.5.3-.9.6-1,1,0,.2-.1.5-.2.7,0,.4-.1.5-.3.6,0,0-.1.1-.2.2-.2.3-.2.6-.2.8,0,0,0,.2,0,.2,0,.1,0,.2-.2.4-.1.3-.3.6-.3,1.1,0,.2-.2.7-.4,1.2,0,.1,0,.2,0,.3,0,0,0,0,0,.1,0,0,0,0,0,0-.1.2-.2.5,0,.9-.5,1-.5,2.1-.4,3.2,0,.2,0,.4,0,.6,0,1.9.5,3.6,1.3,5,0,.4.3.8.5,1.2.1.3.3.6.5.8,0,0,0,.1.1.2,0,1,.8,1.7,1.3,2.1.4.7.9,1.3,1.4,1.8.4.5.9,1,1.1,1.5.1.2.3.3.4.4,0,0,0,0,0,0,0,.1.2.3.3.4.3.3.6.5.9.8.4.3.8.6,1.1,1,0,0,.1.2.2.2.2.1.4.1.5.1,0,0,0,0,0,0,0,0,0,0,0,0,0,0,.1.1.2.2.1.2.4.4.7.6.6.3,1.2.5,1.8.6.6.2,1.2.3,1.7.6,0,0,0,0,0,0,.1,0,.3,0,.5,0s.2,0,.2,0c0,0,0,0,0,0,.2.1.5.3,1,.3,0,0,0,0,0,0s0,0,0,0c.2,0,.4,0,.5,0,.5,0,1.1,0,1.7.1.6,0,1.2.1,1.8.1s.1,0,.2,0c0,0,0,0,0,0,0,0,.2,0,.3,0,.1,0,.3.1.5.2,0,0,0,0,.1,0s0,0,0,0c.3,0,.5-.2.6-.2,0,0,0,0,0,0,0,0,0,0,0,0,0,0,.2,0,.3,0s0,0,.1,0c0,0,0,0,.1,0,0,0,0,0,0,0,0,0,.2,0,.3,0h.2s0,0,.1,0,0,0,.1,0h.1c.3,0,.7-.1,1-.2,0,0,0,0,0,0,0,0,0,0,0,0,.1,0,.3,0,.5,0s.3,0,.4,0c0,0,0,0,.1,0,.6-.4,1.4-.7,2.2-1,.9-.3,1.8-.7,2.7-1.2,0,0,0,0,.1,0,.2,0,.4,0,.6-.2,0,0,0,0,.1,0,.2-.2.3-.3.7-.4,0,0,.1,0,.1,0,0,0,.2,0,.3,0,.2,0,.4-.1.7-.3.3-.2.5-.5.6-.7,0-.1.1-.2.2-.3.2-.1.4-.4.6-.5,0,0,.1-.1.2-.2h0c.1,0,.4-.1.6-.4,0,0,0-.2.1-.3,0-.2.3-.4.5-.7h.1c.2-.4.3-.6.3-.8,0,0,0,0,0,0,.1-.2.2-.3.3-.5,0,0,0,0,0,0,.9-.6,1.2-1.7,1.4-2.4,0,0,0,0,0,0,0-.2.2-.5.5-.7.2-.3.5-.6.7-1.1.3-.6.3-1.2.2-1.7,0-.2,0-.4.1-.7,0-.4.2-.9.2-1.2h0c0-.2,0-.3,0-.5,0-.6.2-1.3,0-2,.2,0,.3,0,.5-.2.7-.3.7-.9.7-1.1h0c.4-1,.5-1.9.3-2.8h0c0-.7,0-1-.3-1.6-.2-.8-.5-1.6-1.1-2.4-.2-.4-.4-.7-.7-1.1,0,0,0-.1,0-.2-.1-.2-.3-.5-.5-.7,0,0,0,0,0,0-.1-.1-.3-.2-.4-.3,0,0-.2-.1-.2-.2-.4-.8-1-1.4-1.8-2-.2-.2-.4-.4-.7-.6-.5-.5-1-1-1.8-1.3-.1,0-.3-.2-.5-.3-.1,0-.2-.2-.4-.2,0,0,0,0-.1,0-.2,0-.5-.1-.7-.1-.2,0-.3,0-.4,0,0,0-.1,0-.2,0-.7,0-1.3-.2-1.9-.4h-.2c0,0-.1,0-.2,0-.2,0-.3,0-.4,0-.2-.1-.4-.2-.6-.2s-.3,0-.4,0c-.3-.3-.7-.3-1.1-.4-.1,0-.2,0-.3,0,0,0,0,0,0,0-.2,0-.4-.2-.7-.2s-.1,0-.1,0c0,0,0,0,0,0-.2,0-.3,0-.5,0-.2,0-.5,0-.8,0-.1,0-.3,0-.4,0-.2,0-.5-.1-.8-.1s-.3,0-.5,0c0,0-.1,0-.2,0-.2,0-.3,0-.5,0-.2,0-.4,0-.7,0s-.2,0-.3,0c-.5-.2-1.1-.3-1.7-.3,0,0,0,0,0,0,0,0,0,0,0,0-.2,0-.4,0-.5.1,0,0-.2,0-.2,0-.1,0-.3,0-.4,0-.2,0-.4,0-.6,0s-.1,0-.2,0c-.1,0-.3-.1-.5-.1h0ZM48.9,69.2c0,0,.2,0,.3,0,.2,0,.4-.1.5-.2.1,0,.3,0,.4,0h0s0,0,.1,0c0,0,.2,0,.3,0,.3,0,.6,0,1,.1.1,0,.2,0,.4,0,0,0,0,0,0,0,0,0,0,0,.1,0,.3,0,.7,0,.9-.2,0,0,.1,0,.2,0,0,0,.2,0,.3,0,.2,0,.4.1.6.1.1,0,.3,0,.5,0,.2,0,.5,0,.7-.1.1,0,.3.1.4.1s0,0,0,0c.3,0,.4-.1.6-.2,0,0,.1,0,.2,0,.3.1.6.2.9.2s.1,0,.2,0c0,0,0,0,.1,0,.1,0,.2,0,.4,0s.4,0,.6,0c.3,0,.5,0,.8,0h0s0,0,0,0c.1,0,.3.1.5.1,0,0,0,0,0,0,.3,0,.5-.1.7-.2h0c0,0,.2,0,.3,0s.2,0,.4,0c0,0,0,0,0,0,.1,0,.3.1.6.2.2,0,.4.2.7.3,0,0,0,0,0,0,.2,0,.4,0,.6.1.3,0,.6.2,1,.2.1,0,.2,0,.4,0,.2,0,.4,0,.5,0,0,0,0,0,0,0,0,0,0,0,0,0,.2,0,.4.3.9.3.4.1.7.2,1.1.2,0,0,0,0,0,0,0,0,.1.1.2.2.3.3.7.4.9.4,0,0,0,0,0,0,0,0,0,0,0,0,.1.1.3.3.7.5,0,0,.1,0,.2.3,0,.1.1.3.3.4,0,0,0,0,0,.1.2.2.4.3.6.5.3.3.6.6.9.8.2.3.4.5.6.8.6.8,1.2,1.6,1.3,2.5,0,0,0,.1,0,.2v.3c.1,0,.2,0,.2,0,0,.2,0,.5-.1.9,0,.3-.2.6-.2,1,0,0,0,.1,0,.2h0c0,.2,0,.4.1.5-.4,0-.9.1-1.2.5-.1.2-.3.4-.3.8,0,.5,0,.8,0,1.1,0,.2,0,.3,0,.5,0,.3,0,.5,0,.7,0,0,0,0,0,0-.1.2-.3.5-.3.9,0,0,0,.2,0,.3,0,.4,0,.8-.2,1-.2.3-.5.7-.6,1.1-.1,0-.3.3-.4.6,0,0,0,.1,0,.2,0,.3-.2.6-.5,1v.2c-.1,0-.2,0-.2,0-.1,0-.3.2-.5.4-.2.3-.2.6-.3.8,0,0,0,.2,0,.3-.7.4-1.5,1.1-2,1.8,0,0,0,0,0,0h0c0,.2-.2.4-.2.5,0,0,0,0,0,0,0,0,0,0,0,0s0,0-.1,0c-.2,0-.6,0-.9.2-.3.1-.5.3-.8.5-1.1.7-2.2,1.3-3.4,1.4,0,0,0,0,0,0-.3,0-.6.1-.7.2,0,0,0,0,0,0,0,0,0,0,0,0h0c-.3,0-.6.2-.7.3,0,0,0,0,0,0,0,0-.2,0-.2,0-.1,0-.2,0-.3,0-.1,0-.2,0-.3.1-.1,0-.2,0-.4,0s0,0,0,0c0,0,0,0,0,0-.4,0-.8,0-1.1,0s-.4,0-.5,0c-.2,0-.4,0-.5,0-.4,0-.9,0-1.4.1,0,0-.1,0-.2,0-.2,0-.4,0-.6,0h-.2c-.1,0-.2,0-.3,0-.2,0-.3,0-.4,0,0,0,0,0,0,0-.1-.1-.3-.3-.7-.3,0,0-.1,0-.2,0,0,0-.2,0-.3,0,0,0,0,0,0,0,0-.1-.2-.3-.4-.5-.1,0-.2-.1-.4-.1s-.2,0-.4,0c0,0-.2,0-.4,0s-.4,0-.6,0c-.1,0-.2,0-.3-.1-.3-.2-.7-.3-.9-.5-.2-.2-.4-.3-.5-.3,0,0,0,0,0,0,0-.1-.2-.3-.4-.5,0,0,0,0,0,0-.2-.1-.4-.2-.6-.2,0,0,0,0-.1,0-.1,0-.2-.2-.3-.4-.1-.2-.2-.3-.4-.5-.1-.1-.2-.2-.3-.3-.1,0-.2-.2-.3-.2,0,0,0-.1,0-.2,0-.2-.2-.4-.4-.6,0,0-.1-.1-.2-.1,0,0,0,0-.1-.2,0,0,0-.2-.1-.3-.2-.3-.4-.6-.7-.8,0,0,0,0-.1-.1-.1-.5-.4-.7-.7-.9,0,0,0,0-.2-.1-.2-.2-.3-.5-.5-.8-.2-.4-.4-.8-.7-1.1,0-.2,0-.5-.3-.7,0,0-.2-.1-.3-.2.1-.6,0-.9-.3-1.1-.1-.1-.2-.3-.3-.5,0-1,0-1.7-.3-2.3,0-.5,0-1,0-1.4,0,0,0,0,0-.1.2-.2.4-.6.4-1,0,0,0,0,0,0,0-.6,0-1,.2-1.5,0,0,0-.2,0-.2,0-.1,0-.2,0-.3,0,0,0,0,0-.1.1-.2.1-.4.1-.6.2-.3.3-.6.4-.8,0-.2.1-.4.3-.6.2-.3.2-.7.3-1,0-.1,0-.3,0-.4.4-.4.7-.8,1-1.2.2-.2.3-.4.5-.6.4-.2.8-.5,1.2-.7h.2c0-.1.1-.1.2-.1.3,0,.6-.2,1-.4.2-.2.4-.4.5-.5,0,0,0,0,0-.1s0,0,0,0c0-.1.1-.3.1-.4.1,0,.3,0,.4-.2.2-.1.4-.2.5-.3,0,0,0,0,0,0,0,0,0,0,0,0,0,0,.2,0,.3,0h0Z"/>
    </g>
    <g>
      <path class="st3" d="M108.6,100.2c-.9,0-1.6-.1-2.1-.3-.1,0-.2,0-.3,0-.3,0-.7,0-1-.3,0,0-.1,0-.2,0-.1,0-.2,0-.3,0-.2,0-.4,0-.6-.2,0,0,0,0,0,0s0,0-.1,0c-.2,0-.3,0-.4,0-.3,0-.4-.2-.6-.4,0,0-.1-.1-.2-.2h-.2c-.3-.2-.7-.3-.9-.5-1.4-.6-2.8-1.4-4-2.4-.2-.2-.3-.4-.3-.6,0-.2-.1-.4-.3-.5-.1,0-.3-.2-.4-.3-.4-.3-.9-.5-1.3-1-.5-.4-.8-1-1.1-1.6h0c0-.2-.3-.3-.6-.5-.2,0-.3-.2-.4-.3-.2-.2-.3-.4-.3-.6,0,0,0-.2,0-.2,0-.1-.2-.3-.3-.5-.3-.5-.6-1-.9-1.2,0,0,0,0,0,0-.1-.2-.1-.4-.2-.5,0,0,0-.1,0-.2,0,0,0-.1-.2-.2-.1-.1-.3-.3-.3-.5,0-.6-.4-1.4-.9-1.9-.2-.3-.4-.7-.5-1,0-.2,0-.3,0-.4,0,0,0-.1,0-.1,0,0,0-.1-.1-.1,0,0-.2-.2-.2-.3,0-.4-.2-.6-.4-.9,0-.1-.1-.2-.2-.3,0,0,0,0,0-.1,0-.1,0-.3-.1-.4-.1-.5-.3-1.1,0-1.5,0,0,0,0,0,0,.3-.3.8-.4,1.3-.5,0-.1-.2-.3-.2-.5-.4-.7,0-1.4.2-1.9v-.2c.1-.2.2-.5.3-.7,0,0,0,0,0-.1,0-.1,0-.3,0-.5.2-.6.4-1.2.5-1.8.1-.6.3-1.2.5-1.8.1-.3.3-.5.4-.7.5-1,1.1-2,2-2.7.2-.1.3-.1.5-.2.1,0,.2,0,.3,0,.1,0,.2-.1.3-.2.3-.2.7-.5,1.2-.5h0s0,0,.1-.2c.1-.1.3-.3.6-.4.2-.1.4-.1.6-.1,0,0,.2,0,.2,0,0,0,.1-.1.2-.2.1-.1.2-.3.4-.3,0,0,.2,0,.3-.1,0,0,.2,0,.3,0,.3-.3.7-.3,1-.3,0,0,.2-.1.3-.2.2-.1.4-.3.7-.4.5-.2.9-.3,1.4-.4.2,0,.3,0,.5,0,0,0,.1,0,.2,0,.1,0,.2,0,.4,0,.1,0,.2,0,.3,0,.2,0,.3,0,.4,0,0,0,.2,0,.2-.1.2-.1.3-.2.5-.2,0,0,0,0,0,0,.1-.1.3-.3.5-.3.3,0,.6,0,.9-.2.3,0,.6-.1.9-.2.2,0,.4-.1.6-.2.2-.1.5-.2.7-.3,0,0,.2,0,.3,0s.3,0,.5,0c.1,0,.2,0,.3,0,0,0,.1,0,.1-.1.1-.1.3-.4.5-.4.1,0,.2,0,.3,0,.3-.2.8-.3,1.3-.3s.7,0,1,0h.2c.1,0,.2,0,.4,0,.3,0,.6-.2.9-.2s0,0,.1,0c.3,0,.6.1.9.2.2,0,.5.2.7.2.1,0,.2,0,.3,0,.2,0,.5,0,.7.2,0,0,.2,0,.2.1,0,0,0,0,.1,0h0c.1,0,.3,0,.4,0s.2,0,.3,0c.2,0,.4.2.5.3.1,0,.2.1.3.2,0,0,0,0,0,0,.1,0,.2,0,.2,0,.1,0,.2,0,.3,0,.2,0,.4,0,.5,0,.2,0,.4.2.6.3,0,0,.1,0,.2.1,0,0,0,0,0,0,.1,0,.3-.2.5-.2s.2,0,.3,0c0,0,.2,0,.3,0,.3,0,.7,0,.9.4.2.1.4.3.6.6.1,0,.2.1.3.3,0,.2.2.3.4.5.2.2.5.4.6.7.2.4.6.8.9,1.2.6.6,1.2,1.3,1.3,2.3,0,.2.3.4.5.6.2.3.5.6.7,1,0,.2.1.3.2.5.2.6.4,1.1.5,1.8.1,0,.2.2.2.3,0,.1,0,.3,0,.4,0,0,0,0,0,.1.2.3.3.4.3.9,0,.2,0,.4,0,.6,0,.1,0,.3.1.4,0,.3.2.6.2.8,0,.3-.1.5-.2.7,0,.1-.2.3-.2.4,0,.5,0,1.2,0,1.8.4,1,0,1.9-.2,2.7h0c0,.3,0,.5,0,.8,0,.2,0,.4,0,.5,0,.3-.2.5-.3.7,0,0-.1.1-.1.1,0,0,0,.2,0,.3,0,.1,0,.3,0,.5,0,.3-.1.5-.2.6,0,0,0,.1,0,.1,0,.7-.3,1.4-.6,2-.3.5-.5,1-.6,1.5,0,0,0,0,0,.1,0,.2-.3.3-.4.4,0,0-.1.1-.1.1,0,.4-.3.6-.5.9l-.2.2c-.1.2-.3.4-.5.5,0,0-.1.1-.2.1,0,.1-.1.2-.2.2,0,.1-.2.3-.3.4,0,0,0,0-.1,0-.3,0-.6.4-.9.7-.3.4-.7.7-1,.8,0,0-.2,0-.3.2-.1,0-.3.2-.4.2,0,0-.1.1-.2.2-.1.2-.2.4-.5.5-.2.1-.4.1-.5.2,0,0,0,0-.1,0-.1.2-.3.3-.5.4-.8.3-1.8.9-2.7,1.6,0,0-.1.1-.1.2,0,.2-.2.4-.5.4s-.1,0-.2,0c-.2-.1-.3-.1-.4-.1-.1,0-.3,0-.5.1h-.3c0,.2-.3.2-.5.2s-.2,0-.3,0-.1,0-.2,0c-.5.3-.9.5-1.6.5-.3,0-.6.1-.9.3-.2,0-.5.2-.8.2,0,0-.1,0-.1,0-.3,0-.6,0-.9,0-.4,0-.8,0-1.2,0ZM108.4,96.4c.3,0,.4.1.5.2,0,0,.2.1.2.1.3,0,.5,0,.7,0,.4,0,.8,0,1.1,0,.1,0,.3,0,.5,0,.3,0,.6,0,.7-.1.1,0,.3-.1.4-.2.3-.2.7-.4,1-.4s.1,0,.2,0c0,0,0,0,0,0,0,0,.1,0,.1,0,0,0,.2-.2.4-.2.8,0,1.4-.5,2.1-1,.3-.2.5-.4.8-.5.2-.1.4-.2.6-.2.1,0,.3,0,.4-.1,0,0,0-.1.1-.2,0-.1.1-.2.2-.3.1-.1.3-.1.4-.2.1,0,.2,0,.2,0,.3-.2.5-.4.7-.6.3-.3.7-.6,1.1-.8,0,0,.1-.2.3-.3.8-.4,1.4-1.3,1.9-2.2.1-.2.3-.5.4-.7,0-.1,0-.2,0-.3,0-.4.2-.7.4-1.1,0-.2.3-.4.4-.5,0,0,0,0,.1,0,0,0,0,0,0,0,0,0,0,0,0,0,0-.1,0-.3,0-.4.1-.2.1-.4.2-.6,0-.1,0-.3,0-.4,0,0,0,0,0-.1.2-.3.2-.5.1-.8,0-.6,0-1.2.1-1.8.1-1.4.2-2.8.1-4,0-.4,0-.8.2-1.2-.1-.1-.3-.2-.3-.4,0,0,0-.2,0-.3-.2-.3-.1-.5,0-.8,0-.4-.2-.6-.4-1,0,0,0,0,0-.1,0,0,0-.1,0-.2,0-.2,0-.3,0-.4,0,0,0-.1-.1-.2-.1,0-.2-.2-.3-.4,0-.1,0-.3,0-.4,0,0,0-.2,0-.2,0-.1-.2-.2-.2-.2-.1-.1-.3-.3-.4-.5-.2-.2-.2-.5-.2-.8s0-.2,0-.2c-.2-.1-.4-.4-.6-.6,0,0-.2-.2-.2-.3-.2-.3-.4-.5-.7-.7-.4-.4-.8-.7-1-1.2,0,0,0,0,0,0s0,0,0,0c0,0-.1,0-.2,0-.2,0-.3-.1-.4-.2-.4-.1-.7-.3-.8-.5,0,0,0,0,0,0s0,0,0,0c-.3,0-.6-.1-.9-.2-.3,0-.5-.2-.7-.2s0,0-.1,0c0,0,0,0,0,0s0,0-.1,0c-.2,0-.3-.1-.4-.2-.2,0-.3-.1-.6-.2,0,0-.1,0-.2,0-.2-.1-.5-.2-.8-.2s-.3,0-.5,0h-.1c-.2,0-.4,0-.5-.2,0,0,0,0-.1,0,0,0-.2,0-.3,0s-.3,0-.4,0c-.1,0-.2,0-.4,0,0,0,0,0-.1,0-.1,0-.3,0-.4,0s-.2,0-.4,0c-.2,0-.3,0-.4,0s-.1,0-.2,0c0,0-.2,0-.4,0,0,0-.3,0-.4.2-.3.1-.7.3-1.2.3,0,0-.2,0-.3,0s-.2,0-.3,0c0,0-.1,0-.2,0,0,0-.2,0-.2,0,0,0-.2,0-.3.1-.5,0-1,.1-1.3.4-.3.2-.6.2-.9.2-.1,0-.3,0-.4,0-.2,0-.4.2-.7.3-.2.1-.4.2-.7.3-.2,0-.3.1-.5.1s-.3,0-.4,0c-.2,0-.5,0-.7,0s-.2,0-.4,0h-.2s0,0,0,0c0,0-.1.1-.2.1h-.3c-.3.2-.4.2-.7.3-.5.1-.9.2-1.3.5-.2.1-.4.3-.6.4-.2.1-.3.3-.5.4-.2,0-.3,0-.4.1-.1,0-.3,0-.3,0-.3.2-.7.4-1.1.5-.3,0-.6.2-.8.3-.3.3-.7.6-1,.9-.1.1-.3.2-.4.3,0,0,0,.1,0,.2,0,.1,0,.3,0,.4-.2.3-.2.6-.3.9,0,.2-.1.4-.2.6,0,.3,0,1-.3,1.6,0,.4,0,.5-.1.8v.2c0,.5-.3,1.1-.6,1.7,0,0,0,0,0,.1,0,.1,0,.4-.3.6-.2.1-.5.3-.9.4.4.4.5,1.1.7,1.5,0,.2,0,.3.1.5h0c0,.3.1.4.2.6.2.5.4,1.2.8,1.5.6.7.7,1.6.8,2.1,0,.3.4.6.7.9.4.4.8.9.9,1.6,0,0,0,0,.1.1,0,0,.2.2.3.3,0,0,0,0,0,0,0,0,0,0,.1,0,.1,0,.3.2.5.4v.2c.2.1.3.2.4.3,0,0,0,0,.1,0,0,0,.2,0,.3.1.1.1.2.3.2.4,0,0,0,.1,0,.1,0,0,.5.5.6.7,0,0,.2,0,.3.2.3.2.7.3.9.9.2.3.4.5.8.8,0,0,0,0,0,0,.9,1,2.3,1.6,3.6,2l.5.2s0,0,.1,0c0,0,.2,0,.3,0s.2,0,.3,0,.2.1.3.2c0,0,0,0,.1.1.2,0,.5.1.8.2h.2c.1,0,.2.1.3.2.1,0,.2,0,.2,0,0,0,0,0,.1,0,.1,0,.2,0,.3,0,0,0,.1,0,.1,0,0,0,0,0,.1,0,.1,0,.3-.1.4-.1Z"/>
      <path class="st5" d="M113.7,63.1s0,0,.1,0c.5,0,1,.4,1.6.4.3,0,.6,0,.8.2.2,0,.3.2.5.2s0,0,0,0c.1,0,.3,0,.5,0s.1,0,.2,0c.3,0,.6.4.9.4,0,0,0,0,.1,0,.2,0,.4,0,.5,0s.3,0,.4,0c.3,0,.6.3.7.4,0,0,0,0,0,0,.2,0,.5-.3.7-.3s0,0,.1,0c.4.1.9,0,1.1.4.2.1.4.3.6.5,0,.1.2.1.3.3.2.4.8.7,1,1.2.6,1.2,2,2,2.2,3.4.2.6.9,1,1.1,1.7.3.7.6,1.4.6,2.2,0,.1.2.2.2.4,0,.2-.1.4,0,.6.2.3.3.3.3.8,0,.2,0,.4,0,.6,0,.4.3.9.3,1.3,0,.3-.4.8-.4,1.1,0,.6,0,1.3,0,1.8.5.9,0,1.8-.3,2.7.1.4.1.9.2,1.3,0,.2-.4.4-.4.7,0,.2.1.5.1.8,0,.3-.3.4-.3.7,0,1.3-1.1,2.3-1.2,3.6-.1.3-.5.3-.6.7,0,.3-.4.7-.6,1-.2.3-.5.4-.6.6-.2.2-.2.4-.5.6-.7.2-1.4,1.4-1.9,1.5-.2.1-.5.3-.8.5-.2.2-.3.6-.6.8-.2.1-.5,0-.7.2,0,.1-.2.3-.4.3-1,.3-2,1-2.8,1.7-.2.2-.3.6-.4.6h0c-.2-.1-.4-.2-.6-.2-.3,0-.5.1-.9.2-.1,0-.2,0-.4,0-.2,0-.4,0-.6,0-.5.3-.9.5-1.6.6-.6,0-1.1.4-1.7.5,0,0,0,0,0,0-.6,0-1.3,0-2.1,0s-1.5,0-2-.3c-.1,0-.2,0-.4,0-.3,0-.6-.1-.9-.3,0,0,0,0,0,0-.2,0-.3,0-.5,0s-.2,0-.3-.1c-.1,0-.2,0-.4,0s0,0,0,0c0,0-.2,0-.3,0-.3,0-.5-.4-.7-.5-.3-.1-.8-.2-1.1-.4-1.4-.6-2.8-1.4-4-2.4-.2-.3-.2-.9-.6-1.1-.5-.4-1.2-.6-1.6-1.2-.5-.5-.8-1.1-1.1-1.7-.3-.3-.8-.5-1.2-.7-.2-.1,0-.5-.2-.7-.4-.6-.7-1.4-1.3-1.8-.1-.1,0-.4-.1-.6,0-.2-.4-.4-.5-.6,0-.7-.4-1.5-.9-2.1-.2-.3-.4-.6-.5-.9,0-.2,0-.4,0-.5,0-.1-.2-.3-.3-.4,0-.5-.4-.8-.6-1.2,0-.5-.5-1.3-.2-1.7.4-.3.9-.3,1.5-.4.1,0,.2,0,.3,0,1.1,0,1.3,1.6,1.5,2.3h0c.2.8.5,1.8,1.1,2.2.4.5.6,1.2.6,1.9.3,1,1.5,1.6,1.5,2.6,0,.2.3.3.4.5,0,.2.4.3.6.5.1.2.3.4.4.5.1.1.3.1.4.2.1.1,0,.4.2.5.2.2.4.4.6.6.5.3.9.3,1.2,1,.2.4.6.7,1,1,1,1.2,2.8,1.8,4.2,2.3,0,0,0,0,.1,0,.2,0,.3-.1.5-.1s0,0,.1,0c.1,0,.3.2.4.3.3.1.8.2,1.1.3.2,0,.4.2.5.2s0,0,0,0c0,0,0,0,0,0,.2,0,.3.1.5.1s0,0,0,0c.2,0,.4-.2.6-.2s0,0,0,0c.3,0,.5.3.7.3s0,0,0,0c.6,0,1.2,0,1.8-.1.4,0,1-.2,1.3-.2.4-.1.9-.6,1.4-.6s0,0,0,0c0,0,.1,0,.2,0,.2,0,.3-.2.6-.3,1.1,0,2-1,3-1.5.3-.2.7-.2,1-.3.2-.1.3-.4.4-.5.2-.1.5,0,.7-.3.6-.4,1.2-1.1,1.8-1.4,0,0,0-.2.2-.2,1.1-.6,1.8-2,2.5-3,.1-.5.2-1,.5-1.4,0-.3.4-.3.5-.5,0-.1,0-.4,0-.6.2-.3.1-.7.2-1,.2-.3.2-.7.2-1.1.1-1.8.4-3.9.3-5.7,0-.4,0-.9.3-1.2,0-.2-.3-.3-.3-.4,0,0,0-.2,0-.3-.2-.3-.2-.4-.1-.7,0-.5-.2-.8-.4-1.2,0-.2,0-.5-.2-.7,0-.2-.3-.3-.4-.5-.1-.2,0-.6-.2-.8-.2-.2-.4-.4-.6-.6-.3-.3,0-.9-.2-1.1-.2-.2-.5-.5-.8-.9-.5-.6-1.3-1.2-1.7-1.8-.1-.2-.3-.1-.5-.2-.3-.2-.9-.3-1-.5,0-.1-.1-.2-.3-.2,0,0,0,0,0,0-.5,0-1.1-.4-1.6-.4s-.1,0-.2,0c-.4-.1-.5-.3-1.1-.4-.3-.2-.7-.2-1-.2s-.4,0-.6,0c-.2,0-.3-.1-.5-.2-.1,0-.3,0-.4,0-.3,0-.5,0-.8,0-.2,0-.4.1-.5.1s-.2,0-.3,0c-.2,0-.4,0-.4,0-.1,0-.2,0-.6,0-.5.1-1,.4-1.6.4s0,0,0,0c0,0-.1,0-.2,0-.2,0-.3,0-.5,0s0,0-.1,0c-.2,0-.3.2-.5.2-.5,0-1,.1-1.4.4-.4.2-.8.2-1.2.3-.5.2-.9.4-1.4.7,0,0-.2,0-.3,0s-.3,0-.4,0,0,0-.1,0c-.2,0-.4,0-.6,0s-.4,0-.6,0c-.2,0-.3.2-.4.3-.4.1-.6.1-1,.3-.4.1-.9.2-1.3.5-.4.2-.7.6-1.1.8-.2,0-.5,0-.7.2-.6.4-1.3.5-1.9.8-.6.4-1.1.9-1.5,1.3,0,.2,0,.5-.1.7-.3.5-.3,1-.5,1.5,0,.5,0,1.1-.3,1.6,0,.6,0,.4-.2.9,0,.6-.2,1.1-.5,1.6-.1.2,0,.4-.2.6-.3.2-.9.4-1.4.4s-.9-.2-1-.8c-.4-.6,0-1.3.2-1.9,0-.2.1-.5.2-.6,0-.2,0-.4,0-.7.4-1.1.6-2.4,1-3.6.6-1.1,1.2-2.4,2.3-3.2.2-.1.5,0,.8-.2.4-.3.8-.6,1.3-.7.3,0,.5-.5.8-.5.2-.1.5,0,.7-.1.3,0,.4-.4.7-.5.2-.1.4-.1.6-.2.3-.3.6-.3.9-.3.3-.1.6-.5.9-.6.6-.2,1.3-.3,1.9-.4,0,0,0,0,0,0,.2,0,.5,0,.7,0s.4,0,.6,0c.4-.2.2-.3.8-.3.2,0,.3-.4.6-.4.6,0,1.1-.3,1.7-.3.4,0,.8-.4,1.3-.5,0,0,.1,0,.2,0,.3,0,.6,0,.8,0s.1,0,.2,0c.2,0,.3-.4.5-.4s0,0,0,0c.1,0,.2.1.4.1s0,0,.1,0c.3-.2.7-.3,1.1-.3s.8,0,1.2.1c.4,0,.8-.3,1.3-.3M113.7,62.4c-.4,0-.7.1-1,.2,0,0-.2,0-.3,0h0c-.3,0-.7-.1-1.1-.1s-.9,0-1.3.3c0,0-.2,0-.3,0h0c-.4,0-.7.3-.8.5,0,0-.1,0-.2,0-.2,0-.3,0-.5,0s-.3,0-.4,0c-.3,0-.6.2-.8.3-.1,0-.3.2-.4.2,0,0,0,0,0,0-.3,0-.6.1-.9.2-.3,0-.5.1-.8.2,0,0,0,0-.1,0-.3,0-.5.3-.7.4-.2,0-.4,0-.6.2,0,0,0,0-.1,0,0,0-.2,0-.3,0s-.2,0-.3,0c-.1,0-.3,0-.4,0h-.1s0,0-.1,0c-.2,0-.3,0-.5,0-.5,0-1,.2-1.5.4-.3,0-.5.3-.7.4,0,0-.1,0-.2.1-.3,0-.7,0-1.1.4,0,0,0,0-.2,0-.1,0-.3,0-.4.1-.2.1-.4.3-.5.4,0,0,0,0,0,0,0,0,0,0-.1,0-.2,0-.4,0-.7.1-.3,0-.5.3-.7.4,0,0,0,0,0,0-.5,0-.8.3-1.2.5,0,0-.2.1-.3.2,0,0-.1,0-.2,0-.2,0-.4,0-.6.2,0,0,0,0,0,0-1,.7-1.6,1.8-2.2,2.8-.1.2-.2.4-.3.6,0,0,0,0,0,.1-.2.6-.3,1.2-.5,1.8-.2.6-.3,1.2-.5,1.8,0,0,0,0,0,0,0,.3,0,.5,0,.7,0,0,0,0,0,0,0,.2-.2.4-.2.7v.2c-.3.6-.6,1.4-.2,2.2,0,0,0,0,0,0-.4,0-.7.2-1,.5,0,0,0,0-.1.2-.4.6-.1,1.3,0,1.8,0,.1,0,.3.1.4,0,0,0,.2,0,.2,0,.1.1.2.2.3.2.3.3.5.3.7,0,0,0,.1,0,.2,0,.2.2.3.3.4,0,0,0,0,0,0,0,.1,0,.3,0,.4,0,0,0,0,0,0,.1.3.3.7.5,1,0,0,0,0,0,0,.4.5.7,1.2.8,1.7,0,0,0,0,0,0,0,.3.3.5.4.7,0,0,0,0,0,0,0,0,0,0,0,0,0,.2,0,.5.2.7,0,0,0,.1.1.1.3.2.6.7.8,1.1,0,.1.2.3.3.4,0,0,0,0,0,0,0,.2,0,.6.4.9.1,0,.3.2.5.3.2,0,.4.2.5.3h0c.3.6.6,1.2,1.1,1.7.4.5.9.8,1.3,1.1.1,0,.3.2.4.3,0,0,0,.2.1.3,0,.2.2.5.4.7,0,0,0,0,0,0,1.2,1,2.6,1.9,4.1,2.5.3.2.7.3,1,.4,0,0,.1,0,.2,0,0,0,0,0,.1,0,.1.1.4.3.6.4,0,0,0,0,0,0,.2,0,.3,0,.4,0h0s0,0,0,0c.2.1.4.2.7.2s.3,0,.4,0c0,0,0,0,0,0,.4.2.7.3,1.1.3s.2,0,.3,0c.5.2,1.2.3,2.1.3s.8,0,1.2,0c.3,0,.6,0,.9,0h0s0,0,0,0c0,0,.1,0,.2,0,.3,0,.6-.2.8-.3.3-.1.6-.2.8-.2.7,0,1.1-.3,1.6-.5,0,0,0,0,0,0,.1,0,.3,0,.4,0,.2,0,.4,0,.6-.1,0,0,.2,0,.2,0,.2,0,.3-.1.4-.1s.2,0,.2,0c0,0,.2,0,.3,0,.5,0,.7-.5.8-.6,0,0,0,0,0,0,.9-.7,1.8-1.3,2.6-1.6.2,0,.4-.2.5-.4.2,0,.4,0,.7-.2.3-.2.4-.4.6-.6,0,0,0-.1,0-.1.1,0,.3-.2.4-.2,0,0,.2-.1.2-.1.4-.1.8-.5,1.1-.9.3-.3.6-.6.8-.6,0,0,.2,0,.2-.1.2-.2.3-.4.4-.5,0,0,0-.1.1-.2,0,0,0,0,0,0,0,0,0,0,0,0,.2-.1.4-.3.6-.6,0,0,0-.1.1-.2.2-.3.5-.6.6-1,0,0,0,0,0,0,.1-.1.4-.3.5-.6,0,0,0-.1,0-.2,0-.4.3-.9.5-1.4.3-.6.7-1.3.7-2.1,0,0,0,0,0,0,.1-.2.3-.4.3-.9,0-.2,0-.3,0-.5,0,0,0,0,0-.1,0,0,0,0,0,0,.2-.2.4-.4.4-.9,0,0,0,0,0,0,0-.1,0-.3,0-.5,0-.2,0-.4,0-.6.3-.8.6-1.8.2-2.8.1-.6.1-1.2,0-1.8,0,0,0-.2.1-.2.1-.2.2-.5.3-.8,0,0,0,0,0-.1,0-.3-.1-.6-.2-.8,0-.1,0-.2,0-.3,0-.3,0-.5,0-.7,0-.4,0-.6-.3-.9,0-.1,0-.3,0-.5,0-.2-.1-.3-.2-.4,0-.6-.3-1.2-.5-1.7,0-.2-.1-.3-.2-.5-.1-.5-.5-.8-.7-1.1-.2-.2-.3-.3-.4-.5-.2-1-.8-1.7-1.4-2.4-.4-.4-.7-.8-.9-1.2-.2-.3-.5-.6-.7-.8-.1-.1-.3-.3-.3-.3-.1-.3-.3-.4-.4-.4-.2-.2-.4-.4-.6-.5-.3-.4-.8-.5-1.1-.5,0,0-.2,0-.2,0,0,0-.2,0-.4,0-.3,0-.5,0-.6.2-.2-.1-.4-.2-.6-.3-.2,0-.4-.1-.6-.1s-.2,0-.3,0c0,0-.1,0-.2,0,0,0-.1,0-.2,0-.2-.1-.4-.3-.7-.3-.1,0-.2,0-.3,0-.2,0-.3,0-.4,0,0,0-.1,0-.2-.1-.3-.1-.6-.2-.8-.2,0,0-.2,0-.2,0,0,0,0,0-.1,0-.2,0-.4,0-.6-.2-.3-.1-.6-.2-1-.2,0,0,0,0-.1,0h0ZM113.1,66.7c0,0,.2,0,.3,0,.1,0,.2,0,.4,0,0,0,.2,0,.2,0,0,0,0,0,0,0,0,0,0,0,0,0,.1,0,.3.2.6.2,0,0,0,0,0,0s0,0,0,0h.1c.1,0,.3,0,.4,0,.3,0,.5,0,.7.1,0,0,.2.1.3.1.3,0,.3,0,.5.1.1,0,.3.1.4.2,0,0,.2,0,.2,0s.1,0,.2,0c0,0,0,0,0,0,.2,0,.4,0,.6.2.3,0,.6.2.9.2.2.2.5.4.9.5.1,0,.2,0,.3.1,0,0,0,0,.1,0,0,0,.1,0,.2,0,.3.4.6.8,1,1.1.2.2.5.4.7.7.1.1.2.2.3.3.2.2.3.4.5.5,0,0,0,0,0,0,0,.3,0,.7.3,1,.1.2.3.4.4.5,0,0,.1,0,.2.1,0,0,0,0,0,0,0,.1,0,.3.1.5.1.2.3.4.4.5,0,0,0,0,0,0,0,0,0,0,0,0,0,0,0,.2,0,.3,0,0,0,.1,0,.2,0,0,0,.1,0,.2.2.3.3.5.3.9,0,.3,0,.6,0,.8,0,0,0,.2,0,.3,0,.2.1.3.2.4-.1.5-.1.9-.1,1.1,0,0,0,0,0,0,.1,1.2,0,2.6-.1,3.9,0,.6-.1,1.2-.1,1.7,0,0,0,0,0,.1,0,.3,0,.4-.1.6,0,0,0,.1,0,.2,0,.1,0,.3,0,.4,0,.2,0,.4,0,.5,0,0,0,0,0,.1,0,.2,0,.3,0,.5-.1.1-.3.3-.4.5-.2.4-.3.8-.4,1.2,0,0,0,.2,0,.3-.1.2-.3.4-.4.6-.6.8-1.1,1.7-1.8,2.1-.2,0-.3.2-.4.3-.4.2-.7.5-1,.8-.2.2-.4.4-.6.5,0,0,0,0,0,0,0,0,0,0-.1,0-.2,0-.4,0-.6.3-.1.1-.2.3-.3.4,0,0,0,0,0,0,0,0-.2,0-.2,0-.2,0-.5.1-.7.3-.3.2-.6.4-.8.5-.6.4-1.2.8-1.8.9,0,0-.1,0-.2,0-.2,0-.3.2-.4.2,0,0,0,0,0,0,0,0,0,0-.1,0-.5,0-.9.2-1.2.4-.1,0-.3.2-.4.2-.1,0-.5,0-.7.1-.2,0-.3,0-.5,0-.3,0-.7,0-1.1,0-.2,0-.5,0-.7,0,0,0,0,0,0,0,0,0,0,0,0,0-.1,0-.3-.2-.6-.2,0,0,0,0,0,0h0c-.3,0-.5.1-.6.2,0,0,0,0,0,0-.1,0-.3,0-.4,0s0,0-.1,0c0,0,0,0,0,0,0,0-.2,0-.2-.1,0,0,0,0-.1,0h-.2c-.2,0-.5-.1-.7-.2,0,0,0,0,0,0,0,0-.2-.2-.4-.3-.1,0-.3-.1-.4-.1s-.3,0-.4,0c0,0,0,0,0,0h-.4c-1.3-.6-2.7-1.1-3.5-2.1,0,0-.1-.1-.2-.1-.4-.2-.6-.4-.7-.7-.3-.7-.7-.9-1.1-1.1,0,0-.2,0-.3-.1-.1-.1-.3-.3-.4-.4h-.1c0-.1,0-.1,0-.1,0-.1,0-.4-.3-.6-.2-.1-.3-.2-.4-.2,0,0,0,0,0,0,0,0,0-.1-.2-.2,0,0,0-.1-.1-.2-.1-.2-.4-.4-.5-.5,0,0,0,0,0,0,0-.1-.2-.2-.3-.3,0,0,0,0,0,0,0-.7-.6-1.3-.9-1.7-.3-.3-.5-.6-.6-.8,0-.6-.2-1.4-.8-2.2,0,0,0,0-.1-.1-.3-.2-.5-.8-.6-1.3,0-.2-.1-.3-.2-.5h0c0-.2,0-.4-.1-.6,0-.3-.2-.8-.5-1.3.2,0,.4-.2.5-.3.5-.3.5-.7.4-.9.3-.6.5-1.2.5-1.7,0,0,0,0,0,0,.2-.4.2-.5.2-.9.2-.6.3-1.2.3-1.6,0-.2.1-.4.2-.6,0-.3.1-.5.3-.7,0,0,0-.1,0-.2,0-.2,0-.3,0-.5,0,0,0,0,0,0,0,0,.2-.2.3-.3.3-.3.7-.6,1-.8.2-.1.5-.2.7-.3.4-.1.8-.3,1.2-.5,0,0,.1,0,.2,0,.1,0,.3,0,.4,0,0,0,0,0,.1,0,.2-.1.4-.3.5-.4.2-.1.3-.3.5-.4,0,0,0,0,0,0,.3-.2.6-.3,1-.4,0,0,.1,0,.2,0,.3-.1.4-.2.6-.2h.2c0,0,.1,0,.2-.1,0,0,.2-.1.2-.2,0,0,0,0,0,0,.1,0,.3,0,.4,0,.3,0,.5,0,.7,0h0c0,0,.1,0,.2,0,0,0,.2,0,.2,0,.3,0,.5,0,.7-.2.2-.1.4-.2.6-.3.2-.1.5-.2.7-.3,0,0,.2,0,.3,0,.3,0,.6,0,1-.3,0,0,0,0,0,0,.3-.2.7-.2,1.1-.3,0,0,0,0,.1,0,.2,0,.3-.1.4-.2,0,0,0,0,0,0,0,0,0,0,0,0,0,0,0,0,0,0,0,0,.2,0,.4,0s.2,0,.3,0c.5,0,.9-.2,1.3-.3.1,0,.3-.1.4-.1.1,0,.2,0,.3,0,0,0,.2,0,.3,0s.2,0,.3,0c.1,0,.3,0,.4,0,.2,0,.4,0,.5-.1,0,0,0,0,.1,0h0Z"/>
    </g>
    <g>
      <path class="st3" d="M89.3,81.7c-.2,0-.3-.2-.4-.4h0c0-.2,0-.2-.2-.2,0,0,0,0-.1,0-.2,0-.2-.2-.3-.3h0c-.2.1-.3.2-.5.2s-.4,0-.5-.3c0,0,0,0,0,0-.1,0-.3,0-.4.1,0,0-.2,0-.3,0-.2,0-.3-.2-.4-.3,0,0,0,0,0,0,0,0-.1,0-.2,0-.1-.1-.2-.2-.3-.2s0,0-.1,0c-.2,0-.3,0-.3,0-.2,0-.3,0-.4.2,0,0,0,0-.1,0h0s-.1.1-.2.1,0,0-.1,0h0s0,0-.1,0c0,0-.2.1-.3.1,0,0,0,0,0,0,0,0-.1,0-.2,0h0c-.2,0-.3-.2-.4-.3,0,0,0,0,0,0,0,0,0,0,0,0,0,0-.1.1-.2.1s0,0,0,0c0,0-.2.1-.3.2,0,0-.1,0-.1,0,0,0-.2,0-.2,0,0,0,0,0-.1,0s-.1,0-.2,0c0,0,0,0-.1,0,0,0-.1,0-.1,0,0,.1-.2.2-.3.2s-.1,0-.1,0c-.1-.1-.1-.2-.2-.3,0,0,0,0,0-.1-.2,0-.4.2-.6.2s0,0-.1,0c-.2.2-.3.3-.6.3h0s-.1,0-.2,0c-.1,0-.3,0-.4,0,0,0,0,0,0,0-.1.2-.4.2-.5.2,0,0,0,0,0,0,0,0,0,.2-.1.2,0,0-.1,0-.2,0,0,0,0,0-.1.2,0,0,0,0,0,0,0,0-.1,0-.2,0,0,0-.2,0-.3-.1-.2-.3-.5-1-.5-1.1-.5-1.3-.3-1.5-.3-1.6,0,0,0,0,.2-.1,0,0,.1,0,.1,0,0,0,0,0,.1,0,0,0,0,0,.1,0h0c0-.2,0-.3.2-.4,0,0,.2,0,.3,0s.2,0,.2,0c0,0,.1,0,.2,0,0,0,.2-.1.3-.2,0,0,.1,0,.2,0,.2,0,.4,0,.5.2,0,0,.1,0,.1,0s.2.3.2.3v-.2c.2-.2.4-.4.7-.4,0-.1.2-.2.3-.3,0,0,.1,0,.2,0,.2,0,.4.2.5.3,0,0,0,0,0,.1,0,0,.2,0,.3,0,0,0,.1,0,.2,0,.2,0,.2,0,.3,0h0c0,0,.1,0,.2,0,0,0,.1,0,.2,0,0,0,0,0,0,0,.1,0,.2,0,.3,0,.1-.2.2-.3.5-.3,0,0,0,0,0,0,0,0,.2,0,.3,0s0,0,.1,0c.2.2.5.3.6.3.3-.2.7-.2,1-.3.2,0,.2,0,.3,0,0,0,0,0,.2,0,.1,0,.3,0,.4.1,0,0,0,0,.2,0s.2,0,.3.1c0,0,.1.1.2.2,0,0,.2.2.3.3,0,0,0,.1,0,.2.1-.1.3-.2.5-.2s0,0,.1,0c0,0,0,0,.1,0,0,0,.2,0,.3,0,0,0,.1,0,.1,0,0,0,.1.1.1.2h0s0,0,0,0c0,0,0,0,.1,0,.1,0,.2,0,.4,0,0,0,.1,0,.2,0,0,0,.1,0,.2,0,.1,0,.2,0,.4.1,0,0,0,0,.1,0,0,0,.1,0,.2,0,.2.1.3.3.4.4,0,0,0,0,0,0,0,0,.2.1.2.3,0,.5-.5,1.7-.8,2.2-.1.2-.2.2-.3.2Z"/>
      <path class="st5" d="M80.5,77.6c.2,0,.3.2.4.3.1.1.4.1.6.1.1,0,.2.1.4.1s0,0,.1,0c0,0,0,0,0,0,0,0,.1.2.2.2s0,0,0,0c0,0,0-.1.2-.2.1,0,.2,0,.3,0,.1-.2.1-.2.3-.2.1,0,.2-.1.3-.1s0,0,0,0c.2.1.5.3.7.3s0,0,0,0c.3-.2.6-.3,1-.3.1,0,.2,0,.2,0s0,0,0,0c0,0,0,0,0,0,.1,0,.3.1.4.1,0,0,0,0,.1,0s0,0,0,0c0,.1.3.3.4.4.1.2.1.4.2.4s0,0,0,0c.2-.1.4-.3.6-.3s0,0,.1,0c0,0,0,0,.1,0,0,0,.1,0,.3,0,0,0,.2.3.2.3s0,0,0,0c0,0,0,0,0,0,.1,0,.4-.1.5-.1s0,0,0,0c.2.1.4,0,.6.2,0,0,0,0,.1,0s0,0,0,0,0,0,.1,0c.2.1.3.4.3.4,0,0,.1,0,.1.2,0,.4-.5,1.5-.7,2,0,0,0,0,0,0,0,0-.2-.2-.3-.4,0-.2-.3-.2-.4-.3-.2,0-.2-.3-.4-.3s0,0,0,0c-.2.1-.4.2-.5.2s-.2,0-.4-.2c0,0-.1,0-.2,0-.2,0-.4,0-.5.2,0,0,0,0-.1,0-.1,0-.2-.3-.3-.4,0,0-.1,0-.2,0-.1-.1-.3-.2-.5-.2s0,0-.1,0c-.1,0-.2-.1-.3-.1s0,0,0,0c-.2,0-.3.1-.5.3,0,0,0,0,0,0,0,0-.1.1-.2.1s0,0,0,0c0,0,0,0-.1,0-.1,0-.3.2-.4.2s0,0,0,0c0,0-.2,0-.3.2,0,0,0,0,0,0,0,0-.2-.5-.4-.5,0,0-.1,0-.2.2,0,0,0,0,0,0s0,0,0,0c0,.1-.2.2-.3.2,0,0,0,0,0,0,0,0-.1,0-.2,0,0,0,0,0,0,0,0,0,0,0,0,0-.1,0-.2,0-.3,0s-.2,0-.3.1c0,0-.1.2-.2.2s0,0,0,0c0,0-.2-.6-.3-.6,0,0,0,0,0,0-.2.1-.5.2-.7.2s0,0,0,0c0,0,0,0-.1,0s0,0,0,0c-.2.2-.2.3-.5.3-.1,0-.3-.1-.5-.1s-.2,0-.3.1c0,.1-.2.1-.3.1,0,0,0,0-.1,0s0,0,0,0c0,0,0,0,0,0,0,0,0,.2,0,.3-.3.1-.3,0-.4.4,0,0,0,0,0,0s0,0,0,0c-.2-.2-.5-.9-.5-1-.1-.4-.5-1.2-.3-1.4h0c0,0,.2,0,.3,0s.1,0,.2,0c.2,0,0-.3.2-.4,0,0,0,0,.1,0,0,0,.2,0,.3,0s0,0,.1,0c.1,0,.3-.2.5-.3,0,0,0,0,0,0,.1,0,.3,0,.4.1,0,0,0,0,.1,0s0,0,.1,0c0,0,.1,0,.2,0s.1,0,.2,0c.2-.2.3-.3.6-.4.1,0,.2-.2.4-.3,0,0,0,0,0,0M80.5,77.1c0,0-.1,0-.2,0-.2,0-.3.2-.4.3-.3,0-.5.2-.6.4h0s0,0,0,0c0,0,0,0-.1,0-.1,0-.3-.2-.5-.2s-.1,0-.2,0c0,0,0,0,0,0-.1,0-.3.1-.4.2,0,0,0,0,0,0,0,0,0,0,0,0,0,0-.1,0-.2,0-.2,0-.3,0-.4.1-.2.1-.2.3-.3.4,0,0,0,0-.1,0,0,0,0,0,0,0,0,0,0,0,0,0h0c-.1,0-.2.1-.3.2-.2.2-.2.6.3,1.9h0s.3.8.6,1.1c.1.2.3.2.4.2.2,0,.3,0,.3-.1,0,0,.1-.1.1-.2,0,0,0,0,0,0,0,0,.1,0,.2,0,0,0,.2-.1.2-.2.1,0,.4,0,.5-.3,0,0,.2,0,.3,0h0c0,0,.1,0,.2,0s0,0,0,0c.3,0,.5-.1.7-.3,0,0,0,0,0,0,.2,0,.3,0,.5,0,0,0,0,.2.1.3,0,0,0,0,.1.1,0,0,.2,0,.3,0,.3,0,.4-.2.5-.3,0,0,0,0,0,0,0,0,0,0,0,0,0,0,.2,0,.2,0s0,0,0,0c0,0,.2,0,.3,0s.2,0,.2,0c0,0,.2,0,.3-.1,0,0,0,0,.1,0,0,.1.2.3.5.3s.3,0,.4-.2c0,0,0,0,0,0,0,0,.2,0,.2-.1,0,0,0,0,0,0,0,0,0,0,0,0,.2,0,.3,0,.4-.1,0,0,0,0,0,0,.1,0,.2-.1.2-.1,0,0,.2,0,.3,0,0,0,0,0,0,0s0,0,0,0c0,0,0,0,0,0,0,0,0,0,.1,0,0,0,0,0,0,0,0,0,.1,0,.2,0,0,0,0,0,0,0,0,.1.2.5.6.5s.3,0,.4-.2c0,0,.1,0,.2,0,.2.2.4.3.6.3s.4,0,.5-.1c0,0,.1.1.3.2,0,0,0,0,0,0,0,0,0,0,.1,0h0c.1.3.3.6.6.6s.3,0,.5-.3c.3-.5.8-1.7.8-2.3,0-.3-.2-.5-.3-.5,0,0,0,0,0,0,0-.2-.2-.4-.5-.5s0,0,0,0c0,0-.2,0-.3,0h0c-.2,0-.3-.1-.4-.1,0,0-.1,0-.2,0,0,0-.1,0-.2,0,0,0,0,0,0,0-.1,0-.3,0-.4,0,0,0,0,0,0-.1,0,0-.1,0-.2-.1-.2,0-.3,0-.4,0s0,0,0,0c0,0-.1,0-.2,0-.2,0-.3,0-.4.1-.1-.1-.2-.2-.3-.3,0,0,0,0-.1,0,0,0,0,0,0,0-.2-.2-.3-.2-.4-.2s-.1,0-.2,0c-.1,0-.2,0-.4,0s-.1,0-.2,0c0,0,0,0-.1,0,0,0,0,0,0,0s0,0,0,0c-.3,0-.7.1-1,.3,0,0-.2,0-.4-.2,0,0,0,0,0,0,0,0-.2,0-.2,0-.2,0-.3,0-.4,0,0,0,0,0,0,0-.2,0-.4.1-.5.3,0,0-.2,0-.3,0,0,0-.1,0-.2,0s-.1,0-.2,0c0,0,0,0-.1,0,0,0,0,0-.1,0,0,0-.1,0-.2,0,0,0,0,0-.1,0,0,0,0,0,0,0-.1-.1-.3-.4-.6-.4h0Z"/>
    </g>
  </g>
  <g id="Libro_1">
    <path class="st9" d="M128,185.1c0-.3.2-.6,0-.6-.2.1-.8-.6-.8-.8,0,0,0,0-.2-.1-.2-.2-.6-.4-.8-.7-.1-.5-.3-1.2-.6-1.6-.2-.3-.2-.8-.3-1.2-.2-.4-.5-.8-.4-1.3-.2-.9-.7-1.9-1.5-2.4-.9-.6-2-.4-2.8-.4-.4,0-.8-.2-1.3-.2-.4,0-.9,0-1.2,0-.3,0-.5-.1-.7,0-.6.4-1.2,0-1.9,0-1.9.3-2.9,0-4.6.5-1,.3-2.1,0-3.1,0-.8,0-1.5,0-2.3.3-1,0-2,.1-2.9.4-.3,0-.5,0-.8,0-.4,0-.8.2-1.2.2-1.7,0-3.4,0-5.1.7-2,.5-3.9,1.3-5.8,1.9-1.1.4-2.5,0-3.4.8-.8.5,0,2.1.7,2,.7-.2,1.6,0,2.4-.3.3-.1.7-.1,1.1-.2,1.6-.5,3.1-1.3,4.6-1.7.7-.4,1.1-.6,1.9-.5,1.1-.2,2.3-.4,3.5-.3,1.1-.1,2.2,0,3.2-.4,1.3-.4,2.5-.2,3.7-.5.4-.1.8.1,1.2.1.5,0,.9.1,1.4,0,.9-.2,2-.4,3-.4,1.2-.2,2.5-.3,3.8,0,.6,0,1.1-.1,1.7-.1.3,0,.7.1,1,.1.8.2,1.7-.1,2.4.2.8.7.8,1.8,1.1,2.7,0,.4.3.7.4,1.1,0,.5.4,1.1.6,1.5-.9,0-2.2,0-3.1-.2-1,0-1.7-.2-2.6.2-.4.2-.7,0-1.2-.1-.8,0-1.7,0-2.5-.2-.7.1-1.5.2-2.2.1-.4,0-.8,0-1.1.1-.6,0-.9,0-1.5.1-.7,0-1.5-.3-2.3-.2-.8-.1-1.7-.2-2.5,0-.4.2-.8.2-1.2.1-.5,0-1.1.4-1.7.4-2.4-.3-5,.3-7.3.9-.8.3-1.8.1-2.4.5-1.4.4-2.9.9-4.2,1.5-.4.3-.8.9-.8,1.4.6,1.7,2.4.3,3.6,0,2.1-.8,4-.6,6.2-1,1.1-.5,2.5-.4,3.7-.7.4,0,.8,0,1.2,0,1-.1,1.9-.5,3-.4,1,0,1.9,0,2.9,0,.8.2,1.6.2,2.4.2,2.5,0,5.3-.3,7.7.3,1,0,2.1-.5,3.1-.3.5,0,1-.1,1.4,0,.7.3,1.7,0,2.4-.2.7-.2.4.7.5,1.2,0,.7,0,1.4.1,2.1,0,.4-.3.8-.3,1.2,0,.4,0,.7.1,1.1,0,.4-.1.7-.2,1.1.1.5.1,1.1,0,1.6,0,.5,0,1-.1,1.5-.2.5-.2.9-.2,1.3,0,.2.1.4,0,.6-.2.5-.5,1-.5,1.6-.7,3.4-1,6.8-1,10.2-.4.9-.3,1.8-.3,2.7-.2,1.3-.4,2.7-.5,3.9-.6,1.4-.5,2.9-1,4.4,0,.3,0,.6,0,.8,0,.5-.4,1.1-.4,1.8,0,1.1,0,2.4-.4,3.5,0,.6-.1,1.1-.4,1.6-.5.4-1.2.2-1.8.2-1.1,0-2,0-3-.2-1.1.3-2.2,0-3.3,0-.4,0-.7-.2-1-.2-2.5.5-5.3.3-7.8.2-1-.4-1.9,0-2.9,0-.4,0-.9,0-1.3,0-1,.3-2,.3-2.9.6-1.5-.2-2.9.8-4.4,1-1.1,0-1.9,1-2.9,1.2-1.4.4-2.6-.2-4,.1-.6.2-.5,1-.6,1.4,0,.8.3.9,1,1,.4,0,.7.1,1,0,.5-.1.9-.1,1.4,0,.4,0,.7-.2.9-.2,1.3.2,2.4-1,3.7-1.2.4,0,.7-.2,1-.4.5,0,.9-.2,1.3-.4.7-.2,1.6-.3,2.3-.2.4-.1.8-.5,1.3-.5,1.2,0,2.6.2,3.8-.2.7-.2,1.3.3,1.8.3,2.5,0,5.2-.1,7.7,0,.6,0,1,0,1.6,0,.4-.1.7,0,1.1,0,2.2,0,4.6,0,6.8-.4.7-.1,1.1-.6,1.2-1.3.2-.5.5-1,.6-1.6.2-.9.2-1,.6-1.6-.4-1.5,0-3.2.3-4.7.3-.5.2-1,.2-1.6,0-.3.2-.7.2-.9.3-.6.2-1.7.5-2.4.2-.6,0-.8.3-1.6.1-.6.1-1.2.2-1.7.3-.8,0-1.7.2-2.5.1-.6.2-1.4.1-2,.1-.5.1-.9,0-1.5,0-.2,0-.4.2-.6.2-.6-.1-1.3,0-1.8.3-.8.6-1.8.4-2.7,0-.6.3-1.3.3-1.9,0-.4.5-.8.6-1.3,0-1.1.3-1.8.3-2.8.2-1.6.6-3.2.3-4.9,0-1,.4-2,.2-3-.2-1.1.2-2.2,0-3.1h0ZM88.3,210.9c.1.3.2.9.3,1.3-.2.8-.4,1.4-.3,2.2-.2,1.8.2,3.6.1,5.4,0,.3-.1.6-.2.8.4,1.4,0,3.2.2,4.7.2.4.5.9,1,.9.3,0,.8-.1.9-.3.4-.5.4-1.3.3-2,0-1.3,0-2.6.3-3.8,0-.7.2-1.6.3-2.4-.1-1.1-.3-2.2-.2-3.3,0-.3,0-.6-.1-.8,0-.2.2-.5.1-.8-.3-1.8-.2-3.5-.1-5.3,0-.4.2-.9.3-1.3,0-.4,0-.9,0-1.3,0-2.2-.2-4.8.4-6.9,0-.2-.1-.4-.2-.6,0-.4-.1-.8-.2-1.1-.1-.5,0-1,0-1.5,0-.2-.2-.5-.2-.7,0-.2.1-.3.2-.6,0-.5-.3-1.2-.4-1.6,0-.3-.3-.6-.6-.8-.4-.2-1.2.1-1.4.5-.6,1,0,2.5-.4,3.7,0,.3,0,.6,0,.9,0,.2-.2.4,0,.6,0,.5.2.8.4,1.2-.3.7-.3,1.6-.3,2.3,0,.2-.2.5-.2.6.3.6.2,1.4.1,2.2,0,.5.3,1,0,1.5,0,.3.2.5.1.9,0,.4-.2.7-.3,1.1,0,.7-.2,1.2-.3,1.9,0,.4,0,.8,0,1.1,0,.3.2.5.2.8,0,.2-.1.3-.2.4h0ZM90.5,184.9c.4-.2,1.1-.3,1.4-.6.2,0,.5-.1.8-.1.5-.2.7-.3,1.2-.4.4-.1.7,0,1.2-.1.2-.1.3,0,.4,0,0,0,.1-.1.3-.1.7,0,1.6-.3,2.4-.3.4,0,1,0,1.3-.1.3-.1.3-.6,0-.7-1.3,0-1.8-.2-3,0-.7,0-1.3.3-2,.4-.3,0-.6,0-.9.1-.6.1-1.1.4-1.7.5-.2,0-.3.2-.5.3-.1.1-.4.2-.6.3-.2,0-.5,0-.7.5,0,.2.4.5.4.4h0Z"/>
    <path class="st4" d="M116.6,203.8c-6.4,1.7-12.9,3.2-19.5,4.5-.3,0-.6.3-.7.6-.2.5,0,1.1.6,1.4.6.2,1.2,0,1.8-.2.4,0,1.1-.3,1.5-.2.3,1.3.1,3.1.6,4.4.8,4.3,6,4.2,6.7,0,.3-1.8,0-3.7-.4-5.5,0-.2,0-.3.1-.4,3.4-1,7.2-1.4,10.4-2.8.6-.7,0-1.9-1-1.7h-.2ZM105.7,212.7c0,.6,0,1.3-.3,1.8,0,.2-.2.4-.3.5-.1.1-.3.3-.4.3-.4.1-.7,0-1-.2-.4-.3-.6-.9-.7-1.4-.3-1.4-.4-2.9-.4-4.3.8-.2,1.7-.4,2.5-.6.4,1.3.6,2.5.6,3.9ZM100,202.4c.2.3.5.6.8.8.7.5,1.7.5,2.3-.1.7-.7.5-1.7.3-2.5-.1-.6-.3-1.3-.6-1.8-.2-.4-.6-.7-1-.9-.5-.2-1.1,0-1.4.4-.4.4-.6.9-.7,1.5,0,.5-.1,1,0,1.5,0,.4,0,.8.3,1.1ZM110.3,201.7c.5.3,1.1.3,1.6,0,.4-.3.7-.7.8-1.2.1-.4.2-.8.2-1.2,0-.3,0-.7,0-1,0-.5-.1-1-.4-1.4-.2-.3-.4-.5-.6-.6-.1,0-.3-.1-.4-.2-.4,0-.8,0-1.1.2-.9.5-1.3,1.7-1.3,2.7,0,1,.3,2.2,1.2,2.7Z"/>
    <path class="st9" d="M87.3,182.8c0-.1-.4-.4-.4-.6,0-.1-.1-.3-.1-.3,0,0,.1-.1,0-.2-.3-.4-1-.4-1.6-.5,0-.1,0-.7,0-.9-.1-.2-.4-.3-.6-.4-.2,0-.6-.3-.9-.3-.5,0-1.1-.3-1.6-.3-.3,0-.4-.3-.8-.4-1-.2-2.2-.2-3.1-.8-.2-.1-.6,0-.8,0-.2,0-.4-.3-.6-.3-.8.1-1.7-.1-2.5-.3-.2,0-.4-.3-.6-.3-.4,0-.9.3-1.4.2-1.2-.4-2.5-.7-3.8-.4-.6.2-1.1-.3-1.6-.5-2.2-.3-4.6.1-6.7-.3-.3,0-.6.2-.9,0-.3,0-.5.2-.8.2-.1,0-.3,0-.4,0-.3,0-.6,0-.9.1-1.3-.3-3,0-4.3,0-1.1.4-2.3.2-3.3,1-.3.2-.4.6-.5,1-.4.4-.7.5-.9,1.1-.1.2-.2.4-.4.6-.1.1-.4.1-.5.3,0,1.1-.6,2.2-1.2,3.1-.2.3-.5.5-.5.9-.1.2-.5.2-.6.5-.1.2-.3.4-.3.6,0,1.2-.5,2.2-.4,3.4,0,.3-.1.7-.2.9,0,.3,0,.5,0,.8-.2.7-.1,1.7,0,2.3-.3.6.1.9.2,1.6.1.9,0,2,.5,2.8,0,.2,0,.5,0,.8.1.3.4.5.4.7,0,.3-.2.6,0,.8.2.4.5.9.6,1.3,0,.4,0,.6,0,1,0,.5.2,1.1.4,1.5,0,.4,0,.9.1,1.5.2.5-.1.9-.2,1.4.2.8.3,1.5.2,2.3,0,.2.2.3.2.5,0,.1-.1.3-.1.4,0,.2.2.4.1.6-.2.6,0,1.3,0,2,0,.6.3,1.2.4,1.7-.3,1.6.2,3.2-.2,4.8.1.9-.4,1.9,0,2.8,0,.1,0,.3.1.4.1.2.5.3.5.5-.1.5,0,1.3.3,1.8,0,.3,0,.7,0,1,0,.3.3.5.3.7-.2.9.1,2,.3,3,.1.3.2.6.5.8.9.9,2.1.2,3.2.6.8.1,1.2.1,2,0,.1,0,.3.1.4,0,.2,0,.4-.3.6-.3.4,0,.8.2,1.2.2.5,0,1-.3,1.5-.2.7,0,1.3,0,1.9,0,.3,0,.5-.2.7-.3.2,0,.3,0,.5,0,.6-.3,1.4.1,2,.1,1,0,2.1.1,3-.1.3,0,.7.2,1,0,.6,0,.9,0,1.5-.2.5.2,1.1.4,1.7.2.4,0,.7.2,1.1.2.6,0,1,.3,1.4.4,1.8.1,3.9.1,5.7.4.6,0,1.1.6,1.7.8.9.2,1.6.8,2.6,1.1.3,0,.6,0,.9,0,.9,0,.9-1.6.6-2-.1-.2-.3-.1-.4-.2-.5-.3-1-.6-1.6-.8-.3,0-.5,0-.7-.3-.2-.2-.6-.2-.9-.4-1-.7-2.4-.8-3.6-.8-.7-.2-1.3,0-2,0-1.2-.5-2.6-.3-3.9-.7-.8-.2-1.6,0-2.4-.3-1.1.1-2.2.4-3.3.3-.5,0-.7,0-1.1,0-.3,0-.5.2-.7.2-.2,0-.4-.2-.6-.2-.5,0-1.1,0-1.5-.2-1.1.1-1.7.4-2.8.3-.7,0-1.4.2-2.1.2-.8.2-1.1-.1-2.1,0-.5,0-.9.3-1.3.2-.5-.1-.6-.1-1.1,0-.2,0-.3-.2-.4-.1-.3.1-.7.2-1,0-.3-.2,0-.6-.2-.8-.1-.2,0-.5-.2-.7-.1-.2,0-.5,0-.8,0-.3,0-.7,0-1-.3-.7-.2-1.7-.6-2.4,0-.2,0-.3,0-.6,0-.5-.2-1.1-.3-1.6,0-.6.2-.8.1-1.4,0-1.1-.1-2.4-.3-3.3,0-.2.3-.6.3-.8,0-.7-.5-1.4-.2-2,.1-.4-.3-.6-.3-1,0-.3,0-.6,0-.8-.1-.5-.2-1.5-.1-2-.1-.4-.1-.2,0-.7,0-.2-.4-.3-.3-.5.5-1.6-.2-3.5-.3-5.2-.3-2-1-3.6-1.3-5.5-.3-.4-.2-.6,0-1,0-.6-.2-1.2-.3-1.8,0-1.5-.3-3.2,0-4.5,0-.3,0-.4,0-.7,0-.6,0-1.6.2-1.9,0-.1.3,0,.5.1.8.2,1.7,0,2.5,0,.8-.2,1.6.2,2.4,0,.3,0,.4.2.7,0,.2,0,.4-.1.7-.2.2,0,.4-.3.6-.3.3,0,.5.2.9.2.8,0,1.7,0,2.4.2,1.1-.4,2.4,0,3.5-.3.5.1.6,0,1.1,0,.8,0,1.6.4,2.5.3,1.1.3,2.1.4,3.2,0,.2,0,.3.2.4.2.1,0,.2,0,.4,0,.2,0,.4,0,.7,0,.7-.3,1.4.3,2.2.3.6,0,1.1.1,1.7.2.9-.1,1.7.2,2.6.2,1,0,2.2.1,3,.6,1.5,0,3,.8,4.4,1.3.5.2,1.1,0,1.5-.2.1,0,.2-.2.4-.2.5,0,1.4.2,1.8,0,.3,0,.2-.5.3-.8.1-.4.4-.7.4-.9,0-.2-.2-.5-.2-.7-.1-.2,0-.3,0-.5-.1-.2-.2-.5-.2-.7,0-.3.1-.5.2-.7.2-.5-.2-1.2.2-1.6h0ZM81.3,186.3c-.8-.2-1.8-.6-2.6-1-.9-.1-1.8-.6-2.7-.8-.8-.1-1.5.1-2.2,0-.7,0-1.6-.3-2.4-.1-1.3-.5-2.7,0-4.1-.1-1-.1-2-.1-2.9-.1-.4,0-.8-.2-1.1-.3-.5,0-1.1,0-1.6,0-2.4,0-5,.3-7.4-.1-.4,0-.7.1-1.1.2-.9.2-1.7.5-2.6.4-.4,0-.9.4-1.2.2-.9-.3-1.1.3-.6-.9.2-1.1,1.1-2,1.5-3,.1-.2.4-.4.5-.7.3-1.1,1.4-.8,2.4-.9.9,0,1.7-.2,2.5,0,.2,0,.4-.2.6-.2.5,0,.9,0,1.4,0,.4,0,.8,0,1.1,0,.3,0,.6.2.9.2,1.7-.5,3.7-.2,5.5-.2.4,0,.6.2.9.2.8-.1,1.5.3,2.3.4.3,0,.5-.2.8-.2h1.1c.3.1.4.2.6.3.2,0,.4,0,.6,0,.4,0,.9.2,1.4,0,.3,0,.8,0,1,0,.2,0,.4.3.6.3,1.1.2,2.4,0,3.4.8.8.4,1.6.3,2.4.5,1,.3,2.2.7,3.2,1.1.2,0,.5,0,.7.1.2,0,0,0,0,.2,0,0,.3.2.3.3,0,0-.2.2-.2.4,0,.2-.2.3,0,.5,0,.3.2.8.2.9-.1.3-.5.7-.2,1,0,.3,0,.2.2.5,0,.2-.2.5-.1.8,0,.3.2.6.2.8h0c-.7-.5-2.1-.9-3-1.3h-.1ZM83.7,198c0-.6-.4-1.4-.2-2,.1-.4,0-.9-.1-1.2,0-.3.2-.5.2-.9,0-.3-.2-.6-.3-.9-.2-1-.9-1.5-1.8-.9-.8.5-.5,1.5-.6,2.4.1.9-.3,1.6,0,2.5-.2.4,0,.7,0,1.1,0,.2.2.4.2.6-.3.6-.3,1.6-.3,2.3,0,.2-.2.4-.2.6.2.6.2,1.3.1,1.9,0,.4,0,.8.1,1.1,0,.3-.1.5,0,.7.2.5,0,1.1-.2,1.6,0,.3,0,.7,0,1-.2.8-.4,1.9,0,2.7,0,.2-.1.4,0,.6,0,.5.2.8.3,1.3-.2.8-.4,1.3-.2,2.2-.1.5,0,1,0,1.6,0,.6,0,1.1,0,1.7.1.9.2,1.9,0,2.7.4,1.4,0,3,.3,4.5.1.4.5.8.9,1,.4,0,1.2,0,1.3-.5.4-1.8-.2-3.7.4-5.4,0-.8.2-1.5.2-2.2,0-.7-.3-1.3-.2-2.2,0-.7,0-1.4,0-2,0-.2.2-.5.1-.8-.2-1.3-.3-2.7-.1-4,0-.7,0-1.5.3-2.2,0-2,.2-4.2.2-6.2,0-.5.1-1.2.3-1.6.1-.3,0-.5-.1-.7h0ZM81.9,184.2c-1.3-.5-2.6-1.2-3.9-1.6-2.2-.4-4.3-.3-6.5-.4-1.9-.3-3.8,0-5.7-.3-.8.1-1.5,0-2.3.1-.4,0-.6-.1-1,0-.3.1-1,0-1,.4,0,.2.2.4.5.4.7.1,1.4,0,2.1.1h.4c.3,0,.4,0,.6,0,.8-.1,1.6,0,2.5,0,.8,0,1.7,0,2.6,0,.5,0,.9.1,1.4.1.8.2,1.6,0,2.4,0,1.8,0,3.6.2,5.3.8.5.2.8.2,1.3.5.6.2,1.4.8,2.1.7.2,0,.2-.3,0-.5-.1-.1-.4-.3-.5-.4h-.1Z"/>
    <path class="st4" d="M56.1,195.8c-.5,0-.6-.9-.3-1.2.2-.3,1-.3,1.2-.4-.7-.4-.4-1.7.6-1.3.4.2.5.7.3,1.1,0,.1-.3.2-.3.3,2.1.1,2.2,2.7,1.8,4.4-.3,1.3-1.1,2.6-2.4,2-.5-.4-1.5-1.3-1-2,.6-.6,1.2.3,1.6.5.2-.1.4-.7.5-1.2.1-.8.4-1.7-.3-2.2-.5-.2-1,0-1.6,0h0ZM61.8,198.8c.3,0,.5-.1.7-.3.5-.5.6-1.1.6-2.2h0c0-.9,0-1.2-.3-1.4-.1-.1-.3-.2-.4-.2-.6,0-.7.8-.7,1.6,0,.1,0,.4,0,.6-.1-.3-.3-.7-.3-.9,0-.5-.2-1.1-.8-1.1s-.1,0-.3,0c-.5.2-.4.6-.4,1,0,.7.6,2.8,1.9,2.8ZM65.1,197.8c.3.2.4.3.6.4-.3,0-.6.1-1,.2-1.4.2-1.8.3-2,.7,0,.1-.1.3,0,.5.2.4.6.4.7.4.3,0,.7,0,1.6-.2,1.6-.2,2-.3,2.3-.9.2-.4.2-.6,0-1-.2-.4-.5-.6-1-1-.8-.5-1.2-.8-1.2-1s.2-.5.6-.7c0,0,0,0,0,0,.2.3.6.5,1,.2.2-.1.3-.4.4-.6,0-.3,0-.5-.3-.7-.1-.1-.4-.3-.8-.3s-1.2.3-1.6.7c-.5.5-.7.9-.7,1.5s.5,1.4,1.4,2ZM67.9,197.6c0,.3,0,.6.1.9.1.9.2,1.2.5,1.5.3.3.5.3,1.1.3s.3,0,.5,0c.9,0,1.3,0,1.5-.4.2-.3.1-.5,0-.6-.2-.3-.6-.4-1.5-.4-.3,0-.5,0-.7,0,0-.2,0-.4,0-.7v-.5c0,0,.4,0,.4,0,.7,0,1.2,0,1.4-.4,0-.1.2-.3,0-.6-.1-.4-.6-.4-1.4-.4h-.6v-.9c0-1.2,0-1.7-.4-1.9-.1,0-.3-.2-.6-.1-.5.1-.5.4-.5,1.9v1.1c-.2,0-.5.2-.6.4-.1.2,0,.5,0,.7.1.2.3.3.5.3ZM52.9,206.4c-.4,0-.9.1-1.3.3v-1.6c-.3-2.4-.4-2.5-.5-2.5-.3-.4-.9-.4-1.2.2-.2.2-.5.8,0,1.3,0,.2.1,1.2.2,1.9,0,1.1.1,1.7,0,1.9-.3.3-.4.6-.3.9,0,.2.2.3.3.4,0,0,0,.2,0,.3,0,.3,0,.5,0,.5,0,.2,0,.4,0,.5.1.2.3.4.6.4s.7-.1,1.5-.6c1.2-.6,2.6-1.5,2.2-2.8-.2-.7-.9-1.1-1.7-1.1ZM52.1,208.9c-.1,0-.3.1-.4.2,0,0,0-.2,0-.2v-.6s.3-.2.3-.2c.4-.2,1.1-.2,1.1-.2h0c0,.2-.3.6-1.1,1ZM57.3,209.3c.8,0,1.3,0,1.3-.7s-.4-.6-1.3-.7h-.2c0,0-.5-.6-.5-.6l.4-.4c1.1-1,1.5-1.5,1-2.5-.2-.4-.4-.6-.8-.6-.4,0-.7.2-1.1.6-.7.7-1.1,1.5-1.2,2.3,0,.6,0,.8.4,1.3.5.6,1,1,1.4,1.2.1,0,.2,0,.4,0s.1,0,.2,0ZM65.2,208.7c.2-.4.2-.6,0-1-.2-.4-.5-.6-1-1-.8-.5-1.2-.8-1.2-1s.2-.5.6-.7c0,0,0,0,0,0,.2.3.6.5,1,.2.2-.1.3-.4.4-.6,0-.3,0-.5-.3-.7-.1-.1-.4-.3-.8-.3s-1.2.3-1.6.7c-.5.5-.7.9-.7,1.5s.5,1.4,1.4,2c.3.2.4.3.6.4-.3,0-.6.1-1,.2-1.4.2-1.8.3-2,.7,0,.1-.1.3,0,.5.2.4.6.4.7.4.3,0,.7,0,1.6-.2,1.6-.2,2-.3,2.3-.9ZM65.4,204.2h0c0,0,.1,0,.2,0,.2,0,.4,0,.5-.2.2-.2.3-.4.3-.6,0-.5-.4-.8-1-.6-.3.1-.5.4-.5.7,0,.3.1.5.4.6ZM65.6,207.8c0,.5.2,1.2.3,1.5.1.8.2.9.2.9.1.2.3.3.6.3s0,0,0,0h0c.6,0,.5-.5.5-1,0-.4-.1-1.2-.3-1.8-.1-.6-.3-1.5-.3-2,0-.7,0-1.4-.7-1.4s-.4.1-.5.2c-.3.2-.3.6-.2,1.4,0,.6.1,1.4.3,1.9ZM69.2,208.6v-.2c-.2-1-.5-4.1-.5-4.5,0-.5-.2-.7-.6-.8-.5,0-.7.3-.8.4-.2.4.3,4.2.4,4.8,0,.4.2,1.1.3,1.4.2.4.7.4.8.4.3,0,.6,0,1-.2.5-.1.8-.2.9-.8v-.8c0,0-.9.1-.9.1-.2,0-.5,0-.7.1ZM74.5,209.1v-.8c0,0-.9.1-.9.1-.2,0-.5,0-.7.1v-.2c-.2-1-.5-4.1-.5-4.5,0-.5-.2-.7-.6-.8-.5,0-.7.3-.8.4-.2.4.3,4.2.4,4.8,0,.4.2,1.1.3,1.4.2.4.7.4.8.4.3,0,.6,0,1-.2.5-.1.8-.2.9-.8ZM77.4,207.5c-.1-1.1-.2-1.8-1-1.7-.5,0-.5.5-.5,1.1s0,.5,0,.5c0,0,0,0-.1-.2,0,0,0,0,0,0,.1-.2.1-.5,0-.7-.1-.3-.5-.6-.9-.6s-.1,0-.3,0c-.7.3-.4,1-.3,1.4.3,1.1,1.2,1.7,2,1.5,0,.2,0,.4,0,.6,0,.7,0,.9,0,.9l-.4-.2c-.5-.2-.8-.3-1-.3-.4,0-.6.2-.7.6,0,.5.3.7.9,1,.5.3,1,.4,1.3.4,1,0,1.2-1,1.3-1.3h0c.1-.6,0-1.3-.2-3.1ZM59.8,218.5c-.3,0-.5,0-.7,0,0-.2,0-.4,0-.7v-.5c0,0,.4,0,.4,0,.7,0,1.2,0,1.4-.4,0-.1.2-.3,0-.6-.1-.4-.6-.4-1.4-.4h-.6v-.9c0-1.2,0-1.7-.4-1.9-.1,0-.3-.2-.6-.1-.5.1-.5.4-.5,1.9v1.1c-.2,0-.5.2-.6.4-.1.2,0,.5,0,.7.1.2.3.3.5.3,0,.3,0,.6.1.9.1.9.2,1.2.5,1.5.3.3.5.3,1.1.3s.3,0,.5,0c.9,0,1.3,0,1.5-.4.2-.3.1-.5,0-.6-.2-.3-.6-.4-1.5-.4ZM61.3,212.6c-.3.1-.5.4-.5.7,0,.3.1.5.4.6h0c0,0,.1,0,.2,0,.2,0,.4,0,.5-.2.2-.2.3-.4.3-.6,0-.5-.4-.8-1-.6ZM62.5,215.5c0-.7,0-1.4-.7-1.4s-.4.1-.5.2c-.3.2-.3.6-.2,1.4,0,.6.1,1.4.3,1.9,0,.5.2,1.2.3,1.5.1.8.2.9.2.9.1.2.3.3.6.3s0,0,0,0h0c.6,0,.5-.5.5-1,0-.4-.1-1.2-.3-1.8-.1-.6-.3-1.5-.3-2ZM66.3,215.1c.2-.6,0-1-.4-1.4-.3-.2-.6-.3-1.2-.3s-.9,0-1.2.3c-.3.2-.4.5-.4.7,0,.1,0,.3.2.5,0,.2,0,.7,0,.9,0,.7.2,3,.4,3.4.1.2.3.3.6.3s.6-.2.7-.4c0-.2,0-.8,0-1.1v-.5c0,0,.1-.2.1-.2.4-.5,1.2-1.7,1.3-2.2ZM64.9,214.7s0,0,0,0c0,0,0,0,0,0h.4s-.4,0-.4,0ZM64.9,214.8c0,0,0,.2-.2.3v-.3h0s0,0,.1,0ZM69.2,216.5c-.8-.5-1.2-.8-1.2-1s.2-.5.6-.7c0,0,0,0,0,0,.2.3.6.5,1,.2.2-.1.3-.4.4-.6,0-.3,0-.5-.3-.7-.1-.1-.4-.3-.8-.3s-1.2.3-1.6.7c-.5.5-.7.9-.7,1.5s.5,1.4,1.4,2c.3.2.4.3.6.4-.3,0-.6.1-1,.2-1.4.2-1.8.3-2,.7,0,.1-.1.3,0,.5.2.4.6.4.7.4.3,0,.7,0,1.6-.2,1.6-.2,2-.3,2.3-.9.2-.4.2-.6,0-1-.2-.4-.5-.6-1-1Z"/>
  </g>
  <g id="Brazo_iz_2">
    <g>
      <path class="st0" d="M44.5,223.2"/>
      <path class="st7" d="M44.5,223.2"/>
    </g>
    <path class="st1" d="M43.6,223.3"/>
    <g>
      <path class="st9" d="M19.5,209.9c.6.6,1.2.2,1.7-.2.2-.2.6-.2.8-.5.1-.1.1-.4.3-.5.1-.1.4,0,.6-.1.4-.1.7-.2,1-.5.5-.2.9-.5,1.3-.8.4,0,1,0,1.5-.1.4,0,.4-.4.8-.5.1-.1.3-.3.6-.4.3,0,.8,0,1.1-.2,1.3-.7,2.8-.8,4.2-1.1,1.7-3-2-2-3.7-2.2-.4,0-1.8.8-2,.8-.4,0-.7.4-1.1.6-1.9.4-3.7,1.4-5.5,2-.6.7-.9,1.3-1.7,1.7-.5.5-.3,1.5.2,1.9h.1Z"/>
      <path class="st9" d="M48.7,224.3c-.3-.3-1.9-1.7-2.5-.9-.9.8-2.1,1.4-2.6,2.5-.6.3-1.3,1-1.7,1.6-.9.5-1.6,1.4-2.2,2.2-.8.4-1.8.6-2.6,1.2-1,.5-1.8,1.5-2.7,2.1-.3.2-.7,0-1.2,0-.9,0-1.7,0-2.6.3-.7.5-1.7.3-2.5.6-1.8.3-3.8.9-5.6.8-1.8-.2-3.2-1.6-5.2-1.7-.3-.1-.5-.5-.8-.6-.3-.2-.7-.3-1-.4-.3-.4-.6-.9-1-1.3-.5-1-1.4-1.9-1.7-3,0-.6,0-1.3-.3-1.9-.6-1.2-1.2-1.6-1.8-3-.8-1-1.1-2.3-1.1-3.5.3-1.9-.6-3.6-.3-5.5,0-.7-.5-1.3-.4-2.1,0-.6.3-1.3.4-1.9,0-1.1-2.1-1.6-3-1.3-1,.2-1,1.2-.8,2,0,1-.2,1.9.3,2.8-.5,2.4.7,4.9.4,7.4,0,.6.4,1.2.5,1.8.1.4.4.7.6,1.1.2.8.4,1.7.8,2.4.4.7.8,1.3,1.2,2,.3.6-.3,1.2-.2,1.6,0,.2.4.4.6.7.6.7,1.3,1.5,1.8,2.3.8.9,1.5,1.9,2.4,2.7.4.3,1.1.4,1.6.7.3.1.4.4.6.4.7,0,1.3.3,1.9.6.6.3.7,1,1.3,1.2.6.1,1.6,0,2.2,0,2.1.1,4.1-.1,6.1-.9,2.5,0,4.8-1.2,7.3-1.3.3,0,.6,0,.9-.2,1.1-.5,1.9-1.7,3-2.1,1-.6,1.5-.6,2.4-1.3,1.5-.6,1.9-2.6,3.4-3.2.8-.3,1.3-1.1,1.8-1.8.9-.8,3.6-1.5,2.3-3h0Z"/>
    </g>
  </g>
  <g id="Brazo_iz_1">
    <path class="st9" d="M53.9,145.6c-1.8.4-2.7,2.2-4,3.3-1.8.8-3,2.3-4.4,3.6-3.6,1.7-5.8,4.9-8.1,7.9-1.4,1.3-3.4,1.9-4.4,3.6-.7.6-1.4,1.2-2,2-.8.6-1.3,1.4-1.7,2.3-1.5,1.4-1.8,3.7-3.4,5-2.6,2.1-3.4,6-5.5,8.6-.3.4-.4.9-.6,1.4-.3.5-.8.8-1.1,1.3-.3,1.4-1.4,2.3-2.2,3.5-.5.5-1.1.9-1.4,1.5-.2.6,0,1.3-.2,1.9-.4,1.2-.9,2.5-1.4,3.7-.3.7-.9,1.2-1.1,1.9-.2.7-.2,1.6-.4,2.4-.4,1.1-.8,2.2-1,3.4-.1.4-.4.7-.5,1.2-.1,1.5-.5,2.8-1.1,4.2-.5,1-1.6,1.4-2.7,1-.6-.2-1.1-.6-.9-1.3.2-1.2,1.1-2.5,1.5-3.7.2-1.3.5-2.6,1-3.9.6-1.3.8-2.8.9-4.2,1-2.3,2.3-4.2,2.6-6.8.2-1.2,1.2-2,1.9-3,1.7-2.7,3.5-5.6,5.1-8.5.7-2.5,2.7-4.7,3.5-7.1.2-.4.8-.5,1.3-.8.4-.3.8-.6,1.1-1,.5-.5.2-1.3.8-1.6.9-.9,1.2-2.5,2.4-3.1.5-.3.6-.8.9-1.2,1.1-.9,2.1-2.1,2.9-3.3.4-.6.3-.6.7-1,.5-.3,1,.2,1.7-.5,0,0,.6-.6.5-.6,1-1.5,2.3-2.8,3.8-3.8.6-1,1.5-1.7,2.2-2.6.7-.4,1.4-.7,2-1.2,1.8-1.4,3.5-3.4,5.5-4.4.5-.6,1-1.3,1.7-1.8,1-.5,1.5-1.8,2.7-2,1.3-.1,2.8,2.9,1.4,3.6h-.1Z"/>
    <path class="st9" d="M58.8,176.3c.2-.3.3-.6.5-.9.3-.5.7-1,1-1.4.1-.2,0-.4.1-.6,0-.3.2-.6.2-.9.1-.8.8-1.4.8-2.2.2-.3.5-.5.6-.9,0-.7.5-1.6-.2-2.2-1.4-.8-2.1.7-2.5,1.8-.2.6-.8,1-1,1.7-.2.3-.4.6-.5,1-.1.3,0,.7-.1.9-.5.4-.9,1.1-1.2,1.7,0,.3-.4.4-.5.6,0,.4-.2.8-.4,1.2h3.2Z"/>
  </g>
  <g id="Brazo_der_2">
    <g>
      <path class="st0" d="M122.9,222.5"/>
      <path class="st6" d="M122.9,222.5"/>
    </g>
    <path class="st2" d="M123.7,222.6"/>
    <path class="st9" d="M133,203.3c1.5.2,3.4,0,4.8.7.3,0,.5-.1.8,0,.4,0,.9,0,1.2.3.3.2.5.4.8.6.3,0,.7,0,1.1.2.3.1.7.1,1,.2.4.2.8.4,1.1.7.2.1.3-.1.6,0,.3,0,.5.2.6.3.2.3.9.3,1.2.7.6.8-.2,2.2-1.3,2.2-.3,0-.3-.3-.5-.3-1.1-.2-1.1,0-1.8-.2-.9-.6-2.1-.8-3-1.4-1.1-.6-2.4-.6-3.6-.7-.7,0-1.3,0-1.9-.3-.8-.3-2-.2-2.5-.8-.4-.9.2-2.4,1.4-1.9h.1Z"/>
    <path class="st9" d="M163.2,207c-.5,1.3.1,2.7.5,3.9,0,1.1-.2,2.2,0,3.3.2,1.7-.3,3.2-.5,4.8,0,2.1.5,4.4,0,6.5-.5,1.4-1.8,2.4-2.4,3.9-.3.6-.8,1-1.3,1.4-.4.3-.7.7-1.1,1.1-.2.2-.6.2-.8.4-.6.8-1,1.3-1.9,1.6-.4.4-.7.8-1.2,1-1.6,1.2-3.8,1.1-5.6,1.3-2.4,1-5.5,1.3-8,.7-2.1.1-3.5-.9-5.2-1.9-2.1,0-4.3-.4-5.9-2-.8-.7-1.9-.7-2.8-1.2-.7-.7-1.6-1.1-2.4-1.7-.3-.2-.3-.5-.5-.7-.3-.2-.7-.3-1-.5-.7-.7-1.3-1.8-1.9-2.5-.2-.3-.1-.7,0-1,.4-.8,1.6-1.6,2.2-1.5,1,.8,1.2,2.6,2.5,3.2.5.3.8.9,1.3,1.3.6.6,1.4.9,2.2,1.2,1,.2,1.6.6,2.3,1.2,1.1.8,2.6,1.3,4,1.2,0,0,.3,0,.4,0,1,.5,2.1,1.2,3.2,1.5,3.7,1,7.8.2,11.1-1.5.3-.1.7.1,1.1.2.5,0,1.2,0,1.6-.4.2-.2.2-.4.4-.4.1,0,.3,0,.4-.2.6-.7,1.5-1.2,2.2-1.7.3-.6.9-.8,1.3-1.3.4-.6.7-1.3.6-2-.2,0,.5-.3.6-.3.4-.1.7-.3.7-.7.2-1.3,0-2.9.5-4.1-.1-.8-.2-1.7-.3-2.6.7-2,.2-4.2.2-6.3.1-.9.1-1.2-.2-2-.2-.9-.2-1.9-.5-2.9,0-.3,0-.6.2-.8.8-.7,3.6-.8,3.6.5h0Z"/>
  </g>
  <g id="Brazo_der_1">
    <g>
      <path class="st9" d="M162.8,206.1c0-2.5-.6-5.2-1.4-7.5-.2-1.7-.8-3.5-1.5-5.1-.1-1.2-.1-2.4-.7-3.5-.6-1.3-1.1-2.8-2.3-3.8-1.2-1.5-1.2-3.7-1.9-5.5-.2-.5-.8-.9-1-1.4-.6-1-1.1-2.1-1.9-3-1-2.3-3.3-4.1-4.8-6.1-1-1-1.5-2.5-2.3-3.5-1.6-1.8-3.3-3.4-5.1-4.8-.3-.3-.3-.7-.6-.9-.5-.5-1-1.2-1.5-1.7-.5-.9-.8-1-1.5-1.8-1.2-1.4-1.7-3.2-3.1-4.3-2.6-2-5.5-3.7-7.7-6.3-1.8-2.3-4.5-3.6-6.7-5.5-1.9-.4-3.1-1.9-4.6-2.9-1.4-.3-3.1,2-2.1,3.2.7.5,1.7.7,2.4,1.3.8.6,1.5,1,2.3,1.2,2.1,2.2,5.4,3.4,7.1,6.1,1.3,1.3,3.1,1.9,4.2,3.5.7.7,1.7,1.2,2.3,2.1.5.3.9.4,1.2.8.6.6.2,1.4.5,1.8,1.3,1,2.9,2.1,3.8,3.6.2.5.8.7,1.1,1,.6,1.3,1.8,2.3,2.9,3.1.2.2.1.4.3.6.1,0,.4,0,.6.2,1.1.8,1.4,2.1,1.8,3.3,1.4,1,2.6,2.4,3.6,3.8,3.1,2.7,5.1,6.3,6.8,9.9.5.9.6,2,.9,2.9.9,1.1,1.7,2.4,2.4,3.7.6,2.4,1,4.9,2.2,7.3.4,1.3,0,2.9.7,4.2.1.2.2.5.2.7.2,1.4-.7,4.4,1,4.7.9,0,2.6-.2,2.5-1.3h0Z"/>
      <path class="st9" d="M116.5,173.8c0-.2-.3-.4-.4-.6-.3-.5-.6-1-.9-1.4-.2-.7-.3-1.2-.8-1.8,0-1-.6-1.6-1.1-2.3-.6-1-2.2,0-1.9,1,.2,1.2,1,2.4,1.1,3.7,0,.3.3.5.4.8,0,.4.3.7.5,1.1.1.2.4.3.5.5,0,.5,0,1.1.3,1.6,0,.3.2.5.3.8h3.1c-.5-1.1-.9-2.2-1-3.4Z"/>
    </g>
  </g>
  <g id="Mano_iz">
    <g>
      <path class="st11" d="M41.6,201.1c-9.1,1.5-13,9.9-8.9,16.8,3.4,5.3,11.2,6.4,18.3,2.4"/>
      <path class="st9" d="M50.2,219.8c-1.6.4-3.1,1.2-4.8,1.5-.5.1-1,0-1.5,0-.4,0-.9.1-1.3,0-1.6-.4-3.4,0-4.8-.9-.3-.2-.6-.2-.8-.3-.3-.2-.7-.6-1.1-.8-1.5-.7-2.4-2.2-3-3.7-.3-.6-.2-1.2-.2-1.9-.4-2.4.2-4.9,1.6-6.9.3-.4.9-.6,1.1-.9.2-.4.4-.7.7-1,.5-.9,1.7-1.1,2.4-1.8.9,0,1.7-.7,2.5-1.1.7-.3.8-1.2.1-1.7-1.1-.7-2.7.2-3.8.6-.8.4-1.8.5-2.4,1.3-.5.3-.6.2-1,.8-.3.2-.5.7-.6,1-.9.6-1.6,1.4-2.2,2.5-.2.3-.5.5-.6.7-.1.2,0,.5,0,.7-.3,1.1-.9,2.4-.6,3.6,0,.3-.2.6,0,.9,0,.2.2.4.2.6,0,2.1.2,4.4,1.6,6.1.2.2.4.3.6.4.2.2.2.5.3.6.1.1.3.2.5.3.3.4.7.5,1.1.7.4.3.7.8,1.2,1.1.7.4,1.6.7,2.3,1.1,1.2.2,2.1.6,3.4.5,1.2,0,2.6-.2,3.8,0,1.8-.6,3.8-.9,5.5-1.8.5-.3.8-.8.9-1.3,0-.4-.5-.9-.9-1h-.1Z"/>
    </g>
    <g>
      <path class="st0" d="M44,220.7c2.5-.1,10.1-1.3,10.9-3.9,0-1.6-4.5-1.8-6.2-1.6-.3,0-.7,0-.9,0-.2,0-.2,0-.1-.1,1.6-.8,10.6-1.5,10.5-4.7-1.9-3.1-8.9-1.2-12-.9-.4,0,0,0,.5-.2,7.6-1.4,16.3-7.1,2.4-5.9-.3,0-4.1.6-2.7,0,1.8-.6,3.9-1.1,5.7-1.9,1.8-.7,4.1-2.4.6-3.1-5.5-.8-14,1-15.9,7.3-1.7,5.5.4,14.7,7.1,14.9h.1Z"/>
      <g>
        <path class="st9" d="M46,208.3s0,0,0,0c0,0,0,0,0,0Z"/>
        <path class="st9" d="M58.5,209.2c-.6-.9-2.1-1-3.3-1.2-.7-.2-.8-.5,0-.9,2.6-1.3,3.1-3.9.2-5-.8,0-1.6-.1-2.5,0,0,0-.1,0-.2,0,.9-.6,2.8-1.4,2.5-2.8-.8-1.8-3-1.5-4.6-2-.3,0-.6,0-.9,0-.4,0-.8-.1-1.2,0-1.3.3-2.6,0-3.8.3-1.9.9-4.1,1.7-5.5,3.2-.5.2-.9.7-1.2,1.2-.5.4-1,1.2-1.4,1.7-.1.3-.1.8-.4,1.1-.9,1.9-.7,4.6-.3,6.7,0,2,.4,4.2,1.7,5.8.4.8.8,1.7,1.6,2.3.4.4.8.8,1.3,1.1.7.5,1.7,1,2.6,1,.8,0,1.2-1.1.6-1.6-.4-.3-.9-.3-1.4-.6-1.5-.5-2.7-2.2-3.5-3.5-.6-.6-.5-1.3-.8-2-.2-.8-.6-1.6-.5-2.3-.3-1.1,0-2.2-.2-3.4,0-.6.2-1.1.3-1.7,0-.4,0-.8.2-1.1.5-1.1,1.5-1.9,2.1-2.9.1-.2.4-.2.5-.4.2-.2.3-.4.5-.5.6-.2,1-.7,1.6-.9.8-.3,1.3-.7,2.1-1.1,1.1-.6,2.2-.4,3.4-.4,1.4,0,2.9-.2,4.2.3.4,0,.4,0,.6,0,0,0,0,.3-.3.4-.1.1-.3.3-.6.4-.3,0-.5.2-.6.4-.3.2-.8,0-1.1.3-1.4.6-3.1,1.1-4.5,1.6-.5.2-.7.7-.6,1.3.2.7,1,.8,1.7.7.9,0,1.8-.3,2.7-.5,1.7,0,3.6-.4,5.2.2.9.2.1.7-.2,1.1-.3.2-.6.2-.7.4-.4.3-.9.7-1.4.9-.4.2-.8.2-1.2.3-1.5.9-3.5,1.2-5.1,1.3,0,0,0,.2,0,.3-.3.3-.6.3-.6.9,0,.4.4.6.7.6.2,0,.4.1.4.3,0,.1,0,0,.2,0,.3-.1.8-.4,1.1-.5,1.9,0,4-.7,5.9-.4,1.1.3,2.3.5,3.3,1,0,0,0,.2-.2.3-.9.6-1.9,1.3-3,1.5-.6,0-.9.5-1.5.6-.7.2-1.5.2-2.1.5-.3,0-.7,0-1.1.2-.5.3-1,.2-1.5.4-.6.2-1,.9-.7,1.6,1,1.3,2.9.4,4.3.8.4,0,.9.1,1.3.2.4.1.9,0,1.1.3,0,.2-.6.3-1,.6-.3.2-.7.3-1,.5-1.5,1-3.4,1.5-5.3,1.5-.8,0-1.7.2-2.2.9-.3.5,0,1.3.6,1.3.3,0,.5,0,.7,0,.2,0,.4.1.6,0,1.2-.4,2.6-.7,3.9-1,.6-.2.8-.4,1.5-.4.5-.3,1-.5,1.5-.9.3-.2.7-.2,1-.3.4-.3.7-.5,1.1-.7,1.8-1.5.5-3.5-1.5-3.6-.8-.1,0-.2.3-.4.5-.3,1.2-.4,1.8-.5,1.9-.7,4.8-2.2,3-4.6h0ZM46.2,202.8s0,0,0,0c0,0,0,0,0,0ZM46.5,204.4s0,0,0,0c0,0,0,0,0,0Z"/>
      </g>
    </g>
  </g>
  <g id="Mano_der">
    <g>
      <path class="st11" d="M125.9,202.2c17.1,3.2,12,27.8-7.9,20.1"/>
      <path class="st9" d="M137.6,212.3c-.1-2.9-1.8-5.5-3.4-7.8-.4-.3-.9-.4-1.3-.7-.8-.3-1.6-.8-2.3-1.2-.3-.2-.7-.1-1-.2-.2-.1-.3-.3-.6-.4-.8-.3-1.8-.2-2.6-.1-.3,0-.5.3-.6.6-.2,1.5,1.5,1.7,2.6,2.1.8.1,1.3.9,2.1,1.2.4.3.2.4.8.6.2.2.7.2.9.4.2.2.2.5.4.8.5.6.9,1.2,1,1.9.9.7.8,2,1.2,2.9,0,.2,0,.5,0,.6,0,.2.2.3.1.6,0,.4-.3,1.1-.6,2.1-.4.8-.9,1.7-1,2.5,0,.2-.3.3-.4.5-.2.4-.4.8-.7,1.2-.7.5-1.2.6-1.9,1.2-.6.2-1,.6-1.6.8-1.4.4-2.8,1.2-4.3.7-.3,0-.8.2-1.1,0-1.2-.1-2.5-.4-3.7-.8-.6-.1-1.8,0-1.8,1-.2,1.9,5.5,2,6.9,2.6,1.3-.1,2.8.3,4-.3,1-.5,2.2-.9,3.1-1.5.3-.2.6-.5.9-.7.2-.2.5-.2.7-.4,1.9-1.9,3.1-4.5,3.7-6.9.2-.5.4-.9.3-1.4,0-.5.2-1,0-1.5h0Z"/>
    </g>
    <g>
      <path class="st0" d="M123.7,221.7c-3.3-.2-6.8-1-9.7-2.5-.3-.2-.7-.5-.9-.8-1.3-1.9,3.2-2.2,4.9-2.2.6,0,1.4,0,1.9,0,.2,0,.2,0,.1-.1-.8-.4-5.2-1.2-7.1-1.9-7.3-2.9-1.1-5.2,3.3-4.5,1.9.2,3.7.5,5.4.7-.5-.2-1.7-.5-2.4-.7-8.2-2.1-12.4-6.6-.6-5.4.9,0,2.1.3,3,.3.1,0,0,0-.2-.2-2.4-.9-5.3-1.4-7.4-2.9-4.1-3.7,14.9-3.7,16.8,5.3,1.6,5.5-.5,14.7-7.1,14.9h-.1Z"/>
      <path class="st9" d="M132.4,211.6c.1-1.4-.3-2.9-.5-4.2-.6-1.5-.9-3-1.9-4.4-.5-.5-.8-.6-1.2-1.2-.5-.2-1-.6-1.4-1-.7-.3-1.4-.7-2.1-1-1-.2-1.8-.2-2.9-.5-.7-.1-1.3-.4-1.9-.7-1.6-.4-3.5-.4-5.1-.4-1.2.4-2.9,1-3,2.5,0,1,.8,1.8,1.6,2.2.2,0,.8.2.8.4-.5.2-1.6,0-2.1.1-.7.2-1.4.4-1.9.9-.3.6-.5,1.3-.2,2,.3.6.8,1.3,1.5,1.6.2.1.8.6.8.7-2.2-.1-5.1,1.2-4.3,3.8.2.7.9,1.1,1.4,1.6,1.2.8,2.5,1.1,3.9,1.6,0,0-.4.2-.7.4-2.7,1.3-.6,4.4,1.6,4.9,1.4.5,2.8.6,4.3,1.1,1.2.2,2.4.8,3.6.7.4-.1,1-.3,1.2-.8,0-.4,0-.8-.3-1-.4-.2-.9-.3-1.2-.4-.9.1-2-.2-2.9-.3-.5-.2-1.2-.4-1.8-.5-.9-.5-1.9-.2-2.7-1-.2-.1-.4-.1-.5-.3-.1-.2-.3-.4-.2-.7.8-1,3.6-.9,5-.8.4,0,.7.2,1,.1.7,0,1.2-1,.7-1.5-.4-.5-1-.4-1.6-.7-.8-.5-1.5-.2-2.3-.6-.4,0-1,0-1.3-.3-.5-.2-1.3-.2-1.8-.3-.9-.5-2.2-1-3-1.7-.1-.1-.3-.4-.2-.6,0-.1.2-.1.3-.2.2-.1.3-.4.6-.5.5-.1,1.2-.4,1.8-.3.4,0,.7.4,1.2.5.7,0,1.3-.3,1.9,0,1.7-.1,3.9.4,5.5.7,1.5-.2,1.3-2.2-.1-2.4-.8-.1-1.5,0-2.2-.6-.8-.2-1.5-.5-2.5-.7-.8-.1-1.5-.5-2.2-.7-.2,0-.3-.3-.5-.4-.2,0-.4,0-.7-.1-.5-.3-1.1-.7-1.1-1.1,0-.3.5,0,.7,0,1.9-.6,4-.2,6-.3.3,0,.4,0,.7.1.5.1,1.7,0,2.2,0,.5-.2.6-1,.3-1.3-.5-.6-1.7-.8-2.4-.9-1.5-.6-3.1-.6-4.5-1.6-2.5-1.3-.3-1.7,1.2-1.7.3,0,.6.1.9.1.5,0,.9-.1,1.4,0,1.2,0,2.3.5,3.4.9,1.8.2,3.5.8,4.9,2,.4.1.5.4.8.7.2.2.5.3.6.6.4.6.7,1.4,1.1,2.1.3,1.5.8,3.1.9,4.7,0,1.1.1,1.5-.3,2.6-.1,1-.7,2-1,2.9-.2.6-.3,1.3-.8,1.7-1.1,1.2-2.2,2-3.8,2.2-.5,0-.8.4-1,1,0,1.6,2.1.7,3,.4,2-.8,3.7-2.6,4.2-4.7.1-.2.3-.4.4-.6.5-1.1.6-2.4.9-3.5,0-.3,0-.5,0-.8,0-.2.2-.4.1-.6h0ZM121.4,211.2h0s0,0,0,0ZM121.7,209.8h0s0,0,0,0h0Z"/>
    </g>
  </g>
</svg>