<?xml version="1.0" encoding="UTF-8"?>
<svg id="Capa_1" xmlns="http://www.w3.org/2000/svg" version="1.1" viewBox="0 0 72.7 117.8">
  <!-- Generator: Adobe Illustrator 30.2.1, SVG Export Plug-In . SVG Version: 2.1.1 Build 1)  -->
  <defs>
    <style>
      .st0 {
        fill: #e6dcd6;
      }

      .st1 {
        fill: #333;
      }
    </style>
  </defs>
  <path class="st1" d="M11.4,82.6c-.2-.2.4-.8.4-.5.2,0-.3.6-.4.5Z"/>
  <g>
    <path class="st1" d="M70.5,95.9c-.7-1.3-2.1-2.1-3.1-2.4-.7-.2-2-.6-3-.5,1.7-1.5,2.2-4,2.3-6.2.6-4.8-2-10-6.9-11.1-3.8-.9-7.7-.3-11.5-.9-4.1-.5-8.2,0-12.2-.2-3.3-.3-7,.2-10,.1-1.6,0-3.2-.2-4.8-.1-4.2.2-8.9-.7-12.5,2.1-3.6,2.8-4.7,7.7-4.3,12,.3,2.6,1.5,4.4-.9,6.3-1.7,1.7-3.1,3.7-3.3,5.8,0,.7-.1.6-.2,1.3h0c-.5,4.1.4,9.1,3.7,11.9,2.3,1.6,5.6,2.5,8.5,2.5,9.7,0,19.3-.3,29-.2,5,.4,9.7,0,14.8.2,5.4.1,11.4.4,14.9-4.3,1-1.2,1.4-2.6,1.4-4,0-1.5.2-3.2.3-4.7.3-2.6-.8-5.7-2.2-7.9ZM66.1,82.5c.6,1.5.3,3.3.2,4.9-.4-1.4.1-3.4-.2-4.9h0ZM4.9,94.4c-.4.3-.9.8-1,.7,0,0,.4-.4.8-.7.8-.5.6-.3.2,0ZM25.3,116.1c.4,0,.6,0,.7.1-.1.2-2.1-.1-.7-.1ZM63.7,94.4h0c0-.2,0-.4,0-.5.2.6,1.1,1.1,1.9,1.7,0,0,0,0,.1,0-.9-.5-1.8-.8-2-1.3ZM68.5,97.9c-.4-.5-.9-1-1.5-1.4,0,0-.1,0-.2-.1.3.2.6.3.9.5,1.4,1,2.2,3,2.4,4.8-.3-1.4-.8-2.7-1.6-3.7Z"/>
    <path class="st1" d="M51,117.6c.8.2,2.4.1,3.2,0h0c-.9,0-2.4-.4-3.1,0Z"/>
    <path class="st1" d="M21.5,116.9c-.2,0-.9,0-1,0,.3.3,1.4.3,1.7.2h0c0-.2-.6-.3-.8-.3Z"/>
    <path class="st1" d="M4.5,114.9s0,0,0,0c0,0,0,0-.1,0h0Z"/>
    <path class="st1" d="M4.6,114.9c.8.5,1,.9,1.8,1.1.9.2.4,0-.7-.6-.9-.6-1-.5-1.1-.5Z"/>
  </g>
  <path class="st0" d="M36.5,42.9c-11.3-.3-19.5-11.9-21.4-21.4-1.2-6.1,0-12,2.4-15,1.9-2.5,4.4-4,7.9-3.4,2.7.5,4.2,2.5,4.6,3.1.7.9,1,1.8,1.1,2.4,0-.5.2-1.2.5-1.8.2-.4.3-.7.5-1,1.6-2.9,5.7-3.7,8-1.4.3.3,1,1.2,1.5,2.2.3.7.5,1.4.6,1.9,0-.4.3-1,.7-1.6.2-.3.4-.5.5-.7,2.6-3.8,7.6-5,11.2-2.1,4.9,4,3.7,14.1,3.1,17.6-.7,3.9-2,11.9-9.2,17.2-1.4,1-6,4.3-12.1,4.1Z"/>
  <path class="st1" d="M47.9,36.9c3.8-2.9,5.9-7.4,7.2-11.9,1.4-5.7,2.8-22.1-6.9-19.8-3.7,1.8-3.8,5.9-4.7,9.7-.4,1.4-.6,2.8-1.2,2.7-.3-.2-.4-.7-.5-1.1-.5-2-1.2-4.2-1.9-6.2-.5-1.6-1.1-3.1-2.2-3.7-1.1-.7-2.5-.3-3.2.8-1.5,2.6-1.5,5.8-2.2,8.7-.2,1.2-.4,2-.7,2-.6-.1-1.4-4.6-1.8-6-.6-2.1-1.1-4.2-2.6-5.5-2.3-2.1-6-.9-7.7,1.5-2.6,3.8-2.8,9-2.2,13.5.4,2.9,2,5.2,3.4,7.7,1.8,2.8,3.9,6.1,7,8.2,2,1.5,4.6,2.3,6.7,3.7,1.3.9,1.5,2.1.3,2.5-5.3,1.2-10.2-2.7-13.7-6.1-3.8-4.5-8-9.7-8.6-15.9-.6-6-.3-12.8,3.9-17.4C19.3.7,24.6-.5,28.6,1.7c1.7,1.1,2.7,1.5,4.6.3,2.7-1.7,6.2-1.1,8.5.9.9.8,1.8.2,2.5-.5,3.8-3.7,10.4-2.8,13.6,1.3,1.5,1.9,2.3,4.3,2.7,6.7,1.3,5.6.5,11.5-1.3,16.9-2.3,7-7.5,13.1-14.3,16-1.9.8-4.3,1.5-6.3.7-2-.8-.3-2.5,1-2.9,2.9-1.2,5.9-2.2,8.3-4.2h.2Z"/>
  <path class="st1" d="M41.9,66.7c.1-1.2-.4-2.6-.6-3.7-.4-1.7,1.2-3.2.9-5,0-.5-.2-1.1-.5-1.6-.4-1-.2-2.5,0-3.7,0-1.3-.5-2.7-.6-3.9-.2-1.4-.1-2.6-.3-4v-.2c0-3.3-6.1-3.6-7.9-2.1-.8.7-.8,1.9-1,2.9-.2,1.5-1.2,3-1.1,4.4,0,.7.1,1.4.3,2,0,0,0,0,0,0-1,.4-2,.7-3.1.2-1.2-.7-2.7-1.3-4-1.9-1.2-.4-3-2.3-3.9-.5-.7,1.8.2,3.5.4,5,0,.3.1.6.3.9.4,1,1.4,1.7,1.8,2.6.5,1.2.8,2.5,1.8,3.3.2.2.4.3.6.3,1.2.2,1.9,1.7,3.3,2,1,0,2-.3,2.9-.7,0,1.2,0,2.6-.2,3.9-.2,1-.4,2,0,3,.3.8,1,1.5,1.1,2.4.1,1,.3,1.9,1.4,2.6,1.8,1.1,4.9,1.2,7,.4,1.4-.6,1.3-2.3,1.5-3.5,0-.3,0-.3,0-.7,0-.9-.7-1.5-.6-2.4,0-.8.5-1.3.5-2.1Z"/>
</svg>