<?xml version="1.0" encoding="UTF-8"?>
<svg id="Capa_1" xmlns="http://www.w3.org/2000/svg" version="1.1" viewBox="0 0 160.7 122.2">
  <!-- Generator: Adobe Illustrator 30.2.1, SVG Export Plug-In . SVG Version: 2.1.1 Build 1)  -->
  <defs>
    <style>
      .st0 {
        fill: #f2f2f2;
        opacity: .5;
      }

      .st1 {
        fill: #e6dcd6;
      }

      .st2 {
        opacity: .5;
      }

      .st2, .st3 {
        fill: #b3b3b3;
      }

      .st4 {
        fill: #333;
      }
    </style>
  </defs>
  <path class="st1" d="M14.8,119.4h129.6c6.5,0,12.1-5.6,12.1-12.1-.2-5.8.2-72.4,0-90.9,0-6.6-5.5-12.2-12.1-12.2H15c-5.8,0-11,4.4-11.9,10.2-.4,4.2,0,70.4-.2,92.9,0,6.4,5.4,12.1,11.8,12.1h.2-.1Z"/>
  <path class="st4" d="M159.2,92.4c-1.6-19.1.8-38.3-.2-57.4-.5-12.3,2.8-30.7-14.8-32.5-24.3-2.5-50.5-.2-76.1-1.1h-.6c-17.3.6-33.3-1-49.1.4C-3,1.8,1.9,17.6,1.4,32.7c.7,20.4-.4,40.6.5,61s0,0,0,.2c.9,7.7-1.5,17.1,4.4,23.2,1.5,1.5,7.5,4.8,10.5,4.8,4.1.9,14.2-.8,16.7-.2s.5,0,.8,0c27.9-.7,55.6,0,83.5,0,6.7.4,13.4,0,20.1.3,6.6.2,14.4.3,18.3-5.9,4.6-6.9,2.1-15.8,3.1-23.6v-.2h-.1ZM4.9,12.6c1.1-3.8,4.4-6.7,8.5-7.1,4.4-.4,8.8-.5,13.1-.3s.1,0,.2,0c8.6-.2,17.1,0,25.7.3s.2,0,.2,0c5-.3,10.3-.2,15.5-.2s0,0,.2,0c2.9-.3,5.8,0,8.8,0,5.7,0,12.9-.3,18.7.3s.3,0,.5,0c7.2-.3,14.3-.3,21.5-.3s.2,0,.3,0c2.8.2,5.1,0,7.8,0s.3,0,.4,0c2.5.2,4.9.4,7.5.3s.1,0,.2,0c6.3.4,13.2-1.7,18.2,3.3,3.9,3.5,3.3,8.9,3.5,13.7.2,3,.1,5.8,0,8.8-.2,2.5.6,5.2.2,7.7-.2.9-1.2.7-1.9.5-1.3-.3-2.6-.3-3.9-.2-2.3.2-4.2.7-6.3.9-3.1.2-6.2-.7-9.3-.2-2.5.4-4.9.2-7.3.2s-.4,0-.6,0c-3.3.5-6.6.7-9.9.8-3.2,0-6.3,0-9.4-.2s-.2,0-.4,0c-4.5.3-9,0-13.5-.2s-.3,0-.5,0c-4.8.4-9.5-.2-14.3,0-5.6.4-10.9,1.2-16.2.8-2.5-.3-5-.2-7.4-.4s-.2,0-.3,0c-4.3,0-8.5.6-12.7.4-3.6-.2-6.8-.4-10.5-.2s-.2,0-.2,0c-4.2,0-8.4-.7-12.5-.2s-.3,0-.4,0c-3.8,0-7.9,0-11.8.2-1,0-1.8-.4-1.9-1.4-.2-2.6-.2-5.4,0-7.9v-.2c0-2.5.3-5.1,0-7.5-.2-3.9-.8-7.9.2-11.7h0ZM145.3,118.7c-32.4-.3-64.7-.6-97-.2s0,0-.2,0c-9-.6-17.8.4-27,0h-2.5c-.7,0-1.5,0-2.2-.5-3.6-2.1-10.6-4.4-10.7-9.6-1.1-17.1-1.4-34.2-.7-51.3.3-1.9-.7-6.2-.6-9.2s1.5-3.4,3.4-3.5c10.6-.7,21.3,0,31.9.3,7.4,0,14-.8,21.4-.3,5.9.8,12-.6,17.9-.7s.2,0,.2,0c7.1.4,14.8,0,21.8,1s.9,0,1.3,0c4.5-.9,9.2-.3,13.8-.3s.2,0,.3,0c8.6-.7,17.2-1.6,25.8-.9,3.1.2,13.5-2.9,13.7,1.4,0,14.2-.8,28.3-.4,42.5s0,.2,0,.3c-.8,10.4,4.9,29-9.8,31s-.4,0-.5,0h0Z"/>
  <path class="st4" d="M66.6,31.2c0-2.9.6-7-2.8-8.2-1.2-.3-2,0-3.1-.6-3.3-.7-6.9-.3-10.3-.3-4.2-.2-8.4,0-12.6.1-2.7-.2-5.6,0-8.2-.2-3.1-.3-6.9,1.1-7.2,4.6-.1,2.7.1,5.5,0,8.3-.2,2.7-.3,6,2.3,7.6,2.6,1.5,5.9.6,8.8.7,4.5-.2,9,0,13.5,0s8.5,0,12.6,0c1.8,0,3.8,0,5.2-1.2,1.2-1,1.8-2.3,1.8-3.8v-6.7h0v-.2Z"/>
  <g>
    <path class="st3" d="M113.6,30.7h-34.4c-1,0-2.2.4-3.2,1.4-1.4,1.5-1.1,3.4-1.1,5.5s.8,3.6,2.5,4.3c.6.3,1.4.4,1.8.4,4.1-.2,32,.5,35.5-.3,2.8-.9,2.8-4.1,2.6-6.5.2-2.2-1.4-4.4-3.6-4.6h0v-.2Z"/>
    <path class="st4" d="M118.2,37.6c-.2,5.6-4.7,5.6-9.1,5.4-4.7,0-9.8.2-14.6.2h-11.9c-3,.3-6.9.2-8.2-3.1-.4-.9-.5-1.9-.4-2.9.2-1.9,0-4,1.1-5.5,1.6-2.3,4.5-2.1,7-2.1s3.5-.1,5.3,0c5.5.2,10.7-.2,16.2,0,2.6,0,5.4-.2,8,.2.6.1,1.1.3,1.2.6,0,.2-.2.4-.7.6-3.5.6-7,.3-10.6.5-5.5.2-10.9.2-16.4.2-4.9.2-9.8-1.5-9.2,5.5-.3,2.8,1.4,4.5,4.2,4.4,2.9,0,6,0,9,0,8.1,0,16.3-.2,24.5,0,2.1,0,3.2-2.1,3.1-3.9,0-2,.2-3.8-1.3-5.2-.4-.4-.9-.8-1.2-1.2-.4-.6.4-.6.9-.5,3.2.6,3.4,4.5,3.2,7v.2-.3Z"/>
  </g>
  <g>
    <path class="st3" d="M113.6,19.1h-34.4c-1,0-2.2.4-3.2,1.4-1.4,1.5-1.1,3.4-1.1,5.5s.8,3.6,2.5,4.3c.6.3,1.4.4,1.8.4,4.1-.2,32,.5,35.5-.3,2.8-.9,2.8-4.1,2.6-6.5.2-2.2-1.4-4.4-3.6-4.6h0v-.2Z"/>
    <path class="st4" d="M118.2,23.1c-.6-6.8-9.7-4.6-14.4-5-6.7-.2-13.3.1-20,0-3.1.2-7.2-.7-9,2.6-.9,1.4-.6,3.2-.8,4.9-.3,2.4.8,4.9,3.2,5.9,2.8.9,6,.1,8.9.3,3.3-.3,6.6,0,10,0s9.3-.2,14-.2c6.4.6,8.7-1.9,8.1-8.2v-.2h0ZM116.6,25.9c0,1.5-.6,3.2-2.1,3.7-2.5.5-4.8,0-7.5,0-6,0-12,.2-18,.1-3.4.2-6.9.2-10.3,0-2.9-.3-3.1-2.8-2.9-5.2,0-1.6.2-3.5,1.8-4.2,2.1-.8,4.7-.2,7-.4,6.5,0,10.4,0,17-.2,3.2,0,6.5,0,9.7-.3,4.3-.5,5.7,2.2,5.3,6.1v.4Z"/>
  </g>
  <polygon class="st0" points="60.9 72.3 74.9 61.7 84.8 73.3 100.2 61.7 136.5 103.6 124.4 116.9 112.3 104.6 97.6 116.9 60.9 72.3"/>
  <polygon class="st2" points="22.3 52 22.3 119.4 60.5 119.4 60.5 61.8 42.9 61.8 40.5 49.6 22.3 49.6 22.3 52"/>
  <path class="st4" d="M42.6,64.3c0,11,0,22.1.2,33.1v11c-.3,3.7,1.3,10.4-3,11.8-3.6.7-7.3,0-10.8.5-3.6.2-8.9.5-8.5-4.5.7-15.5-.4-31,.3-46.5,0-5.8-.6-11.8-.2-17.6.2-4.7,5.6-4.1,9-4,2.4,0,5.4,0,8,.5,2.1.6.9,1.5-.6,1.6-3.6.3-7.1.7-10.7.5-1.7-.2-3.2.2-3,2.3-.2,6.9.8,13.8.2,20.7v34.6c-.1,2.5-.3,5.1-.2,7.6,0,1.7,1.2,2,2.5,2,4.2,0,8.7.2,12.8,0,1.3-.2,1.4-1.5,1.4-2.6,0-8.3,0-16.6-.3-24.9.3-13,.8-26.3.4-39.2,0-.7-.6-1.6.4-1.5,3.6,1.3,1.6,11.2,2.1,14.6v.2h0Z"/>
  <path class="st4" d="M61.8,74c0,10.7,0,21.3.3,32,0,1.7,0,3.4,0,5,0,2.4.5,5.3-.7,7.5-1.6,2.2-4.7,1.6-7.1,1.9-2.3,0-4.8,0-7.1.2-2.2,0-4.5.5-6.3-1.1-2.1-2.3-.8-5.6-1.1-8.4.6-11.5-.5-23.1.2-34.5.3-2.8-.4-5.6-.2-8.4,0-3.1-.7-8,3.7-8.2.8,0,18.5-.8,13.7,1.9-3.3.5-6.7.8-10,.6-1.9,0-4.9-.3-4.6,2.4.8,13.4,0,26.8.3,40.2,0,2.9,0,5.8-.3,8.7,0,1.2-.4,2.8.6,3.6,4.2,1,9.6.3,14,.3,2.5,0,2.1-2.3,2.1-4.2-.7-16.9.6-33.9,0-50.7-.2-.6-.6-1.5.2-1.5,3.8.8,1.8,9.6,2.3,12.6v.2h0Z"/>
  <path class="st4" d="M84,69.7c8.9,10.7,18.2,21.1,27.2,31.8,1.4,1.6,2,4,.4,5.7-1.9,2-4,3.9-6.2,5.7-2.8,2.4-6.7,7.9-10.4,4.1-1.2-1.4-2.4-3-3.7-4.5-5-6.7-10.9-12.7-16.2-19-2.3-3.1-4.9-5.9-7.1-9-2.6-2.6-5.2-5.5-7.5-8.4-1.2-1.5-1.1-3.9.4-5.2,2.2-2,5-4.4,7.5-6.4,1.1-.7,3.1-2.8,4.4-2.1.2.2,0,.6-.2,1.1-2.2,2.5-4.5,4.9-7.1,6.8-1.6,1.2-4.1,2.9-2.1,4.9,9.1,9.6,17,20.2,25.8,30.2,2,2.5,4.1,4.9,5.9,7.5.8.9,1.5,2.4,2.8,2.3.5,0,1.1-.4,1.5-.8,3.3-2.8,6.8-5.5,9.8-8.6,1.4-1.6-1.3-3.5-2.2-4.8-3.6-4.3-7.1-8.3-10.8-12.4-7-8.7-13.9-17.8-21.4-26-1.2-.6-1.5-1.4,0-1.6,1.7,0,2.9,1.2,3.8,2.3,1.7,2,3.5,4.2,5.2,6.1h0v.3Z"/>
  <path class="st4" d="M109.1,69.7c8.9,10.7,18.2,21.1,27.2,31.8,1.4,1.6,2,4,.4,5.7-1.9,2-4,3.9-6.2,5.7-2.8,2.4-6.7,7.9-10.4,4.1-1.2-1.4-2.4-3-3.7-4.5-5-6.7-10.9-12.7-16.2-19-2.3-3.1-4.9-5.9-7.1-9-2.6-2.6-5.2-5.5-7.5-8.4-1.2-1.5-1.1-3.9.4-5.2,2.2-2,5-4.4,7.5-6.4,1.1-.7,3.1-2.8,4.4-2.1.2.2,0,.6-.2,1.1-2.2,2.5-4.5,4.9-7.1,6.8-1.6,1.2-4.1,2.9-2.1,4.9,9.1,9.6,17,20.2,25.8,30.2,2,2.5,4.1,4.9,5.9,7.5.8.9,1.5,2.4,2.8,2.3.5,0,1.1-.4,1.5-.8,3.3-2.8,6.8-5.5,9.8-8.6,1.4-1.6-1.3-3.5-2.2-4.8-3.6-4.3-7.1-8.3-10.8-12.4-7-8.7-13.9-17.8-21.4-26-1.2-.6-1.5-1.4,0-1.6,1.7,0,2.9,1.2,3.8,2.3,1.7,2,3.5,4.2,5.2,6.1h0v.3Z"/>
</svg>