<?xml version="1.0" encoding="UTF-8"?>
<svg id="Capa_1" xmlns="http://www.w3.org/2000/svg" version="1.1" viewBox="0 0 102.9 141">
  <!-- Generator: Adobe Illustrator 30.2.1, SVG Export Plug-In . SVG Version: 2.1.1 Build 1)  -->
  <defs>
    <style>
      .st0 {
        fill: #333;
      }
    </style>
  </defs>
  <g id="Painting_1">
    <path class="st0" d="M101.6,21.5c-1.6-19.7,4.9-20.8-14.5-20.2-26.2-.1-52.1.5-78.3.3-2.8-.2-7.2-.1-7,3.8-.5,41.8-.2,83.5-.4,125.3,0,3.4-1.1,8.6,3.7,9.1,18.2-.6,36.6-.5,54.7-.9,11.9.7,26,1.6,37.7-.1,1.6-.2,2.4-.8,2.5-1.3.4-.6.6-1.7.6-3.5,0-37.4.5-74.9,1-112.4ZM30.1,135.7c-7.5-.4-15.4,0-22.7.4-.8,0-2.5.4-2.3-.8.9-43.3-.7-86.1.5-129.4,0,0,0-.3,0-.3,0,0,0-.2,0-.2,0,0,3.3,0,3.3,0,17.3,0,34.8-.9,52.3-.4,11.9.4,24.5-.4,36.2.3,0,23,.3,46.7.2,69.5.2,18.4-.4,37.1.3,55.4-.1,1.3,0,3.1.1,4.6,0,.5,0,.9,0,1.3-21.2-1.8-46.6,0-68.1-.5Z"/>
    <path class="st0" d="M90.1,111.3c-.3-4.9-.8-10.1-1.5-15-.2-3.1,0-6.1,0-9.2.4-3.4.6-6.8.5-10.3-.7-4.3-.5-8.7-.8-13,0-.8,1-4.9-.6-3.5-5.8,5-15.1,5.3-22.3,3.5-18.5-4.3-28.1-30.6-15-44.9.7-.9,3.8-2.4.9-2.4-1.4,0-2.7.5-4,.3-.9-.1-1.7,0-2.6,0-2.2.2-4.3,0-6.5.2-1.7,0-3.3-.4-4.8,0-1.5.3-3-.3-4.5-.3-2.3,0-4.7,0-6.9,0-1.6,0-3.3,0-4.6,1.1-3.3,3.1-.8,9.5-1,13.5,0,2.4.6,4.8.4,7.2-.4,2.3.3,4.5.3,6.8.3,8.2-.8,16.4-.5,24.5-.8,4.9.5,9.9,0,14.8,0,6.1,1.1,12.4,0,18.5.6,4.6-.8,9.3-.1,14-.5,9,5.9,5.6,11.8,6.5,3,0,6,.9,8.9.5,1.7-.3,3.7-.3,5.4,0,2.4,0,4.9-.1,7.4-.4.8,0,1.7,0,2.5,0,2.5.4,5.1-.2,7.7-.3,2.9.3,5.7.9,8.6.2,3.2-.3,7-.4,10.3.2,1.3.3,2.7-.3,3.9-.2.6,0,1.1.2,1.7,0,1.2-.2,3.6-1.1,4.4-2.5.7-3.1.8-6.5,1-9.7v-.2ZM29,32.7c0-1.5,2.2-1.4,2.2,0h0c-.2,1.4-2.1,1.1-2.1,0ZM30.7,72.6c0,.5-.8.8-1.1.3-.7-.9.9-1.6,1.1-.5v.2ZM32,110.4c0,.5-.8.8-1.1.3-.7-.9.9-1.6,1.1-.5v.2ZM36.5,58.9c-.2,1.2-2.1,1-2.1-.2,0-1.5,2.2-1.4,2.2,0h0ZM39.8,85.7c-.2,1.2-2.1,1-2.1-.2,0-1.5,2.2-1.4,2.2,0h0ZM52.5,75.7v.2c0,.5-.8.8-1.1.3-.7-.9.9-1.6,1.1-.5ZM53.2,103.7c0,.5-.8.8-1.1.3-.7-.9.9-1.6,1.1-.5v.2ZM66.8,85.7c-.2,1.2-2.1,1-2.1-.2,0-1.5,2.2-1.4,2.2,0h0ZM79.6,90.1c0,.5-.8.8-1.1.3-.7-.9.9-1.6,1.1-.5v.2Z"/>
  </g>
</svg>