<?xml version="1.0" encoding="UTF-8"?>
<svg id="Capa_1" xmlns="http://www.w3.org/2000/svg" version="1.1" viewBox="0 0 46 48.7">
  <!-- Generator: Adobe Illustrator 30.2.1, SVG Export Plug-In . SVG Version: 2.1.1 Build 1)  -->
  <defs>
    <style>
      .st0 {
        fill: #333;
      }
    </style>
  </defs>
  <g id="Triforce">
    <path class="st0" d="M17.7,41.7c0,1.4-.1,3.4.1,4.7.2.3.7.2,1.1.2.8,0,1.6.2,2.4,0,1.5-.2,3.2-.1,4.7.2.8,0,1.8-.1,2.7-.1.2,0,.2,0,.2-.3,0-.4.2-1.1.1-1.5-.1-.5-.2-.8-.2-1.3,0-.8.1-1.9,0-2.9,0-.5,0-1.1.4-1.4,1.6-1.2,1.5,1.9,1.5,2.8,0,.9.1,1.9.3,2.8,0,1.3-.2,1.9-.1,3.4,0,.8-1.1.4-1.7.5-1.7,0-2.9,0-4.9,0s-5.5.1-8.3,0-.4-.2-.4-.5c-.3-1.7,0-3.4.2-5.1.1-1.2,0-2.5.1-3.7.3-1,1.5-.6,1.6.4,0,.6,0,1.2,0,1.6v.2Z"/>
  </g>
  <path class="st0" d="M45,35.4c-.2-.8-.9-1.9-1.2-2.5-.9-1.6-1.9-3.5-2.9-4.8-1.3-1.9-2.3-4.1-3.4-6.1-.7-1.3-1.1-2-2.1-2.9-.1,0-.1,0-.3-.2-.4-.2-.7-.6-.9-1.1-2.2-4.4-4.7-8.7-7.1-13.1-.8-1.5-1.9-3.4-3.8-3.5-3.4.3-4.3,4.7-6.2,7.2-1.4,2.4-2.6,4.6-4,6.9-2.5,4.3-5.1,8.6-7.6,12.9-1.1,1.9-2.1,3.6-3,5.4-.6,1.2-1.1,2.7-.6,3.9,1.2,3,5,1.9,7.6,2.2,5,0,9.8,0,14.8,0,3.6,0,7.6-.1,11.4,0,3.4,0,10.1,1.1,9.3-4.1h0ZM32.7,20.3c-.2,1.1-1.2,2.3-1.7,3.3-1.7,2.8-2.9,4.8-4.3,7.2-1,1.9-2,3.8-3.2,5.5-.1.2-.2.3-.4.4-.4,0-.8-.9-1.1-1.4-1-1.9-2.3-4.3-3.2-5.9-1.3-2.6-3.2-5.7-4.5-8-.7-1.1-.1-1.5,1-1.5,2.7.1,5.3,0,7.8,0,2.1,0,4.1,0,6.2,0,.9,0,2,0,2.7,0,.3,0,.5.2.6.4h0Z"/>
  <path class="st0" d="M3.7,39.4c-.6-.4,0-.2.4,0,.2,0,.4,0,.4.1,0,0-.2,0-.8,0Z"/>
  <path class="st0" d="M24.3,39.4c.3,0,.4,0,.4,0,0,0-1.3,0-.4,0Z"/>
</svg>