<?xml version="1.0" encoding="UTF-8"?>
<svg id="Capa_1" xmlns="http://www.w3.org/2000/svg" version="1.1" viewBox="0 0 768 201.4">
  <!-- Generator: Adobe Illustrator 30.2.1, SVG Export Plug-In . SVG Version: 2.1.1 Build 1)  -->
  <defs>
    <style>
      .st0 {
        fill: #333;
      }
    </style>
  </defs>
  <g>
    <path class="st0" d="M195.7,57.5c-.3,1.7-.5,3.5-.7,5.3h0c0,0,0,.2,0,.2v.4c0,0,0,0,0,0h0c0,0-8.6,61.1-8.6,61.1-1.5,16.9-10.7,29.9-24.5,34.8-3.6,1.3-7.3,2-11.2,2s-3.1-.1-4.7-.3c-4.4-.6-8.7-2.1-12.6-4.4-9.1-5.2-15.7-14.4-17.6-24.5-1.6-7.7-.7-14.2,0-20l2.4-17.5,2.2-15.4,1-7.4,7.4,1,20.7,2.9,7.3,1,2.5-17.9c0-.5.1-.9.2-1.4H0v143.8h768V57.5H195.7Z"/>
    <path class="st0" d="M148.5,83.2l-20.7-2.9-2.2,15.4-2.4,17.5c-.7,5.4-1.5,10.9-.1,17.5,1.5,8,6.7,15.3,13.9,19.4,3.1,1.8,6.5,3,9.9,3.4,1.2.2,2.4.3,3.6.3,3,0,5.9-.5,8.6-1.5,11.1-3.9,18.4-14.6,19.6-28.6l8.6-61.2v-.4c.2-1.5.4-3,.6-4.5h-21c0,.7-.2,1.5-.3,2.3l-8.6,61.3v.6c-.2,1.5-1,9.2-6,10.9-.5.2-1.1.3-1.6.3-1.3,0-2.5-.5-3.1-.9-2-1.2-3.5-3.1-3.8-5.1v-.4c-.7-3-.3-6.2.3-10.5l4.6-32.8Z"/>
  </g>
  <path class="st0" d="M137.1,150.1c3.1,1.8,6.5,3,9.9,3.4,1.2.2,2.4.3,3.6.3,3,0,5.9-.5,8.6-1.5,11.1-3.9,18.4-14.6,19.6-28.6l8.6-61.2v-.4c.4-3.1.8-6,1.3-8.7,1.7-10.6,3.5-21.6-5-35.8l-.3-.5C176.2,6.1,164.7,0,152.3,0c-2.6,0-5.3.3-8,.8-16.5,3.5-29.2,16.9-32.3,34.3l-.9,6.2,20.6,2.9.8-5.7c2-10.7,9.6-16,16-17.3.9-.2,2.2-.4,3.7-.4,4,0,9.5,1.3,13.8,7.5,4.4,7.6,3.6,12.6,2.1,21.6-.5,2.9-1,6.2-1.4,9.8l-8.6,61.3v.6c-.2,1.5-1,9.2-6,10.9-.5.2-1.1.3-1.6.3-1.3,0-2.5-.5-3.1-.9-2-1.2-3.5-3.1-3.8-5.1v-.4c-.7-3-.3-6.2.3-10.5l4.6-32.8-20.7-2.9-2.2,15.4-2.4,17.5c-.7,5.4-1.5,10.9-.1,17.5,1.5,8,6.7,15.3,13.9,19.4Z"/>
</svg>