<?xml version="1.0" encoding="UTF-8"?>
<svg id="Capa_1" xmlns="http://www.w3.org/2000/svg" version="1.1" viewBox="0 0 634.69 436.87">
  <!-- Generator: Adobe Illustrator 30.2.1, SVG Export Plug-In . SVG Version: 2.1.1 Build 1)  -->
  <defs>
    <style>
      .st0 {
        fill: none;
        stroke: #fcfcfc;
        stroke-miterlimit: 10;
        stroke-width: 3px;
      }

      .st1 {
        fill: #fff;
      }

      .st2 {
        display: none;
      }
    </style>
  </defs>
  <path class="st0" d="M392.53,277.62"/>
  <path d="M608.33,344.38c-8.49-1.19-29.35,10.51-36.42,5.36-1.65-2.84-.08-6.04,1.42-10.43,2.58-8.31,5.48-15.84,14.54-18.43,7.55-2.7,19.18-6.83,22.51-12.43,1.72-2.88.52-5.92-3.39-6.13-5.47-.62-12.88,3.73-18.33,2.93-7.96-1.34-3.58-16.39.27-20.5,7.56-7.12,21.51-11.52,26.98-21.58,1.76-3.12,1.48-7.07-2.43-7.31-7.87-.28-17.28,12.58-25.31,9.2-2.38-1.37-3.04-4.87-3.73-7.65-3.48-19.46-14.85-43.93-28.95-39.91-10.54,3.45-17.78,16.87-20.19,27.6-3.33,13.99-1.37,27.28-3.51,41.37-4.89,34.22-35.54,65.67-67.9,73.26-6.9,1.62-14.02,3.29-21.11,4.4-36.59,5.55-63.99-22.59-68.73-57.23-2.53-23.88,2.57-48.53,14.46-69.17,23.45-41.79,81.02-70.76,128.15-52.41,9.05,3.34,17.04,9.84,26.51,12.1,13.37,3.38,25.97-6.19,30.8-17.64,13.45-55.05,19.61-188.37-62.92-159.58-35.15,14.56-62.37,45.74-78.94,79.54-4.39,8.54-8.98,21.43-17.8,24.02-10.01,2.38-30.29-8.01-41.27-11.06-44.78-14.48-104.81-4.67-147.6,11.12-14,3.94-15.77-11.97-22.12-23.86-4.79-10.4-10.75-19.08-17.32-27.78C88.78-54.59,41.47,41.48,57,159.41c1.35,19.52,11.9,39.71,33.9,38.88,17.84.08,32.67-12.15,48.65-17.48,53.78-15.34,125.54,57.47,119.95,119.66-2.83,38.8-42.24,70.87-81.16,62.99-39.53-8.89-76.11-47.43-76.14-88.86-.05-19.96,3.04-46-19.5-55.06-8.12-3.42-17.14.65-21.43,8.01-7.01,10.63-7.15,24.88-9.61,37.48-4.78,14.25-19.75-2.6-27.73-5.12-9.68-2.53-6.39,8.73-1.21,12.63,3.84,3.59,8.61,6.49,13.2,9.1,5.42,3.12,10.24,5.13,12.93,8.9,2.95,4.38,6.71,16.77-.44,18.8-5.16,1.21-13.89-3.48-19.38-3.22-3.61.02-5.74,2.24-4.65,5.17,2.03,5.27,10.46,9.03,15.85,10.97,12.63,3.8,19.27,5.33,23.03,19.05,1.54,5.3,4.29,9.86,1.14,12.93-2.54,1.6-5.93.94-8.84.57-5.64-.88-10.75-2.72-16.31-4.47-4.98-1.45-10.06-3.22-14.58-1.75-5.93,2.79.53,9.19,4.29,11.08,11.1,5.92,23.33,10.44,35.75,12.42,5.2.79,10.72,1.21,15.32,3.95,2.51,1.43,4.74,3.43,6.88,5.62,27.75,32.12,73.62,46.79,113.88,30.43,8.48-2.95,17.33-6.45,26.41-5.68,10.15.72,16.98,7.38,27.06,10.56,4.06,1.31,28.4,9.7,27.02,1.48-.64-3.21-2.95-6.82-3.99-10.14-6.04-16.48,12.38-29.55,26.03-21.16,5.24,2.61,8.84,8.21,13.63,11.28,4.78,2.22,8.65-6.52,12.77-8.59,10.86-8.28,31.31-2.15,31.28,12.89.02,4.76-2.67,8.9-5.83,12.28-1.65,1.95-3.48,3.6-4.27,5.95-.8,3.84,4.67,3.68,7.46,3.63,15.65-1.07,29.12-10.4,44.2-14.96,10.68-3.67,22.04-3.52,32.66.5,42.49,20.03,88.8,7.73,116.51-29.67,2.57-3.46,5.54-6.96,9.29-8.91,2.98-1.64,6.46-2.43,9.8-3.14,12-2.49,23.5-7.45,34.47-12.83,4.64-1.81,11.89-9.4,3.21-11.2l-.16-.02ZM503.19,107.72c-3.23,2.47-6.77,4.14-10.09,7.04-2.51,2.15-4.88,4.78-6.8,7.53-6.01,8.49-6.24,17.09-11.25,19.69-2.42,1.29-5.72.37-6.71-2.32-2.07-6.53,5.26-17.03,9.62-22.4,13.27-16.65,37.55-20.6,25.35-9.64l-.13.1ZM445.51,135.24c-.84-2.19-.43-5.24.06-7.69,5.65-27.41,26.07-51.55,52.6-61.81,2.62-1,7.59-1.81,8.87.61.55,1.15-.32,2.77-2.19,4.22-24.62,12.08-41.81,29.54-47.37,56.93-.68,3.18-1.67,6.87-4.08,8.96-2.44,2.4-6.72,2.15-7.84-1.07l-.06-.14ZM150.04,142.58c-8.53,2.87-7.78-6.8-14.25-16.67-1.84-2.93-4.13-5.81-6.55-8.2-3.9-4.15-8.34-5.76-12.29-9.1-3.47-3.02-1.67-6.51,2.46-6.91,2.6-.35,5.5.45,7.94,1.57,11.85,5.84,21.4,15.96,25.62,28.13,1.45,3.81,1.14,9.23-2.8,11.1l-.13.06ZM171.54,138.19c-8.17,1.61-7.98-12-10.08-17.23-5.08-16.29-15.84-30.68-29.89-40.27-2.68-1.85-5.47-3.41-8.4-4.87-3.35-1.85-10.84-4.68-8.86-9.26,3.03-3.95,10.29-1.63,14.31.31,23.72,11.1,41.55,33.15,46.78,58.51,1.04,4.36,1.09,11.09-3.73,12.76l-.14.04Z"/>
  <g class="st2">
    <g>
      <path d="M196.53,241.78c-6.51-4.96-21.89-15.45-41.92-17.41-5.79-.56-32.69-3.06-43.97,13.61-21.98,32.49,5.56,84.72,43.1,100.86,24.04,11.36,48.95,5.75,58.71-13.44,4.16-8.19,4.16-16.89,4.01-24.77-.46-23.57-10.08-42.82-15.54-52.25"/>
      <path d="M200.31,235.3c-18.36-13.89-41.54-21.19-64.53-18.25-12.71,1.63-24.66,6.66-31.96,17.66-6.74,10.15-9.31,22.97-8.3,35.01,2.23,26.46,17.92,50.84,38.91,66.53,21.71,16.23,56.72,24.5,77.68,2.44,13.08-13.76,13.22-33.74,10.63-51.45-2.2-15.04-7.8-29.49-15.36-42.64-4.81-8.37-17.78-.82-12.95,7.57,5.16,8.98,9.21,18.47,11.76,28.53,1.79,7.09,2.68,14.21,2.78,21.52.09,6.79-.09,13.84-3.33,19.99-11.69,22.18-41.03,15.7-58.29,4.78s-31.6-30.61-35.93-51.35c-1.88-9.03-1.63-18.88,2.07-27.44,4.02-9.31,11.21-13.93,20.94-15.86,20.68-4.1,41.9,3.51,58.3,15.92,3.25,2.46,8.36.49,10.26-2.69,2.29-3.82.52-7.83-2.69-10.26h0Z"/>
    </g>
    <path class="st1" d="M131.59,231.71c-18.46,10.27-24.21,33.38-18.57,52.74,3.2,10.99,9.42,20.85,16.81,29.49,7.94,9.29,16.83,13.88,28.75,16.27s25.34,3.84,37.24.07c10.87-3.45,13.31-13.21,14.39-23.51,2.05-19.64-4.45-39.87-16.61-55.28-7.27-9.21-16.74-16.79-27.62-21.29-6.19-2.56-12.95-4.16-19.69-3.82-5.18.26-11.67,1.15-14.03,6.47s5.43,9.83,7.77,4.54c1.51-3.42,10.77-2.07,13.6-1.56,4.76.85,9.35,2.58,13.6,4.87,6.98,3.77,13.1,8.89,18.21,14.94,10.1,11.97,15.95,27.65,16.13,43.31.08,6.75.21,19.39-7.21,22.31-9.34,3.68-21,2.53-30.62.79s-18.01-4.17-24.88-11.51c-6.08-6.49-11.37-13.98-14.89-22.17-7.22-16.81-5.24-39.2,12.18-48.9,5.06-2.82.53-10.59-4.54-7.77h0Z"/>
    <path class="st1" d="M147.03,243.87c-6.22,2.47-9.65,7.28-11.53,13.6-2.19,7.33-3.31,15.76-2.55,23.38.67,6.74,2.74,13.3,6.96,18.68,1.96,2.49,4.24,4.44,7.2,5.61,3.56,1.41,7.57,1.2,11.06,2.79,5.23,2.38,9.81-5.37,4.54-7.77-4.04-1.84-8.73-1.66-12.63-3.56-4.71-2.3-6.93-8.85-7.82-13.67-.97-5.29-.54-10.83.38-16.09.83-4.74,1.64-12.24,6.78-14.28,5.32-2.11,3-10.82-2.39-8.68h0Z"/>
    <path class="st1" d="M176.16,314.75c4.93-1.24,11.08-2.89,15.01-6.29s5.14-9.16,6.45-13.9c1.55-5.59-7.13-7.97-8.68-2.39-.82,2.94-1.54,7.97-4.14,9.84-3.01,2.17-7.49,3.17-11.03,4.06-5.61,1.41-3.23,10.1,2.39,8.68h0Z"/>
    <path class="st1" d="M161.71,254.56c-5.04,4.2-7.59,14.27-8.14,20.56s2.08,13.91,8.84,15.72c6.38,1.7,14.29-4.5,16.31-10.28,2.37-6.78.04-15.19-2.49-21.59-2.09-5.29-6.29-10.71-11.99-5.94-5.12,4.29-7.79,12.99-7.4,19.43s5.46,12.65,12.28,9.49c2.59-1.2,4.26-3.86,4.48-6.67.14-1.78-.47-3.07-1.06-4.69-.78-2.14-.66-3.18.27-5.41,2.23-5.34-6.47-7.67-8.68-2.39-.76,1.81-2.76,12.53,1.03,11.21,1.14-.4,1.01-5.87,1.47-7.46.43-1.47,1.69-6.27,3.41-6.63l-3.47-.45c2.09,1.06,2.93,8.01,3.44,10.3.84,3.8,1.68,9.86-3.4,11.34-2.25.65-3.3.29-3.98-2.17s.27-5.43.96-7.85c.96-3.32,1.77-7.9,4.5-10.17,4.45-3.71-1.94-10.05-6.36-6.36h0Z"/>
  </g>
  <g class="st2">
    <g>
      <path d="M401.78,241.78c6.51-4.96,21.89-15.45,41.92-17.41,5.79-.56,32.69-3.06,43.97,13.61,21.98,32.49-5.56,84.72-43.1,100.86-24.04,11.36-48.95,5.75-58.71-13.44-4.16-8.19-4.16-16.89-4.01-24.77.46-23.57,10.08-42.82,15.54-52.25"/>
      <path d="M405.56,248.26c15.16-11.47,33.04-17.94,52.14-16.69,8.43.55,17.98,2.9,23.34,9.97,5.76,7.59,7.43,17.68,6.83,26.97-1.35,20.95-14.45,41.06-30.51,53.94-15.73,12.62-43.58,22.9-60.13,6.1-10.26-10.41-9.01-28.2-6.53-41.48,2.31-12.36,6.91-24.02,13.16-34.89,4.82-8.38-8.14-15.95-12.95-7.57-6.44,11.2-11.5,23.39-14.19,36.05-3.36,15.82-4.81,35.07,3.29,49.72,15.31,27.68,51.25,25.05,75.18,11.56,22.53-12.7,40.49-36.34,46.02-61.69,5.42-24.89-2.58-53.81-29.45-61.43-25.23-7.15-53.37,1.06-73.77,16.49-3.25,2.46-4.86,6.44-2.69,10.26,1.82,3.2,7.04,5.13,10.26,2.69h0Z"/>
    </g>
    <path class="st1" d="M462.17,239.48c14.67,8.17,18.91,26.43,14.67,41.8-2.4,8.7-7.03,16.74-12.63,23.78-6.25,7.85-12.57,13.14-22.5,15.53-9.85,2.37-20.31,3.84-30.42,2.39-4.38-.63-9.65-1.33-11.83-5.71-1.83-3.69-2.25-8.58-2.54-12.62-1.12-15.44,3.29-30.87,11.94-43.66,4.88-7.22,11.24-13.52,18.62-18.16,4.56-2.87,9.44-5.14,14.68-6.43,3.08-.76,14.37-2.97,16.13,1.01,2.34,5.29,10.1.71,7.77-4.54-4.34-9.8-21.81-6.75-29.63-4.18-10.06,3.3-19.18,9.38-26.55,16.93-13.92,14.25-22.13,34.13-22.13,54.07,0,8.85.68,21.34,8.16,27.31,9.01,7.19,24.61,6.07,35.24,4.66,11.47-1.52,23.16-3.9,31.92-11.96,8.1-7.45,14.91-17.24,19.3-27.3,9.16-20.98,5.96-48.65-15.65-60.68-5.07-2.82-9.61,4.95-4.54,7.77h0Z"/>
    <path class="st1" d="M448.88,252.54c4.9,1.94,5.76,8.86,6.61,13.39,1.04,5.54,1.58,11.39.55,16.98-.84,4.53-2.82,10.66-6.93,13.28-3.83,2.43-9.31,2.04-13.52,3.96-5.26,2.4-.69,10.16,4.54,7.77,3.49-1.59,7.5-1.39,11.06-2.79,2.76-1.09,4.96-2.88,6.85-5.15,4.48-5.39,6.63-12.25,7.31-19.13.74-7.43-.41-15.34-2.33-22.53-1.78-6.65-5.23-11.86-11.75-14.45-5.38-2.14-7.72,6.56-2.39,8.68h0Z"/>
    <path class="st1" d="M424.54,306.07c-3.55-.89-8.01-1.88-11.03-4.06-2.59-1.87-3.33-6.93-4.14-9.84-1.55-5.57-10.23-3.21-8.68,2.39,1.31,4.72,2.6,10.56,6.45,13.9s10.06,5.05,15.01,6.29c5.62,1.41,8.01-7.26,2.39-8.68h0Z"/>
    <path class="st1" d="M430.23,260.93c2.72,2.27,3.52,6.83,4.5,10.17.64,2.21,1.33,4.5,1.05,6.82.01.97-.23,1.87-.73,2.72-1.04,1.48-2.15,1.63-3.34.47-5.07-1.47-4.23-7.53-3.4-11.34.46-2.15,1.37-9.24,3.44-10.3l-3.47.45c1.47.31,2.77,4.64,3.18,5.9.44,1.36.88,2.82,1.01,4.26s-1,3.35.68,3.93c3.85,1.32,1.76-9.47,1.03-11.21-2.2-5.26-10.92-2.95-8.68,2.39.93,2.23,1.05,3.27.27,5.41-.59,1.62-1.2,2.91-1.06,4.69.22,2.81,1.89,5.47,4.48,6.67,6.42,2.97,11.58-2.59,12.22-8.71.69-6.62-2.07-15.81-7.34-20.22-5.65-4.74-9.9.65-11.99,5.94-2.52,6.39-4.85,14.84-2.49,21.59,2.01,5.74,9.44,11.52,15.71,10.36,7.15-1.33,10-9.38,9.44-15.8s-3.07-16.33-8.14-20.56c-4.42-3.69-10.82,2.65-6.36,6.36h0Z"/>
  </g>
</svg>