<svg width="47" height="16" viewBox="0 0 47 16" fill="none" xmlns="http://www.w3.org/2000/svg">
<path d="M42.9284 6.5111C42.9701 6.46568 42.989 6.40132 42.9814 6.33318C42.936 5.82215 43.6673 3.33891 44.2964 3.99757C44.3874 4.096 44.52 4.09978 44.5958 4.01272C44.6034 4.00515 44.6072 3.99758 44.6147 3.98622C44.8952 4.14521 44.8838 4.44426 44.9255 4.73573C45.1301 6.28776 44.9255 7.77543 44.7625 9.28961C44.7019 9.84606 44.5693 10.4896 44.0274 10.6032C43.3983 9.92934 42.7692 9.21011 42.8298 8.21454C42.9208 7.6543 42.9549 7.0827 42.9322 6.50731L42.9284 6.5111Z" fill="#4A4745"/>
<path d="M0.693497 6.61709C1.98574 5.95843 3.3083 5.3944 4.57402 4.75088C6.49534 3.85373 8.33708 2.87709 10.0954 1.82474C11.4218 0.969231 12.7103 0.439271 14.2905 0.617187C15.0977 0.700466 15.9087 0.73832 16.7083 0.723179C17.7883 0.711822 18.857 0.609616 19.9218 0.59826C21.8166 0.575547 23.6887 0.60583 25.5418 0.583118C27.0159 0.567976 28.4749 0.499838 29.9187 0.480911C32.1432 0.454413 34.3374 0.454413 36.4975 0.435486C38.1421 0.420344 39.7717 0.390061 41.3822 0.367348C41.549 0.367348 41.7157 0.348421 41.8787 0.34085C42.7541 0.302996 43.6219 0.25 44.4897 0.25C44.6943 0.295425 44.8876 0.427915 45.0202 0.617187C45.7933 1.66197 46.0017 2.93008 46.1381 4.09221C46.339 5.82594 46.2215 7.58238 46.2026 9.35396C46.176 10.9817 45.8539 12.5678 45.2514 14.0176C44.971 14.646 44.4632 15.0889 43.8455 15.2479C43.6598 15.2592 43.4741 15.2252 43.2922 15.1457L43.3187 14.9148C43.1557 14.839 42.9852 14.7823 42.8109 14.7558C42.3183 14.7406 41.8294 14.7633 41.3368 14.7671C39.6997 14.7785 38.0474 14.7898 36.38 14.8012C34.4966 14.8125 32.5904 14.8277 30.6615 14.8277C29.2404 14.8277 27.8004 14.786 26.3565 14.7823C24.2306 14.7747 22.0781 14.7823 19.8991 14.7823C17.6026 14.7823 15.272 14.6725 12.9225 14.8277C11.9599 14.9148 11.0012 14.593 10.266 13.9343C9.81123 13.5596 9.34511 13.1962 8.86004 12.8631C7.276 11.7766 5.69953 10.6637 4.06243 9.64544C2.98998 8.9792 1.81521 8.47195 0.697285 7.8625C0.477489 7.76029 0.314541 7.56723 0.253906 7.33254C0.291801 7.04106 0.454754 6.77987 0.697285 6.61331L0.693497 6.61709ZM43.9629 13.7488L43.8455 14.2712L44.0387 14.3848C44.1297 14.1463 44.2206 13.9116 44.3078 13.6769C44.3305 13.5558 44.3722 13.4384 44.4215 13.3324C45.115 12.3747 45.4484 11.1369 45.3689 9.84606C45.3537 9.1079 45.5091 8.39246 45.5356 7.66187C45.5659 6.95021 45.5546 6.23098 45.5053 5.51553C45.4447 4.13385 45.1491 2.75595 44.6375 1.4462C44.4328 0.969232 44.285 1.03358 44.0122 1.238C43.2619 1.79067 42.936 2.70296 42.5456 3.55847C41.9393 4.87958 42.1515 6.42025 42.2728 7.93821C42.2728 7.96092 42.2804 7.98363 42.2879 8.00256C42.2349 8.31675 42.2311 8.6423 42.2804 8.97163C42.3334 9.24797 42.4244 9.51673 42.557 9.76657C42.61 11.118 43.493 13.658 43.9705 13.7526L43.9629 13.7488ZM42.8223 13.8738C42.6214 13.3022 42.4471 12.7987 42.2841 12.3217C42.034 12.3066 41.8104 12.2725 41.5944 12.2839C41.4466 12.265 41.3064 12.3104 41.1965 12.405C41.1965 12.5754 41.2344 12.7457 41.3102 12.9009C41.3633 13.094 41.4239 13.2832 41.4808 13.4763L41.2723 13.5671L40.4007 12.2877L40.2757 12.3066L40.4765 13.3779L40.3363 13.4271C40.1127 13.0675 39.9498 12.5867 39.6504 12.3823C39.3586 12.1817 38.9266 12.2574 38.4567 12.2006C38.6386 12.7192 38.7788 13.1242 38.9228 13.5255L38.8129 13.6201C38.703 13.5482 38.6083 13.4574 38.5287 13.3476C38.1687 12.6549 37.839 11.9432 37.5472 11.2202C37.2743 10.4934 37.316 10.4744 36.5164 10.747C36.7703 11.5041 37.0242 12.265 37.2781 13.0296L37.1379 13.147C36.8916 12.8858 36.6718 12.5943 36.4785 12.2839C36.2928 11.9053 36.2284 11.4662 36.073 11.0688C35.9783 10.9136 35.857 10.7735 35.7206 10.6599C35.6259 10.8189 35.569 11.0006 35.5539 11.1937C35.6562 11.523 35.7774 11.8448 35.9101 12.1627C36.0124 12.4883 36.0692 12.8252 36.1488 13.1583L35.8949 13.2416C35.5425 12.4202 35.1901 11.6025 34.8149 10.7281C34.0153 10.7886 33.9168 11.0271 34.4246 11.8145C34.7782 12.3646 34.926 12.7684 34.8679 13.0258C34.2616 12.6624 33.9243 12.1249 33.5567 10.8984C33.2763 10.9363 32.9769 10.9666 32.6851 11.012C32.4047 11.0536 32.1281 11.1104 31.7984 11.1672C31.8173 10.5502 32.219 10.5426 32.5298 10.5047C33.4658 10.3798 34.4094 10.3457 35.3265 10.1868C35.6637 10.0618 35.9707 9.87635 36.2436 9.63786C36.6869 10.2587 37.1644 10.2776 37.6457 9.62651C38.396 10.4555 38.7674 9.72871 39.2108 9.17226L39.3965 9.84228L39.5519 9.9142L39.927 8.76722L40.0786 8.80128C40.0938 9.04734 40.1279 9.29339 40.1771 9.53944C40.2302 9.6795 40.3211 9.80064 40.4348 9.8877C40.5902 10.0126 40.7494 10.13 40.9161 10.236L40.4121 10.7054C40.3552 11.3602 40.522 11.5911 41.2041 11.6631C42.1818 11.7653 42.1932 11.7653 41.9241 10.6599C41.405 8.6158 41.2647 6.5376 41.5035 4.57296C41.6058 3.78559 42.0113 3.08529 42.2955 2.36606C42.4547 1.96859 42.6555 1.59383 42.9018 1.07144L13.1271 1.30613C13.1385 1.45377 13.165 1.6014 13.1991 1.74903C13.8888 4.17928 14.5217 6.64738 14.1162 9.25554C13.8926 10.6826 13.6273 12.1173 12.7633 13.3476C12.6572 13.5028 12.5776 13.6769 12.4147 13.9722C23.2112 13.9003 33.2991 14.4226 42.8223 13.8662V13.8738ZM39.5215 10.535C39.6239 10.906 39.6997 11.2126 39.7982 11.5117C39.8361 11.5949 39.9043 11.6593 39.9839 11.6858C40.0521 11.682 40.1089 11.6404 40.1392 11.5798C40.2491 11.3602 39.8626 10.6372 39.5178 10.5388L39.5215 10.535ZM39.1994 11.7009C39.135 11.3489 39.0706 10.9968 38.9796 10.5009L38.0171 10.6486C38.0967 11.0195 38.0777 11.5041 38.2861 11.7236C38.4453 11.8902 38.8849 11.7236 39.1994 11.7047V11.7009ZM6.82883 10.3533C7.78001 10.9438 8.68193 11.6252 9.64828 12.1779C10.194 12.4315 10.6866 12.7949 11.0959 13.2454C11.2892 13.34 11.5165 13.3287 11.6984 13.2113C12.1342 12.6321 12.4943 12.0038 12.7709 11.3337C13.6614 8.70665 13.5136 6.08335 12.8012 3.49411C12.6345 2.88087 12.4601 2.27142 12.2479 1.5219C11.6871 1.86259 11.3157 2.09729 10.9292 2.31684C9.95902 2.8733 8.98889 3.45247 7.97707 3.97865C7.22294 4.37233 7.17368 4.46697 7.41242 5.27705C7.91265 6.68523 7.63601 8.26754 6.67345 9.44102C6.32481 9.86878 6.38544 10.0808 6.82504 10.3533H6.82883Z" fill="#4A4745"/>
<path d="M20.2439 11.0915C20.4221 11.3602 20.5812 11.6214 20.7669 11.8599C20.8503 11.9848 20.9791 12.0719 21.1231 12.0984C21.2671 12.0568 21.3808 11.9432 21.4301 11.7918C21.4983 11.3148 21.7484 11.277 22.0743 11.5117C22.1463 11.6934 22.26 11.8523 22.404 11.9773C22.7034 11.9583 23.0028 11.9053 23.287 11.8145L22.9497 11.4132L23.359 10.9287C24.079 11.2845 24.8975 11.224 25.5266 10.7735C25.8942 10.9211 26.277 11.0082 26.6597 11.0385C27.0008 10.9476 27.3267 10.8038 27.6298 10.6183C27.8383 10.8341 28.0997 10.9779 28.3802 11.0271C28.7478 11.0915 28.8425 11.3754 28.6758 11.5836C28.4256 11.8978 28.4219 12.3747 28.6644 12.723C28.8766 13.1735 28.6985 13.3968 28.3347 13.6164L28.1073 12.8895L27.0046 12.829L26.8189 13.6466C26.1102 12.5678 25.6934 12.3974 24.6967 12.6738L24.7498 13.6845L24.5679 13.6958C24.3822 13.446 24.1851 13.2075 24.0108 12.9463C23.6243 12.3747 23.3476 12.3179 22.7526 12.7078C22.7299 13.0561 23.2946 13.4233 22.7716 13.817C22.6882 13.6731 22.6314 13.5634 22.5632 13.4574C22.1008 12.7343 21.8659 12.6397 21.0663 12.7987C20.9299 12.829 20.7896 12.7911 20.676 12.7041C20.4562 12.4542 20.3084 12.1287 20.081 11.8902C19.7475 11.5381 19.9256 11.3527 20.2553 11.0953L20.2439 11.0915ZM26.4361 11.9659C26.7544 12.0075 27.0728 12.0568 27.3911 12.0757C27.4669 12.0492 27.5275 11.9848 27.5616 11.9053C27.5237 11.7993 27.4479 11.7123 27.3532 11.6631C27.0462 11.6441 26.7393 11.6706 26.4323 11.6782V11.9621H26.4361V11.9659ZM24.1737 11.8675L25.5721 11.8561L25.5645 11.6139L24.1662 11.6214L24.1775 11.8675H24.1737Z" fill="#4A4745"/>
<path d="M30.2219 13.3703C29.6269 12.8782 29.1229 11.2012 29.3996 10.7508C29.9604 11.1823 30.4417 12.6586 30.2219 13.3703Z" fill="#4A4745"/>
<path d="M42.9284 6.5111C42.9701 6.46568 42.989 6.40132 42.9814 6.33318C42.936 5.82215 43.6673 3.33891 44.2964 3.99757C44.3874 4.096 44.52 4.09978 44.5958 4.01272C44.6034 4.00515 44.6072 3.99758 44.6147 3.98622C44.8952 4.14521 44.8838 4.44426 44.9255 4.73573C45.1301 6.28776 44.9255 7.77543 44.7625 9.28961C44.7019 9.84606 44.5693 10.4896 44.0274 10.6032C43.3983 9.92934 42.7692 9.21011 42.8298 8.21454C42.9208 7.6543 42.9549 7.0827 42.9322 6.50731L42.9284 6.5111Z" stroke="#4A4745" stroke-width="0.5"/>
<path d="M0.693497 6.61709C1.98574 5.95843 3.3083 5.3944 4.57402 4.75088C6.49534 3.85373 8.33708 2.87709 10.0954 1.82474C11.4218 0.969231 12.7103 0.439271 14.2905 0.617187C15.0977 0.700466 15.9087 0.73832 16.7083 0.723179C17.7883 0.711822 18.857 0.609616 19.9218 0.59826C21.8166 0.575547 23.6887 0.60583 25.5418 0.583118C27.0159 0.567976 28.4749 0.499838 29.9187 0.480911C32.1432 0.454413 34.3374 0.454413 36.4975 0.435486C38.1421 0.420344 39.7717 0.390061 41.3822 0.367348C41.549 0.367348 41.7157 0.348421 41.8787 0.34085C42.7541 0.302996 43.6219 0.25 44.4897 0.25C44.6943 0.295425 44.8876 0.427915 45.0202 0.617187C45.7933 1.66197 46.0017 2.93008 46.1381 4.09221C46.339 5.82594 46.2215 7.58238 46.2026 9.35396C46.176 10.9817 45.8539 12.5678 45.2514 14.0176C44.971 14.646 44.4632 15.0889 43.8455 15.2479C43.6598 15.2592 43.4741 15.2252 43.2922 15.1457L43.3187 14.9148C43.1557 14.839 42.9852 14.7823 42.8109 14.7558C42.3183 14.7406 41.8294 14.7633 41.3368 14.7671C39.6997 14.7785 38.0474 14.7898 36.38 14.8012C34.4966 14.8125 32.5904 14.8277 30.6615 14.8277C29.2404 14.8277 27.8004 14.786 26.3565 14.7823C24.2306 14.7747 22.0781 14.7823 19.8991 14.7823C17.6026 14.7823 15.272 14.6725 12.9225 14.8277C11.9599 14.9148 11.0012 14.593 10.266 13.9343C9.81123 13.5596 9.34511 13.1962 8.86004 12.8631C7.276 11.7766 5.69953 10.6637 4.06243 9.64544C2.98998 8.9792 1.81521 8.47195 0.697285 7.8625C0.477489 7.76029 0.314541 7.56723 0.253906 7.33254C0.291801 7.04106 0.454754 6.77987 0.697285 6.61331L0.693497 6.61709ZM43.9629 13.7488L43.8455 14.2712L44.0387 14.3848C44.1297 14.1463 44.2206 13.9116 44.3078 13.6769C44.3305 13.5558 44.3722 13.4384 44.4215 13.3324C45.115 12.3747 45.4484 11.1369 45.3689 9.84606C45.3537 9.1079 45.5091 8.39246 45.5356 7.66187C45.5659 6.95021 45.5546 6.23098 45.5053 5.51553C45.4447 4.13385 45.1491 2.75595 44.6375 1.4462C44.4328 0.969232 44.285 1.03358 44.0122 1.238C43.2619 1.79067 42.936 2.70296 42.5456 3.55847C41.9393 4.87958 42.1515 6.42025 42.2728 7.93821C42.2728 7.96092 42.2804 7.98363 42.2879 8.00256C42.2349 8.31675 42.2311 8.6423 42.2804 8.97163C42.3334 9.24797 42.4244 9.51673 42.557 9.76657C42.61 11.118 43.493 13.658 43.9705 13.7526L43.9629 13.7488ZM42.8223 13.8738C42.6214 13.3022 42.4471 12.7987 42.2841 12.3217C42.034 12.3066 41.8104 12.2725 41.5944 12.2839C41.4466 12.265 41.3064 12.3104 41.1965 12.405C41.1965 12.5754 41.2344 12.7457 41.3102 12.9009C41.3633 13.094 41.4239 13.2832 41.4808 13.4763L41.2723 13.5671L40.4007 12.2877L40.2757 12.3066L40.4765 13.3779L40.3363 13.4271C40.1127 13.0675 39.9498 12.5867 39.6504 12.3823C39.3586 12.1817 38.9266 12.2574 38.4567 12.2006C38.6386 12.7192 38.7788 13.1242 38.9228 13.5255L38.8129 13.6201C38.703 13.5482 38.6083 13.4574 38.5287 13.3476C38.1687 12.6549 37.839 11.9432 37.5472 11.2202C37.2743 10.4934 37.316 10.4744 36.5164 10.747C36.7703 11.5041 37.0242 12.265 37.2781 13.0296L37.1379 13.147C36.8916 12.8858 36.6718 12.5943 36.4785 12.2839C36.2928 11.9053 36.2284 11.4662 36.073 11.0688C35.9783 10.9136 35.857 10.7735 35.7206 10.6599C35.6259 10.8189 35.569 11.0006 35.5539 11.1937C35.6562 11.523 35.7774 11.8448 35.9101 12.1627C36.0124 12.4883 36.0692 12.8252 36.1488 13.1583L35.8949 13.2416C35.5425 12.4202 35.1901 11.6025 34.8149 10.7281C34.0153 10.7886 33.9168 11.0271 34.4246 11.8145C34.7782 12.3646 34.926 12.7684 34.8679 13.0258C34.2616 12.6624 33.9243 12.1249 33.5567 10.8984C33.2763 10.9363 32.9769 10.9666 32.6851 11.012C32.4047 11.0536 32.1281 11.1104 31.7984 11.1672C31.8173 10.5502 32.219 10.5426 32.5298 10.5047C33.4658 10.3798 34.4094 10.3457 35.3265 10.1868C35.6637 10.0618 35.9707 9.87635 36.2436 9.63786C36.6869 10.2587 37.1644 10.2776 37.6457 9.62651C38.396 10.4555 38.7674 9.72871 39.2108 9.17226L39.3965 9.84228L39.5519 9.9142L39.927 8.76722L40.0786 8.80128C40.0938 9.04734 40.1279 9.29339 40.1771 9.53944C40.2302 9.6795 40.3211 9.80064 40.4348 9.8877C40.5902 10.0126 40.7494 10.13 40.9161 10.236L40.4121 10.7054C40.3552 11.3602 40.522 11.5911 41.2041 11.6631C42.1818 11.7653 42.1932 11.7653 41.9241 10.6599C41.405 8.6158 41.2647 6.5376 41.5035 4.57296C41.6058 3.78559 42.0113 3.08529 42.2955 2.36606C42.4547 1.96859 42.6555 1.59383 42.9018 1.07144L13.1271 1.30613C13.1385 1.45377 13.165 1.6014 13.1991 1.74903C13.8888 4.17928 14.5217 6.64738 14.1162 9.25554C13.8926 10.6826 13.6273 12.1173 12.7633 13.3476C12.6572 13.5028 12.5776 13.6769 12.4147 13.9722C23.2112 13.9003 33.2991 14.4226 42.8223 13.8662V13.8738ZM39.5215 10.535C39.6239 10.906 39.6997 11.2126 39.7982 11.5117C39.8361 11.5949 39.9043 11.6593 39.9839 11.6858C40.0521 11.682 40.1089 11.6404 40.1392 11.5798C40.2491 11.3602 39.8626 10.6372 39.5178 10.5388L39.5215 10.535ZM39.1994 11.7009C39.135 11.3489 39.0706 10.9968 38.9796 10.5009L38.0171 10.6486C38.0967 11.0195 38.0777 11.5041 38.2861 11.7236C38.4453 11.8902 38.8849 11.7236 39.1994 11.7047V11.7009ZM6.82883 10.3533C7.78001 10.9438 8.68193 11.6252 9.64828 12.1779C10.194 12.4315 10.6866 12.7949 11.0959 13.2454C11.2892 13.34 11.5165 13.3287 11.6984 13.2113C12.1342 12.6321 12.4943 12.0038 12.7709 11.3337C13.6614 8.70665 13.5136 6.08335 12.8012 3.49411C12.6345 2.88087 12.4601 2.27142 12.2479 1.5219C11.6871 1.86259 11.3157 2.09729 10.9292 2.31684C9.95902 2.8733 8.98889 3.45247 7.97707 3.97865C7.22294 4.37233 7.17368 4.46697 7.41242 5.27705C7.91265 6.68523 7.63601 8.26754 6.67345 9.44102C6.32481 9.86878 6.38544 10.0808 6.82504 10.3533H6.82883Z" stroke="#4A4745" stroke-width="0.5"/>
<path d="M20.2439 11.0915C20.4221 11.3602 20.5812 11.6214 20.7669 11.8599C20.8503 11.9848 20.9791 12.0719 21.1231 12.0984C21.2671 12.0568 21.3808 11.9432 21.4301 11.7918C21.4983 11.3148 21.7484 11.277 22.0743 11.5117C22.1463 11.6934 22.26 11.8523 22.404 11.9773C22.7034 11.9583 23.0028 11.9053 23.287 11.8145L22.9497 11.4132L23.359 10.9287C24.079 11.2845 24.8975 11.224 25.5266 10.7735C25.8942 10.9211 26.277 11.0082 26.6597 11.0385C27.0008 10.9476 27.3267 10.8038 27.6298 10.6183C27.8383 10.8341 28.0997 10.9779 28.3802 11.0271C28.7478 11.0915 28.8425 11.3754 28.6758 11.5836C28.4256 11.8978 28.4219 12.3747 28.6644 12.723C28.8766 13.1735 28.6985 13.3968 28.3347 13.6164L28.1073 12.8895L27.0046 12.829L26.8189 13.6466C26.1102 12.5678 25.6934 12.3974 24.6967 12.6738L24.7498 13.6845L24.5679 13.6958C24.3822 13.446 24.1851 13.2075 24.0108 12.9463C23.6243 12.3747 23.3476 12.3179 22.7526 12.7078C22.7299 13.0561 23.2946 13.4233 22.7716 13.817C22.6882 13.6731 22.6314 13.5634 22.5632 13.4574C22.1008 12.7343 21.8659 12.6397 21.0663 12.7987C20.9299 12.829 20.7896 12.7911 20.676 12.7041C20.4562 12.4542 20.3084 12.1287 20.081 11.8902C19.7475 11.5381 19.9256 11.3527 20.2553 11.0953L20.2439 11.0915ZM26.4361 11.9659C26.7544 12.0075 27.0728 12.0568 27.3911 12.0757C27.4669 12.0492 27.5275 11.9848 27.5616 11.9053C27.5237 11.7993 27.4479 11.7123 27.3532 11.6631C27.0462 11.6441 26.7393 11.6706 26.4323 11.6782V11.9621H26.4361V11.9659ZM24.1737 11.8675L25.5721 11.8561L25.5645 11.6139L24.1662 11.6214L24.1775 11.8675H24.1737Z" stroke="#4A4745" stroke-width="0.5"/>
<path d="M30.2219 13.3703C29.6269 12.8782 29.1229 11.2012 29.3996 10.7508C29.9604 11.1823 30.4417 12.6586 30.2219 13.3703Z" stroke="#4A4745" stroke-width="0.5"/>
</svg>
